<svg width="52" height="78" viewBox="0 0 52 78" fill="none" xmlns="http://www.w3.org/2000/svg">
<rect x="1" y="2" width="50" height="50" rx="8" fill="#E9FFE9"/>
<path d="M24.5 45C24.5 45.8284 25.1716 46.5 26 46.5C26.8284 46.5 27.5 45.8284 27.5 45L24.5 45ZM24.5 25L24.5 45L27.5 45L27.5 25L24.5 25Z" fill="#50BF50"/>
<circle cx="26" cy="18" r="11" fill="#50BF50"/>
<path d="M25.8418 22.2441V21.1641C23.9414 21.0273 22.7793 19.9678 22.6699 18.4297H23.9277C24.0166 19.4072 24.8369 19.9336 25.8418 20.0361V16.4268L25.459 16.3242C23.9072 15.873 22.9365 15.0801 22.9434 13.7402C22.9365 12.2158 24.1738 11.1699 25.8418 10.9922V9.85742H26.6348V10.9717C28.4053 11.0811 29.6494 12.1611 29.6973 13.5898H28.4941C28.3984 12.708 27.6533 12.168 26.6348 12.0723V15.4629L27.0312 15.5723C28.0908 15.8457 29.834 16.4541 29.834 18.3066C29.834 19.8242 28.6855 21.0205 26.6348 21.1641V22.2441H25.8418ZM24.1328 13.6855C24.1396 14.6357 25.1035 15.0391 25.8418 15.2441V12.0859C24.7959 12.2295 24.1396 12.8584 24.1328 13.6855ZM26.6348 20.0361C27.7969 19.9199 28.6309 19.25 28.6309 18.2793C28.6309 17.3154 27.7148 16.9463 26.6758 16.6523L26.6348 16.6387V20.0361Z" fill="#E9FFE9"/>
<path d="M27.1015 43.4569C25.677 43.0295 25.2007 41.2521 26.2207 40.1697L29.4226 36.7718C29.9418 36.2208 30.7277 36.0102 31.4529 36.2278L35.9248 37.5695C37.3493 37.9969 37.8256 39.7743 36.8056 40.8567L33.6037 44.2547C33.0845 44.8057 32.2986 45.0163 31.5734 44.7987L27.1015 43.4569Z" fill="#50BF50"/>
<path d="M14.2207 33.8567C13.2007 32.7742 13.677 30.9968 15.1015 30.5694L19.5734 29.2277C20.2986 29.0101 21.0845 29.2207 21.6037 29.7717L24.8056 33.1696C25.8256 34.252 25.3493 36.0294 23.9248 36.4569L19.4529 37.7986C18.7277 38.0162 17.9418 37.8056 17.4226 37.2546L14.2207 33.8567Z" fill="#50BF50"/>
<path d="M24.0684 60.9531V69.9629H22.9883V65.2871H20.7598V64.3984H22.9883V60.9531H24.0684ZM14.0195 67.0371C14.5049 67.0371 15.0312 67.0371 15.5918 67.0303V62.9355H14.3613V62.0469H20.8418V62.9355H19.5977V66.873C20.2061 66.832 20.8008 66.7705 21.3613 66.6953L21.4297 67.4883C19.0098 67.9121 16.2002 67.9463 14.1562 67.9531L14.0195 67.0371ZM16.2344 72.8477V69.1699H17.3145V71.9453H24.3965V72.8477H16.2344ZM16.6309 67.0098C17.2529 66.9961 17.9023 66.9756 18.5449 66.9414V62.9355H16.6309V67.0098ZM35.9082 66.8047V67.6934H27.5137V62.0879H35.7852V62.9766H28.5801V66.8047H35.9082ZM26.0918 71.4531V70.5508H37.2207V71.4531H26.0918Z" fill="#50BF50"/>
</svg>
