<svg width="52" height="78" viewBox="0 0 52 78" fill="none" xmlns="http://www.w3.org/2000/svg">
<rect x="1" y="2" width="50" height="50" rx="8" fill="#EDF0F3"/>
<rect x="16.5" y="22.5" width="25" height="16" rx="1.5" fill="#C6CCD1" stroke="#EDF0F3"/>
<rect x="13.5" y="19.5" width="25" height="16" rx="1.5" fill="#C6CCD1" stroke="#EDF0F3"/>
<rect x="10.5" y="16.5" width="25" height="16" rx="1.5" fill="#C6CCD1" stroke="#EDF0F3"/>
<path d="M23.8418 30.2441V29.1641C21.9414 29.0273 20.7793 27.9678 20.6699 26.4297H21.9277C22.0166 27.4072 22.8369 27.9336 23.8418 28.0361V24.4268L23.459 24.3242C21.9072 23.873 20.9365 23.0801 20.9434 21.7402C20.9365 20.2158 22.1738 19.1699 23.8418 18.9922V17.8574H24.6348V18.9717C26.4053 19.0811 27.6494 20.1611 27.6973 21.5898H26.4941C26.3984 20.708 25.6533 20.168 24.6348 20.0723V23.4629L25.0312 23.5723C26.0908 23.8457 27.834 24.4541 27.834 26.3066C27.834 27.8242 26.6855 29.0205 24.6348 29.1641V30.2441H23.8418ZM22.1328 21.6855C22.1396 22.6357 23.1035 23.0391 23.8418 23.2441V20.0859C22.7959 20.2295 22.1396 20.8584 22.1328 21.6855ZM24.6348 28.0361C25.7969 27.9199 26.6309 27.25 26.6309 26.2793C26.6309 25.3154 25.7148 24.9463 24.6758 24.6523L24.6348 24.6387V28.0361Z" fill="#EDF0F3"/>
<path d="M24.0684 60.9668V69.9492H22.9883V66.668H19.8438C19.2832 67.3857 18.3809 67.8164 17.3418 67.8164C15.5234 67.8164 14.1768 66.5586 14.1836 64.7812C14.1768 62.9971 15.5234 61.7393 17.3418 61.7324C18.374 61.7393 19.2627 62.1631 19.8301 62.8672H22.9883V60.9668H24.0684ZM15.209 64.7812C15.209 65.998 16.0977 66.8662 17.3418 66.8594C18.5381 66.8662 19.4473 65.998 19.4473 64.7812C19.4473 63.5713 18.5381 62.6963 17.3418 62.6895C16.0977 62.6963 15.209 63.5713 15.209 64.7812ZM16.2617 72.8477V69.0059H17.3418V71.9453H24.4102V72.8477H16.2617ZM20.3154 63.7559C20.4248 64.0703 20.4863 64.4121 20.4863 64.7812C20.4863 65.1367 20.4248 65.4717 20.3223 65.7793H22.9883V63.7559H20.3154ZM35.7578 61.6094V62.5117C35.7578 63.4551 35.7578 64.5625 35.4365 66.0801H37.2207V66.9688H26.0918V66.0801H34.3564C34.6982 64.5488 34.6982 63.4551 34.6914 62.5117V62.498H27.5V61.6094H35.7578ZM27.459 72.9434V68.6504H35.8125V72.9434H27.459ZM28.5254 72.0684H34.7461V69.498H28.5254V72.0684Z" fill="#494F54"/>
</svg>
