<svg width="52" height="78" viewBox="0 0 52 78" fill="none" xmlns="http://www.w3.org/2000/svg">
<rect x="1" y="2" width="50" height="50" rx="8" fill="#EDF0F3"/>
<path d="M12 23.0769L26.5 16L41 23.0769L26.5 30.1538L12 23.0769Z" stroke="#C6CCD1" stroke-width="3" stroke-linecap="round" stroke-linejoin="round"/>
<path d="M41 23.0771V30.1541" stroke="#C6CCD1" stroke-width="3" stroke-linecap="round" stroke-linejoin="round"/>
<path d="M17.4375 26.6152V35.4614C17.4375 35.4614 18.2614 38.9998 26.5 38.9998C34.7386 38.9998 35.5625 35.4614 35.5625 35.4614V26.6152" stroke="#C6CCD1" stroke-width="3" stroke-linecap="round" stroke-linejoin="round"/>
<path d="M13.1211 70.6738V71.5762H1.99219V70.6738H7.00977V67.8848H8.0625V70.6738H13.1211ZM2.60742 67.4746C4.95215 67.0986 6.98242 65.6836 6.99609 63.7832H3.03125V62.8945H7.00977V61.2129H8.0625V62.8945H12.0547V63.7832H8.08984C8.08984 65.6836 10.1201 67.0986 12.4512 67.4746L12.041 68.3223C10.0996 67.9805 8.31543 66.9961 7.53613 65.4717C6.77051 66.9961 4.98633 67.9805 3.03125 68.3223L2.60742 67.4746ZM25.2207 70.6602V71.5488H14.0918V70.6602H19.0957V68.0352H15.4043V61.8145H16.4844V64.0156H22.8008V61.8145H23.8535V68.0352H20.1484V70.6602H25.2207ZM16.4844 67.1602H22.8008V64.8906H16.4844V67.1602ZM37.2656 66.9688V67.8574H26.1914V66.9688H28.9395V65.2529C27.9688 64.877 27.4219 64.2617 27.4219 63.4414C27.4219 62.0127 29.0625 61.1924 31.7285 61.1855C34.374 61.1924 36.0146 62.0127 36.0215 63.4414C36.0146 64.2549 35.4746 64.8701 34.5176 65.2529V66.9688H37.2656ZM27.5312 70.9336C27.5244 69.5459 29.0898 68.7803 31.7285 68.7871C34.333 68.7803 35.8984 69.5459 35.9121 70.9336C35.8984 72.3213 34.333 73.0801 31.7285 73.0801C29.0898 73.0801 27.5244 72.3213 27.5312 70.9336ZM28.5293 63.4414C28.5225 64.3301 29.7393 64.8428 31.7285 64.8496C33.6973 64.8428 34.9209 64.3301 34.9277 63.4414C34.9209 62.5664 33.6973 62.0332 31.7285 62.0332C29.7393 62.0332 28.5225 62.5664 28.5293 63.4414ZM28.625 70.9336C28.6113 71.7607 29.7803 72.2529 31.7285 72.2461C33.6562 72.2529 34.8252 71.7607 34.832 70.9336C34.8252 70.1064 33.6562 69.6211 31.7285 69.6074C29.7803 69.6211 28.6113 70.1064 28.625 70.9336ZM30.0059 66.9688H33.4512V65.54C32.9385 65.6357 32.3643 65.6836 31.7285 65.6836C31.0928 65.6836 30.5186 65.6357 30.0059 65.5469V66.9688ZM41.5586 61.8965C43.2129 61.9033 44.4092 63.3252 44.5732 65.6016H47.3008V60.9531H48.3672V73.1348H47.3008V66.4902H44.5869C44.4707 68.876 43.2539 70.3662 41.5586 70.3594C39.7607 70.3662 38.5029 68.7256 38.5098 66.1348C38.5029 63.5508 39.7607 61.9033 41.5586 61.8965ZM39.5352 66.1348C39.542 68.1104 40.3623 69.4092 41.5586 69.4023C42.748 69.4092 43.582 68.1104 43.582 66.1348C43.582 64.1592 42.748 62.8604 41.5586 62.8535C40.3623 62.8604 39.542 64.1592 39.5352 66.1348Z" fill="#494F54"/>
</svg>
