<svg width="52" height="78" viewBox="0 0 52 78" fill="none" xmlns="http://www.w3.org/2000/svg">
<rect x="2" y="3" width="48" height="48" rx="7" fill="#E9FFE9" stroke="#50BF50" stroke-width="2"/>
<path d="M18.8571 17C17.2792 17 16 18.2792 16 19.8571V22.7143C16 24.2922 17.2792 25.5714 18.8571 25.5714H21.7143C23.2922 25.5714 24.5714 24.2922 24.5714 22.7143V19.8571C24.5714 18.2792 23.2922 17 21.7143 17H18.8571Z" fill="#50BF50"/>
<path d="M18.8571 28.4286C17.2792 28.4286 16 29.7078 16 31.2857V34.1429C16 35.7208 17.2792 37 18.8571 37H21.7143C23.2922 37 24.5714 35.7208 24.5714 34.1429V31.2857C24.5714 29.7078 23.2922 28.4286 21.7143 28.4286H18.8571Z" fill="#50BF50"/>
<path d="M27.4286 19.8571C27.4286 18.2792 28.7078 17 30.2857 17H33.1429C34.7208 17 36 18.2792 36 19.8571V22.7143C36 24.2922 34.7208 25.5714 33.1429 25.5714H30.2857C28.7078 25.5714 27.4286 24.2922 27.4286 22.7143V19.8571Z" fill="#50BF50"/>
<path d="M27.4286 31.2857C27.4286 29.7078 28.7078 28.4286 30.2857 28.4286H33.1429C34.7208 28.4286 36 29.7078 36 31.2857V34.1429C36 35.7208 34.7208 37 33.1429 37H30.2857C28.7078 37 27.4286 35.7208 27.4286 34.1429V31.2857Z" fill="#50BF50"/>
<path d="M24.0684 60.9668V69.8809H22.9883V65.2188H20.4863V64.3301H22.9883V60.9668H24.0684ZM14.0469 67.4473C15.8379 66.8184 17.1367 65.2119 17.1367 63.4688V62.8398H14.3887V61.9512H20.9375V62.8398H18.2168V63.4688C18.2168 65.041 19.4336 66.5654 21.2109 67.1738L20.6504 68.0352C19.2832 67.5361 18.2236 66.5176 17.6973 65.2598C17.1709 66.668 16.0498 67.7822 14.6074 68.3223L14.0469 67.4473ZM16.2617 72.8477V69.0742H17.3418V71.9453H24.4102V72.8477H16.2617ZM29.6465 64.6992C29.6533 66.6543 30.6445 68.6572 32.2988 69.5391L31.6836 70.3457C30.4736 69.6826 29.5986 68.4248 29.1543 66.9619C28.7236 68.5205 27.8555 69.8877 26.6387 70.6191L25.9961 69.7988C27.6504 68.8418 28.6279 66.709 28.6348 64.6992V64.0977H26.3242V63.209H28.6348V61.4043H29.6602V63.209H31.9297V64.0977H29.6465V64.6992ZM31.0957 66.668V65.752H33.0098V61.2539H34.0215V72.4785H33.0098V66.668H31.0957ZM35.457 73.1074V60.9531H36.4824V73.1074H35.457Z" fill="#50BF50"/>
</svg>
