<svg width="52" height="78" viewBox="0 0 52 78" fill="none" xmlns="http://www.w3.org/2000/svg">
<rect x="1" y="2" width="50" height="50" rx="8" fill="#EDF0F3"/>
<path d="M26 17.3335V39.0002" stroke="#C6CCD1" stroke-width="2" stroke-linecap="round"/>
<path d="M41 17.3335L41 39.0002" stroke="#C6CCD1" stroke-width="2" stroke-linecap="round"/>
<path d="M11 17.3335L11 39.0002" stroke="#C6CCD1" stroke-width="2" stroke-linecap="round"/>
<path d="M41 38.9998C41 38.9998 39.3333 35.6665 33.5 35.6665C27.6667 35.6665 26 38.9998 26 38.9998" stroke="#C6CCD1" stroke-width="2" stroke-linecap="round"/>
<path d="M26 38.9998C26 38.9998 24.3333 35.6665 18.5 35.6665C12.6667 35.6665 11 38.9998 11 38.9998" stroke="#C6CCD1" stroke-width="2" stroke-linecap="round"/>
<path d="M41 17.3333C41 17.3333 39.3333 14 33.5 14C27.6667 14 26 17.3333 26 17.3333" stroke="#C6CCD1" stroke-width="2" stroke-linecap="round"/>
<path d="M26 17.3333C26 17.3333 24.3333 14 18.5 14C12.6667 14 11 17.3333 11 17.3333" stroke="#C6CCD1" stroke-width="2" stroke-linecap="round"/>
<path d="M15 21L21 21" stroke="#C6CCD1" stroke-width="2" stroke-linecap="round"/>
<path d="M15 25L19 25" stroke="#C6CCD1" stroke-width="2" stroke-linecap="round"/>
<path d="M15 29L17 29" stroke="#C6CCD1" stroke-width="2" stroke-linecap="round"/>
<path d="M12.4375 60.9531V73.1074H11.3984V66.791H9.74414V72.4922H8.71875V61.2129H9.74414V65.875H11.3984V60.9531H12.4375ZM1.86914 69.7715C3.61914 68.8076 4.55566 66.7432 4.54883 64.2754V63.3047H2.15625V62.4023H7.84375V63.3047H5.58789V64.2754C5.58789 66.4971 6.51074 68.459 8.24023 69.3477L7.59766 70.1816C6.37402 69.5117 5.52637 68.3154 5.0957 66.832C4.67871 68.5205 3.81738 69.8467 2.53906 70.5918L1.86914 69.7715ZM25.207 68.0215V68.9102H20.1348V73.1074H19.082V68.9102H14.0781V68.0215H25.207ZM15.5137 66.3672V61.6367H23.7578V66.3672H15.5137ZM16.5664 65.5195H22.6914V62.5117H16.5664V65.5195ZM36.582 60.9531V73.1074H35.5566V60.9531H36.582ZM26.041 69.8672C27.7363 68.8555 28.7275 66.6338 28.7207 64.4258V63.2773H26.3828V62.3887H31.9883V63.2773H29.7598V64.4258C29.7598 66.5244 30.71 68.623 32.3848 69.5938L31.7285 70.3867C30.5322 69.6689 29.6846 68.3564 29.2607 66.8115C28.8232 68.4863 27.9414 69.915 26.7246 70.6738L26.041 69.8672ZM31.0586 66.2168V65.3418H33.1094V61.2539H34.1211V72.4785H33.1094V66.2168H31.0586ZM49.4199 70.7285V71.6172H38.291V70.7285H41.3945V67.8301H39.3027V66.9414H41.2031V62.9766H39.2754V62.0879H48.3535V62.9766H46.4258V66.9414H48.3262V67.8301H46.2344V70.7285H49.4199ZM42.2695 66.9414H45.373V62.9766H42.2695V66.9414ZM42.4746 70.7285H45.168V67.8301H42.4746V70.7285Z" fill="#494F54"/>
</svg>
