<svg width="52" height="78" viewBox="0 0 52 78" fill="none" xmlns="http://www.w3.org/2000/svg">
<rect x="1" y="2" width="50" height="50" rx="8" fill="#EDF0F3"/>
<line x1="25.5" y1="18.5" x2="25.5" y2="9.5" stroke="#C6CCD1" stroke-width="3" stroke-linecap="round"/>
<line x1="19.5" y1="18.5" x2="19.5" y2="13.5" stroke="#C6CCD1" stroke-width="3" stroke-linecap="round"/>
<line x1="31.5" y1="18.5" x2="31.5" y2="13.5" stroke="#C6CCD1" stroke-width="3" stroke-linecap="round"/>
<circle cx="26" cy="31" r="14" fill="#C6CCD1" stroke="#EDF0F3" stroke-width="2"/>
<path d="M17.5957 35V27.9297H22.3418V29.1406H19.0605V30.8594H22.0977V32.0703H19.0605V33.7891H22.3516V35H17.5957ZM23.2109 29.1406V27.9297H29.002V29.1406H26.834V35H25.3789V29.1406H23.2109ZM29.9102 35V27.9297H34.5684V29.1406H31.375V30.8594H34.2656V32.0703H31.375V35H29.9102Z" fill="#EDF0F3"/>
<path d="M14.5938 72V62.1016H20.5957V63.1953H15.8242V66.5039H20.2812V67.584H15.8242V70.9062H20.6641V72H14.5938ZM21.9902 63.1953V62.1016H29.4551V63.1953H26.3516V72H25.1074V63.1953H21.9902ZM31.0957 72V62.1016H37.0566V63.1953H32.3262V66.5039H36.6055V67.584H32.3262V72H31.0957Z" fill="#494F54"/>
</svg>
