<svg width="52" height="78" viewBox="0 0 52 78" fill="none" xmlns="http://www.w3.org/2000/svg">
<rect x="1" y="2" width="50" height="50" rx="8" fill="#E9FFE9"/>
<rect x="10" y="14" width="28" height="22" rx="3" fill="#50BF50"/>
<path d="M34.0681 43.4824L34.5304 35.0652L37.8764 35.9618L34.0681 43.4824Z" fill="#50BF50"/>
<path d="M39.0681 43.5176L35.2599 35.997L38.6059 35.1005L39.0681 43.5176Z" fill="#50BF50"/>
<circle cx="36.5" cy="32.5" r="5" fill="#50BF50" stroke="#E9FFE9"/>
<line x1="15.5" y1="18.9375" x2="32.5" y2="18.9375" stroke="#E9FFE9" stroke-linecap="round"/>
<line x1="15.5" y1="21.9375" x2="26.5" y2="21.9375" stroke="#E9FFE9" stroke-linecap="round"/>
<line x1="15.5" y1="24.9375" x2="24.5" y2="24.9375" stroke="#E9FFE9" stroke-linecap="round"/>
<path d="M17.5469 64.6855C17.5537 66.627 18.5449 68.623 20.2129 69.5117L19.584 70.3184C18.374 69.6553 17.499 68.4043 17.0547 66.9414C16.624 68.5 15.749 69.8535 14.5391 70.5645L13.8965 69.7715C15.5371 68.8076 16.5283 66.6953 16.5352 64.6855V64.125H14.1836V63.2363H16.5352V61.4043H17.5605V63.2363H19.8848V64.125H17.5469V64.6855ZM20.7188 72.4922V61.2129H21.7441V65.875H23.3984V60.9531H24.4375V73.1074H23.3984V66.791H21.7441V72.4922H20.7188ZM36.1543 60.9668V70.1543H35.0605V68.4453H32.3809V67.5703H35.0605V60.9668H36.1543ZM26.0098 65.7793C27.5752 65.7725 29.5371 65.7588 31.4648 65.6289C31.7041 64.2891 31.7451 63.2773 31.752 62.5801H27.1035V61.7051H32.8184V62.1836C32.8252 62.8535 32.8252 63.9883 32.5654 65.54C33.0371 65.499 33.502 65.4443 33.9531 65.3828L34.0352 66.1621C32.9004 66.3535 31.7109 66.4697 30.5488 66.5449V69.3477H29.4824V66.5996C28.2861 66.6543 27.1445 66.668 26.1602 66.668L26.0098 65.7793ZM27.8281 72.8477V69.1289H28.9082V71.9453H36.4551V72.8477H27.8281Z" fill="#50BF50"/>
</svg>
