<svg width="52" height="78" viewBox="0 0 52 78" fill="none" xmlns="http://www.w3.org/2000/svg">
<rect x="1" y="2" width="50" height="50" rx="8" fill="#E9FFE9"/>
<path d="M37 18L31.7071 23.2929C31.3166 23.6834 30.6834 23.6834 30.2929 23.2929L28.7071 21.7071C28.3166 21.3166 27.6834 21.3166 27.2929 21.7071L23 26" stroke="#50BF50" stroke-width="3" stroke-linecap="round" stroke-linejoin="round"/>
<path d="M15 19V33.8C15 34.9201 15 35.4802 15.218 35.908C15.4097 36.2843 15.7157 36.5903 16.092 36.782C16.5198 37 17.0799 37 18.2 37H33" stroke="#50BF50" stroke-width="3" stroke-linecap="round"/>
<path d="M8.97852 62.2793V63.168H7.625V69.0195C8.28125 68.9785 8.93066 68.917 9.55273 68.8418L9.60742 69.6348C7.03711 70.0449 4.13184 70.0859 1.97852 70.0996L1.8418 69.1836C2.35449 69.1836 2.90137 69.1768 3.48242 69.1699V63.168H2.14258V62.2793H8.97852ZM4.52148 69.1562C5.19824 69.1426 5.90234 69.1152 6.59961 69.0811V63.168H4.52148V69.1562ZM10.332 73.1074V60.9531H11.3984V65.834H13.4355V66.7363H11.3984V73.1074H10.332ZM17.7148 63.373C17.7217 64.7197 18.6582 66.0801 20.2168 66.668L19.6562 67.4883C18.4873 67.0371 17.6465 66.1689 17.209 65.123C16.7646 66.2783 15.8896 67.3105 14.6934 67.8301L14.1055 66.9961C15.7051 66.2988 16.6826 64.7266 16.6895 63.373V61.7188H17.7148V63.373ZM16.3203 70.9199C16.3066 69.5459 17.8652 68.7393 20.3945 68.7461C22.9102 68.7393 24.4756 69.5459 24.4824 70.9199C24.4756 72.2803 22.9102 73.0801 20.3945 73.0801C17.8652 73.0801 16.3066 72.2803 16.3203 70.9199ZM17.3867 70.9199C17.373 71.7471 18.5283 72.2529 20.3945 72.2461C22.2402 72.2529 23.4023 71.7471 23.416 70.9199C23.4023 70.0791 22.2402 69.5732 20.3945 69.5664C18.5283 69.5732 17.373 70.0791 17.3867 70.9199ZM20.7637 68.0898V61.1992H21.7754V64.2344H23.3887V60.9668H24.4141V68.4727H23.3887V65.123H21.7754V68.0898H20.7637ZM30.252 62.9219C30.252 64.5762 31.5098 66.0938 33.2734 66.6953L32.6855 67.543C31.3457 67.0508 30.2861 66.0459 29.7529 64.7744C29.2334 66.2168 28.1465 67.3311 26.7246 67.8848L26.1504 67.0234C27.9688 66.3467 29.1924 64.7197 29.1992 62.8398V61.582H30.252V62.9219ZM27.7637 70.8652C27.7705 69.4775 29.2949 68.6641 31.7969 68.6641C34.292 68.6641 35.8027 69.4775 35.8027 70.8652C35.8027 72.2803 34.292 73.0801 31.7969 73.0801C29.2949 73.0801 27.7705 72.2803 27.7637 70.8652ZM28.8438 70.8652C28.8301 71.7266 29.9648 72.2256 31.7969 72.2324C33.6357 72.2256 34.7568 71.7266 34.7637 70.8652C34.7568 70.0381 33.6357 69.5254 31.7969 69.5254C29.9648 69.5254 28.8301 70.0381 28.8438 70.8652ZM34.627 68.3496V60.9531H35.6934V64.125H37.5254V65.0273H35.6934V68.3496H34.627ZM49.3652 66.832V67.7207H44.3477V69.1562H48.0117V72.9434H39.6445V69.1562H43.2949V67.7207H38.291V66.832H49.3652ZM39.3301 62.2383V61.3496H48.3125V62.2383H46.4395V64.7949H48.2715V65.6836H39.3711V64.7949H41.2031V62.2383H39.3301ZM40.7109 72.0684H46.959V70.0039H40.7109V72.0684ZM42.2695 64.7949H45.373V62.2383H42.2695V64.7949Z" fill="#50BF50"/>
</svg>
