<svg width="360" height="369" viewBox="0 0 360 369" fill="none" xmlns="http://www.w3.org/2000/svg">
<path d="M0 16C0 7.16344 7.16344 0 16 0H344C352.837 0 360 7.16344 360 16V353C360 361.837 352.837 369 344 369H16C7.16344 369 0 361.837 0 353V16Z" fill="#F6F7F9"/>
<path d="M30 42L24 36L30 30" stroke="#191B1C" stroke-width="1.5" stroke-linecap="round" stroke-linejoin="round"/>
<path d="M44.875 39.7969L48.9375 36.0625C49.3385 35.6771 49.6484 35.3568 49.8672 35.1016C50.0911 34.8464 50.263 34.5938 50.3828 34.3438C50.5026 34.0885 50.5625 33.8177 50.5625 33.5312C50.5625 33.2031 50.4844 32.9167 50.3281 32.6719C50.1771 32.4271 49.9635 32.2396 49.6875 32.1094C49.4167 31.974 49.1094 31.9062 48.7656 31.9062C48.2344 31.9062 47.8099 32.0651 47.4922 32.3828C47.1745 32.6953 47.0156 33.1198 47.0156 33.6562H44.7812C44.776 32.9271 44.9401 32.2891 45.2734 31.7422C45.612 31.1953 46.0859 30.7734 46.6953 30.4766C47.3047 30.1797 48.0052 30.0312 48.7969 30.0312C49.5938 30.0312 50.2969 30.1745 50.9062 30.4609C51.5156 30.7422 51.987 31.1354 52.3203 31.6406C52.6589 32.1458 52.8281 32.724 52.8281 33.375C52.8281 33.8177 52.7422 34.2448 52.5703 34.6562C52.3984 35.0625 52.099 35.5182 51.6719 36.0234C51.25 36.5234 50.651 37.125 49.875 37.8281L48.1562 39.5V39.5625H52.9844V41.5H44.8906L44.875 39.7969ZM59.0469 41.6562C58.1042 41.6562 57.2917 41.4297 56.6094 40.9766C55.9323 40.5182 55.4115 39.8542 55.0469 38.9844C54.6823 38.1146 54.5 37.0677 54.5 35.8438C54.5 34.6198 54.6823 33.5729 55.0469 32.7031C55.4115 31.8333 55.9323 31.1719 56.6094 30.7188C57.2917 30.2604 58.1042 30.0312 59.0469 30.0312C59.9844 30.0312 60.7943 30.2604 61.4766 30.7188C62.1589 31.1719 62.6823 31.8359 63.0469 32.7109C63.4115 33.5807 63.5938 34.625 63.5938 35.8438C63.5938 37.0729 63.4115 38.1224 63.0469 38.9922C62.6823 39.862 62.1589 40.5234 61.4766 40.9766C60.7995 41.4297 59.9896 41.6562 59.0469 41.6562ZM59.0469 39.7188C59.4844 39.7188 59.862 39.5781 60.1797 39.2969C60.5026 39.0156 60.75 38.5911 60.9219 38.0234C61.099 37.4557 61.1875 36.7552 61.1875 35.9219C61.1875 34.625 61 33.6406 60.625 32.9688C60.25 32.2917 59.724 31.9531 59.0469 31.9531C58.3698 31.9531 57.8438 32.2917 57.4688 32.9688C57.0938 33.6406 56.9062 34.625 56.9062 35.9219C56.9062 36.7552 56.9922 37.4557 57.1641 38.0234C57.3411 38.5911 57.5885 39.0156 57.9062 39.2969C58.2292 39.5781 58.6094 39.7188 59.0469 39.7188ZM65.2031 39.7969L69.2656 36.0625C69.6667 35.6771 69.9766 35.3568 70.1953 35.1016C70.4193 34.8464 70.5911 34.5938 70.7109 34.3438C70.8307 34.0885 70.8906 33.8177 70.8906 33.5312C70.8906 33.2031 70.8125 32.9167 70.6562 32.6719C70.5052 32.4271 70.2917 32.2396 70.0156 32.1094C69.7448 31.974 69.4375 31.9062 69.0938 31.9062C68.5625 31.9062 68.138 32.0651 67.8203 32.3828C67.5026 32.6953 67.3438 33.1198 67.3438 33.6562H65.1094C65.1042 32.9271 65.2682 32.2891 65.6016 31.7422C65.9401 31.1953 66.4141 30.7734 67.0234 30.4766C67.6328 30.1797 68.3333 30.0312 69.125 30.0312C69.9219 30.0312 70.625 30.1745 71.2344 30.4609C71.8438 30.7422 72.3151 31.1354 72.6484 31.6406C72.987 32.1458 73.1562 32.724 73.1562 33.375C73.1562 33.8177 73.0703 34.2448 72.8984 34.6562C72.7266 35.0625 72.4271 35.5182 72 36.0234C71.5781 36.5234 70.9792 37.125 70.2031 37.8281L68.4844 39.5V39.5625H73.3125V41.5H65.2188L65.2031 39.7969ZM74.5469 37.6406L79.3281 30.1875H82.2812V37.6094H83.7188V39.5H82.2812V41.5H80.0469V39.5H74.5469V37.6406ZM80.0781 37.6094V32.7656H79.9688L76.9219 37.5156V37.6094H80.0781ZM96.7656 39.1875H94.7812V34.5312H91.25V32.9688H94.7812V31.875H91.25V30.3125H94.7812V28.7344H96.7656V39.1875ZM97.1094 42.6875H87.3125V38.25H89.3125V41.0938H97.1094V42.6875ZM87.5469 35.7031C88.4635 35.6927 89.3359 35.6536 90.1641 35.5859C90.9922 35.5182 91.8333 35.4062 92.6875 35.25L92.8906 36.8594C91.9062 37.0469 90.9297 37.1745 89.9609 37.2422C88.9974 37.3099 87.9167 37.3438 86.7188 37.3438H85.5781V29.625H87.5469V35.7031ZM106.953 41.6562C106.135 41.6562 105.401 41.5156 104.75 41.2344C104.104 40.9479 103.594 40.5521 103.219 40.0469C102.849 39.5365 102.656 38.9583 102.641 38.3125H105.016C105.031 38.5885 105.125 38.8333 105.297 39.0469C105.469 39.2604 105.701 39.4271 105.992 39.5469C106.284 39.6615 106.609 39.7188 106.969 39.7188C107.339 39.7188 107.669 39.6536 107.961 39.5234C108.258 39.388 108.487 39.2031 108.648 38.9688C108.815 38.7344 108.896 38.4688 108.891 38.1719C108.896 37.8646 108.81 37.5911 108.633 37.3516C108.461 37.112 108.214 36.9271 107.891 36.7969C107.568 36.6615 107.188 36.5938 106.75 36.5938H105.703V34.8594H106.75C107.115 34.8594 107.44 34.7969 107.727 34.6719C108.013 34.5469 108.237 34.3698 108.398 34.1406C108.56 33.9115 108.641 33.651 108.641 33.3594C108.641 33.0729 108.57 32.8203 108.43 32.6016C108.294 32.3828 108.102 32.2135 107.852 32.0938C107.602 31.9688 107.312 31.9062 106.984 31.9062C106.651 31.9062 106.344 31.9661 106.062 32.0859C105.786 32.2005 105.562 32.3672 105.391 32.5859C105.224 32.7995 105.135 33.0469 105.125 33.3281H102.875C102.885 32.6875 103.07 32.1172 103.43 31.6172C103.789 31.1172 104.279 30.7292 104.898 30.4531C105.523 30.1719 106.219 30.0312 106.984 30.0312C107.755 30.0312 108.438 30.1719 109.031 30.4531C109.63 30.7292 110.094 31.112 110.422 31.6016C110.75 32.0859 110.911 32.625 110.906 33.2188C110.911 33.6302 110.823 34.0052 110.641 34.3438C110.464 34.6771 110.211 34.9531 109.883 35.1719C109.56 35.3906 109.188 35.5365 108.766 35.6094V35.7031C109.312 35.7708 109.779 35.9219 110.164 36.1562C110.549 36.3906 110.841 36.6953 111.039 37.0703C111.237 37.4401 111.333 37.8594 111.328 38.3281C111.333 38.9635 111.148 39.5365 110.773 40.0469C110.398 40.5521 109.878 40.9479 109.211 41.2344C108.544 41.5156 107.792 41.6562 106.953 41.6562ZM124.562 36.9688H122.562V36.5156H119.984V35.3125H122.562V28.7344H124.562V36.9688ZM113.625 33.7344C116.917 33.7344 119.615 33.6354 121.719 33.4375L121.812 34.6719C120.625 34.8333 119.354 34.9479 118 35.0156V37H116.031V35.0938C115.115 35.1146 114.453 35.125 114.047 35.125C113.734 35.125 113.505 35.1198 113.359 35.1094H112.719L112.516 33.7344H113.625ZM124.562 40.7188H116.562V41.4531H124.891V42.8438H114.609V39.4375H122.578V38.7344H114.547V37.3906H124.562V40.7188ZM117.094 28.9219C117.792 28.9219 118.409 29.013 118.945 29.1953C119.487 29.3724 119.909 29.6224 120.211 29.9453C120.513 30.2682 120.667 30.6406 120.672 31.0625C120.667 31.5 120.513 31.8802 120.211 32.2031C119.914 32.5208 119.495 32.7656 118.953 32.9375C118.417 33.1042 117.797 33.1875 117.094 33.1875C116.37 33.1875 115.734 33.1042 115.188 32.9375C114.646 32.7656 114.227 32.5208 113.93 32.2031C113.633 31.8802 113.484 31.5 113.484 31.0625C113.484 30.6406 113.633 30.2682 113.93 29.9453C114.232 29.6172 114.656 29.3646 115.203 29.1875C115.75 29.0104 116.38 28.9219 117.094 28.9219ZM117.094 30.2344C116.557 30.2292 116.133 30.3021 115.82 30.4531C115.513 30.599 115.365 30.8021 115.375 31.0625C115.37 31.3281 115.518 31.5339 115.82 31.6797C116.128 31.8203 116.552 31.8906 117.094 31.8906C117.625 31.8906 118.044 31.8177 118.352 31.6719C118.659 31.526 118.812 31.3229 118.812 31.0625C118.812 30.8021 118.656 30.599 118.344 30.4531C118.031 30.3021 117.615 30.2292 117.094 30.2344Z" fill="#191B1C"/>
<path d="M140 30L146 36L140 42" stroke="#191B1C" stroke-width="1.5" stroke-linecap="round" stroke-linejoin="round"/>
<path d="M304.5 24C304.5 19.8579 307.858 16.5 312 16.5H336C340.142 16.5 343.5 19.8579 343.5 24V48C343.5 52.1421 340.142 55.5 336 55.5H312C307.858 55.5 304.5 52.1421 304.5 48V24Z" stroke="#50BF50"/>
<path d="M313 46.54H335V24.54H313V46.54Z" fill="#25292C"/>
<mask id="path-7-inside-1_209_600" fill="white">
<path d="M16 72H344V113H16V72Z"/>
</mask>
<path d="M344 112H16V114H344V112Z" fill="#EDF0F3" mask="url(#path-7-inside-1_209_600)"/>
<path d="M49.8604 93.0352H48.1104V92.6387H45.8545V91.5859H48.1104V85.8301H49.8604V93.0352ZM40.29 90.2051C43.1702 90.2051 45.5309 90.1185 47.3721 89.9453L47.4541 91.0254C46.415 91.1667 45.3031 91.2669 44.1182 91.3262V93.0625H42.3955V91.3945C41.5934 91.4128 41.0146 91.4219 40.6592 91.4219C40.3857 91.4219 40.1852 91.4173 40.0576 91.4082H39.4971L39.3193 90.2051H40.29ZM49.8604 96.3164H42.8604V96.959H50.1475V98.1758H41.1514V95.1953H48.124V94.5801H41.0967V93.4043H49.8604V96.3164ZM43.3252 85.9941C43.9359 85.9941 44.4759 86.0739 44.9453 86.2334C45.4193 86.3883 45.7884 86.6071 46.0527 86.8896C46.3171 87.1722 46.4515 87.498 46.4561 87.8672C46.4515 88.25 46.3171 88.5827 46.0527 88.8652C45.793 89.1432 45.4261 89.3574 44.9521 89.5078C44.4827 89.6536 43.9404 89.7266 43.3252 89.7266C42.6917 89.7266 42.1357 89.6536 41.6572 89.5078C41.1833 89.3574 40.8164 89.1432 40.5566 88.8652C40.2969 88.5827 40.167 88.25 40.167 87.8672C40.167 87.498 40.2969 87.1722 40.5566 86.8896C40.821 86.6025 41.1924 86.3815 41.6709 86.2266C42.1494 86.0716 42.7008 85.9941 43.3252 85.9941ZM43.3252 87.1426C42.8558 87.138 42.4844 87.2018 42.2109 87.334C41.9421 87.4616 41.8122 87.6393 41.8213 87.8672C41.8167 88.0996 41.9466 88.2796 42.2109 88.4072C42.4798 88.5303 42.8512 88.5918 43.3252 88.5918C43.79 88.5918 44.1569 88.528 44.4258 88.4004C44.6947 88.2728 44.8291 88.0951 44.8291 87.8672C44.8291 87.6393 44.6924 87.4616 44.4189 87.334C44.1455 87.2018 43.7809 87.138 43.3252 87.1426Z" fill="#191B1C"/>
<path d="M103.272 90.875H104.899V92.3242H103.272V98.2578H101.509V85.8164H103.272V90.875ZM93.1689 94.7441C94.4814 94.7441 95.5068 94.735 96.2451 94.7168V93.6504C95.8031 93.5638 95.418 93.4157 95.0898 93.2061C94.7617 92.9964 94.5088 92.7367 94.3311 92.4268C94.1533 92.1169 94.0667 91.7728 94.0713 91.3945C94.0667 90.9342 94.1921 90.5286 94.4473 90.1777C94.707 89.8223 95.0693 89.5465 95.5342 89.3506C95.999 89.1546 96.5322 89.0566 97.1338 89.0566C97.7217 89.0566 98.2458 89.1546 98.7061 89.3506C99.1709 89.5465 99.5332 89.8223 99.793 90.1777C100.057 90.5286 100.192 90.9342 100.196 91.3945C100.192 91.7728 100.098 92.1191 99.916 92.4336C99.7337 92.7435 99.4762 93.0033 99.1436 93.2129C98.8154 93.4225 98.4326 93.5684 97.9951 93.6504V94.6553C99.1025 94.596 100.069 94.5072 100.894 94.3887L101.003 95.6602C99.8317 95.8789 98.6423 96.0179 97.4346 96.0771C96.2269 96.1364 94.8825 96.166 93.4014 96.166L93.1689 94.7441ZM100.798 88.5645H93.415V87.1973H96.2451V85.8848H97.9951V87.1973H100.798V88.5645ZM97.1338 90.3828C96.7008 90.3828 96.3568 90.474 96.1016 90.6562C95.8464 90.834 95.721 91.0801 95.7256 91.3945C95.721 91.7181 95.8464 91.9688 96.1016 92.1465C96.3568 92.3197 96.7008 92.4062 97.1338 92.4062C97.5531 92.4062 97.888 92.3197 98.1387 92.1465C98.3893 91.9688 98.5146 91.7181 98.5146 91.3945C98.5146 91.0801 98.3893 90.834 98.1387 90.6562C97.888 90.474 97.5531 90.3828 97.1338 90.3828Z" fill="#191B1C"/>
<path d="M153.923 86.7871C153.923 87.2884 154.091 87.7829 154.429 88.2705C154.766 88.7536 155.263 89.1729 155.919 89.5283C156.575 89.8838 157.359 90.1185 158.271 90.2324L157.587 91.6406C156.521 91.4857 155.593 91.1758 154.805 90.7109C154.021 90.2415 153.419 89.6628 153 88.9746C152.585 89.6628 151.988 90.2415 151.209 90.7109C150.43 91.1758 149.511 91.4857 148.454 91.6406L147.757 90.2324C148.659 90.1185 149.438 89.8838 150.095 89.5283C150.751 89.1729 151.248 88.7536 151.585 88.2705C151.922 87.7829 152.091 87.2884 152.091 86.7871V86.1855H153.923V86.7871ZM158.667 94.0059H153.827V98.2578H152.104V94.0059H147.319V92.584H158.667V94.0059Z" fill="#191B1C"/>
<path d="M211.231 90.6836H207.854V91.873H212.667V93.2812H201.319V91.873H206.104V90.6836H202.728V86.3086H211.231V90.6836ZM204.437 89.3164H209.522V87.6621H204.437V89.3164ZM211.286 98.2578H209.55V95.5645H202.577V94.1973H211.286V98.2578Z" fill="#191B1C"/>
<path d="M265.354 87.375C265.354 88.0404 265.339 88.6283 265.307 89.1387C265.275 89.6491 265.193 90.2188 265.061 90.8477H266.708V92.2559H255.319V90.8477H263.304C263.427 90.2871 263.509 89.7699 263.55 89.2959C263.591 88.8174 263.614 88.3092 263.618 87.7715H256.714V86.377H265.354V87.375ZM265.313 98.1211H256.673V93.5684H265.313V98.1211ZM258.382 96.7266H263.577V94.9355H258.382V96.7266Z" fill="#191B1C"/>
<path d="M319.464 93.3633H315.882V95.4688H320.708V96.8633H309.319V95.4688H314.118V93.3633H310.659V86.6777H319.368V88.0723H312.437V89.3164H319.081V90.6836H312.437V91.9824H319.464V93.3633Z" fill="#191B1C"/>
<path d="M37.5146 131.098L40.8916 127.543C41.3382 127.074 41.6777 126.695 41.9102 126.408C42.1471 126.117 42.3249 125.836 42.4434 125.567C42.5664 125.294 42.6279 125.009 42.6279 124.713C42.6279 124.385 42.5413 124.093 42.3682 123.838C42.195 123.583 41.958 123.384 41.6572 123.243C41.361 123.102 41.0283 123.031 40.6592 123.031C40.2718 123.031 39.9323 123.109 39.6406 123.264C39.349 123.419 39.1234 123.637 38.9639 123.92C38.8089 124.202 38.7314 124.526 38.7314 124.891H37.5693C37.5648 124.316 37.6969 123.808 37.9658 123.366C38.2393 122.924 38.6152 122.58 39.0938 122.334C39.5723 122.088 40.1077 121.965 40.7002 121.965C41.2881 121.965 41.8145 122.086 42.2793 122.327C42.7487 122.569 43.1156 122.899 43.3799 123.318C43.6442 123.738 43.7764 124.202 43.7764 124.713C43.7764 125.091 43.708 125.453 43.5713 125.8C43.4346 126.142 43.2044 126.522 42.8809 126.941C42.5618 127.356 42.1038 127.871 41.5068 128.486L39.2373 130.824V130.906H43.9541V132H37.5283L37.5146 131.098ZM49.0127 121.965C49.6462 121.965 50.234 122.111 50.7764 122.402C51.3187 122.689 51.763 123.182 52.1094 123.879C52.4603 124.576 52.6357 125.501 52.6357 126.654C52.6357 127.812 52.4831 128.803 52.1777 129.628C51.877 130.448 51.444 131.073 50.8789 131.501C50.3184 131.925 49.6507 132.137 48.876 132.137C48.3063 132.137 47.7936 132.027 47.3379 131.809C46.8822 131.585 46.5085 131.275 46.2168 130.879C45.9297 130.482 45.7451 130.022 45.6631 129.498H46.8799C46.9938 129.963 47.2217 130.337 47.5635 130.619C47.9053 130.902 48.3428 131.043 48.876 131.043C49.4137 131.043 49.8763 130.895 50.2637 130.599C50.6556 130.298 50.9564 129.863 51.166 129.293C51.3757 128.723 51.4827 128.04 51.4873 127.242H51.3506C51.0589 127.657 50.6943 127.98 50.2568 128.213C49.8193 128.441 49.3408 128.555 48.8213 128.555C48.2334 128.555 47.6911 128.416 47.1943 128.138C46.6976 127.855 46.3034 127.465 46.0117 126.969C45.7246 126.472 45.5811 125.911 45.5811 125.287C45.5811 124.676 45.7223 124.118 46.0049 123.612C46.292 123.106 46.6953 122.705 47.2148 122.409C47.7344 122.113 48.3337 121.965 49.0127 121.965ZM49.04 123.045C48.6208 123.045 48.238 123.145 47.8916 123.346C47.5498 123.542 47.2786 123.808 47.0781 124.146C46.8822 124.483 46.7842 124.85 46.7842 125.246C46.7842 125.661 46.8776 126.039 47.0645 126.381C47.2513 126.718 47.5133 126.985 47.8506 127.181C48.1878 127.377 48.5706 127.475 48.999 127.475C49.4183 127.475 49.8034 127.372 50.1543 127.167C50.5052 126.957 50.7832 126.682 50.9883 126.34C51.1934 125.993 51.2959 125.629 51.2959 125.246C51.2959 124.868 51.1979 124.51 51.002 124.173C50.806 123.831 50.5348 123.558 50.1885 123.353C49.8467 123.147 49.4639 123.045 49.04 123.045Z" fill="#A6ABAF"/>
<path d="M94.8574 132.137C94.2057 132.137 93.6224 132.027 93.1074 131.809C92.597 131.59 92.1914 131.282 91.8906 130.886C91.5944 130.489 91.4349 130.031 91.4121 129.512H92.6562C92.679 129.817 92.7884 130.086 92.9844 130.318C93.1849 130.551 93.4469 130.731 93.7705 130.858C94.0941 130.981 94.4518 131.043 94.8438 131.043C95.2721 131.043 95.6572 130.97 95.999 130.824C96.3454 130.674 96.6143 130.469 96.8057 130.209C97.0016 129.945 97.0996 129.644 97.0996 129.307C97.0996 128.942 97.0039 128.621 96.8125 128.343C96.6257 128.065 96.3522 127.848 95.9922 127.693C95.6322 127.538 95.1992 127.461 94.6934 127.461H93.8867V126.381H94.6934C95.0898 126.381 95.443 126.31 95.7529 126.169C96.0628 126.028 96.3021 125.829 96.4707 125.574C96.6439 125.319 96.7305 125.023 96.7305 124.686C96.7305 124.362 96.653 124.075 96.498 123.824C96.3477 123.574 96.1335 123.38 95.8555 123.243C95.5775 123.102 95.2539 123.031 94.8848 123.031C94.5293 123.031 94.1966 123.095 93.8867 123.223C93.5768 123.35 93.3239 123.533 93.1279 123.77C92.932 124.002 92.8249 124.275 92.8066 124.59H91.6172C91.64 124.079 91.7995 123.626 92.0957 123.229C92.3919 122.828 92.7861 122.519 93.2783 122.3C93.7705 122.076 94.3105 121.965 94.8984 121.965C95.5091 121.965 96.0423 122.086 96.498 122.327C96.9583 122.564 97.3115 122.885 97.5576 123.291C97.8037 123.697 97.9245 124.139 97.9199 124.617C97.9245 125.173 97.7764 125.649 97.4756 126.046C97.1748 126.442 96.7624 126.714 96.2383 126.859V126.928C96.6621 126.996 97.029 127.14 97.3389 127.358C97.6533 127.573 97.8926 127.848 98.0566 128.186C98.2253 128.518 98.3073 128.892 98.3027 129.307C98.3073 129.84 98.1592 130.323 97.8584 130.756C97.5576 131.184 97.1429 131.521 96.6143 131.768C96.0902 132.014 95.5046 132.137 94.8574 132.137ZM103.32 132.137C102.591 132.137 101.967 131.938 101.447 131.542C100.932 131.146 100.538 130.567 100.265 129.806C99.9958 129.045 99.8613 128.126 99.8613 127.051C99.8613 125.989 99.998 125.077 100.271 124.316C100.545 123.551 100.941 122.967 101.461 122.566C101.98 122.165 102.6 121.965 103.32 121.965C104.04 121.965 104.66 122.165 105.18 122.566C105.699 122.967 106.096 123.551 106.369 124.316C106.643 125.077 106.779 125.989 106.779 127.051C106.779 128.126 106.643 129.045 106.369 129.806C106.1 130.567 105.706 131.146 105.187 131.542C104.667 131.938 104.045 132.137 103.32 132.137ZM103.32 131.043C103.794 131.043 104.2 130.888 104.537 130.578C104.874 130.268 105.132 129.815 105.31 129.218C105.487 128.621 105.576 127.898 105.576 127.051C105.576 126.203 105.487 125.479 105.31 124.877C105.132 124.275 104.874 123.817 104.537 123.503C104.2 123.188 103.794 123.031 103.32 123.031C102.846 123.031 102.438 123.188 102.097 123.503C101.759 123.817 101.5 124.275 101.317 124.877C101.14 125.479 101.051 126.203 101.051 127.051C101.051 127.898 101.14 128.621 101.317 129.218C101.495 129.815 101.753 130.268 102.09 130.578C102.432 130.888 102.842 131.043 103.32 131.043Z" fill="#A6ABAF"/>
<path d="M149.958 132.137C149.306 132.137 148.723 132.027 148.208 131.809C147.698 131.59 147.292 131.282 146.991 130.886C146.695 130.489 146.535 130.031 146.513 129.512H147.757C147.78 129.817 147.889 130.086 148.085 130.318C148.285 130.551 148.548 130.731 148.871 130.858C149.195 130.981 149.552 131.043 149.944 131.043C150.373 131.043 150.758 130.97 151.1 130.824C151.446 130.674 151.715 130.469 151.906 130.209C152.102 129.945 152.2 129.644 152.2 129.307C152.2 128.942 152.104 128.621 151.913 128.343C151.726 128.065 151.453 127.848 151.093 127.693C150.733 127.538 150.3 127.461 149.794 127.461H148.987V126.381H149.794C150.19 126.381 150.544 126.31 150.854 126.169C151.163 126.028 151.403 125.829 151.571 125.574C151.744 125.319 151.831 125.023 151.831 124.686C151.831 124.362 151.754 124.075 151.599 123.824C151.448 123.574 151.234 123.38 150.956 123.243C150.678 123.102 150.354 123.031 149.985 123.031C149.63 123.031 149.297 123.095 148.987 123.223C148.677 123.35 148.424 123.533 148.229 123.77C148.033 124.002 147.925 124.275 147.907 124.59H146.718C146.741 124.079 146.9 123.626 147.196 123.229C147.493 122.828 147.887 122.519 148.379 122.3C148.871 122.076 149.411 121.965 149.999 121.965C150.61 121.965 151.143 122.086 151.599 122.327C152.059 122.564 152.412 122.885 152.658 123.291C152.904 123.697 153.025 124.139 153.021 124.617C153.025 125.173 152.877 125.649 152.576 126.046C152.275 126.442 151.863 126.714 151.339 126.859V126.928C151.763 126.996 152.13 127.14 152.439 127.358C152.754 127.573 152.993 127.848 153.157 128.186C153.326 128.518 153.408 128.892 153.403 129.307C153.408 129.84 153.26 130.323 152.959 130.756C152.658 131.184 152.243 131.521 151.715 131.768C151.191 132.014 150.605 132.137 149.958 132.137ZM158.681 132H157.437V123.387H157.382L154.976 124.986V123.742L157.437 122.102H158.681V132Z" fill="#A6ABAF"/>
<path d="M208.36 132H207.116V123.387H207.062L204.655 124.986V123.742L207.116 122.102H208.36V132Z" fill="#191B1C"/>
<path d="M257.808 131.098L261.185 127.543C261.631 127.074 261.971 126.695 262.203 126.408C262.44 126.117 262.618 125.836 262.736 125.567C262.859 125.294 262.921 125.009 262.921 124.713C262.921 124.385 262.834 124.093 262.661 123.838C262.488 123.583 262.251 123.384 261.95 123.243C261.654 123.102 261.321 123.031 260.952 123.031C260.565 123.031 260.225 123.109 259.934 123.264C259.642 123.419 259.416 123.637 259.257 123.92C259.102 124.202 259.024 124.526 259.024 124.891H257.862C257.858 124.316 257.99 123.808 258.259 123.366C258.532 122.924 258.908 122.58 259.387 122.334C259.865 122.088 260.401 121.965 260.993 121.965C261.581 121.965 262.107 122.086 262.572 122.327C263.042 122.569 263.409 122.899 263.673 123.318C263.937 123.738 264.069 124.202 264.069 124.713C264.069 125.091 264.001 125.453 263.864 125.8C263.728 126.142 263.497 126.522 263.174 126.941C262.855 127.356 262.397 127.871 261.8 128.486L259.53 130.824V130.906H264.247V132H257.821L257.808 131.098Z" fill="#191B1C"/>
<path d="M250 158.54H272V136.54H250V158.54Z" fill="#25292C"/>
<path d="M311.808 131.098L315.185 127.543C315.631 127.074 315.971 126.695 316.203 126.408C316.44 126.117 316.618 125.836 316.736 125.567C316.859 125.294 316.921 125.009 316.921 124.713C316.921 124.385 316.834 124.093 316.661 123.838C316.488 123.583 316.251 123.384 315.95 123.243C315.654 123.102 315.321 123.031 314.952 123.031C314.565 123.031 314.225 123.109 313.934 123.264C313.642 123.419 313.416 123.637 313.257 123.92C313.102 124.202 313.024 124.526 313.024 124.891H311.862C311.858 124.316 311.99 123.808 312.259 123.366C312.532 122.924 312.908 122.58 313.387 122.334C313.865 122.088 314.401 121.965 314.993 121.965C315.581 121.965 316.107 122.086 316.572 122.327C317.042 122.569 317.409 122.899 317.673 123.318C317.937 123.738 318.069 124.202 318.069 124.713C318.069 125.091 318.001 125.453 317.864 125.8C317.728 126.142 317.497 126.522 317.174 126.941C316.855 127.356 316.397 127.871 315.8 128.486L313.53 130.824V130.906H318.247V132H311.821L311.808 131.098Z" fill="#191B1C"/>
<path d="M304 158.54H326V136.54H304V158.54Z" fill="#25292C"/>
<path d="M44.9795 180.137C44.3916 180.137 43.8561 180.025 43.373 179.802C42.8945 179.574 42.5117 179.262 42.2246 178.865C41.9421 178.464 41.7894 178.013 41.7666 177.512H42.9561C42.988 177.803 43.0973 178.068 43.2842 178.305C43.471 178.537 43.7126 178.722 44.0088 178.858C44.305 178.991 44.6286 179.057 44.9795 179.057C45.3988 179.057 45.777 178.961 46.1143 178.77C46.4515 178.578 46.7158 178.316 46.9072 177.983C47.0986 177.651 47.1943 177.279 47.1943 176.869C47.1943 176.445 47.0941 176.065 46.8936 175.728C46.6976 175.386 46.4242 175.119 46.0732 174.928C45.7269 174.732 45.335 174.632 44.8975 174.627C44.0179 174.613 43.4027 174.91 43.0518 175.516H41.8623L42.5596 170.102H47.9189V171.195H43.585L43.2158 174.094H43.3115C43.5348 173.921 43.806 173.782 44.125 173.677C44.444 173.572 44.7744 173.52 45.1162 173.52C45.736 173.52 46.2943 173.663 46.791 173.95C47.2923 174.233 47.6842 174.627 47.9668 175.133C48.2539 175.639 48.3975 176.208 48.3975 176.842C48.3975 177.471 48.2493 178.036 47.9531 178.537C47.6569 179.038 47.249 179.43 46.7295 179.713C46.21 179.995 45.6266 180.137 44.9795 180.137Z" fill="#191B1C"/>
<path d="M34 206.54H56V184.54H34V206.54Z" fill="#25292C"/>
<path d="M99.1094 180.137C98.4714 180.137 97.8789 179.993 97.332 179.706C96.7897 179.414 96.3431 178.92 95.9922 178.223C95.6458 177.521 95.4727 176.591 95.4727 175.434C95.4727 174.281 95.623 173.294 95.9238 172.474C96.2292 171.653 96.6621 171.031 97.2227 170.607C97.7878 170.179 98.4577 169.965 99.2324 169.965C99.8021 169.965 100.312 170.074 100.764 170.293C101.219 170.512 101.591 170.819 101.878 171.216C102.17 171.612 102.359 172.07 102.445 172.59H101.229C101.105 172.13 100.873 171.76 100.531 171.482C100.194 171.2 99.7611 171.059 99.2324 171.059C98.6947 171.059 98.2298 171.209 97.8379 171.51C97.4505 171.806 97.152 172.237 96.9424 172.802C96.7373 173.367 96.6348 174.044 96.6348 174.832H96.7578C97.0495 174.417 97.4141 174.096 97.8516 173.868C98.2891 173.636 98.7721 173.52 99.3008 173.52C99.8841 173.52 100.422 173.661 100.914 173.943C101.411 174.226 101.803 174.618 102.09 175.119C102.382 175.616 102.527 176.176 102.527 176.801C102.527 177.416 102.384 177.979 102.097 178.489C101.814 178.995 101.413 179.396 100.894 179.692C100.374 179.989 99.7793 180.137 99.1094 180.137ZM99.082 179.057C99.5013 179.057 99.8818 178.956 100.224 178.756C100.565 178.555 100.834 178.284 101.03 177.942C101.231 177.596 101.333 177.22 101.338 176.814C101.333 176.409 101.235 176.037 101.044 175.7C100.853 175.363 100.588 175.096 100.251 174.9C99.9137 174.7 99.5332 174.6 99.1094 174.6C98.6855 174.6 98.2982 174.702 97.9473 174.907C97.5964 175.112 97.3184 175.388 97.1133 175.734C96.9082 176.076 96.8034 176.441 96.7988 176.828C96.7988 177.215 96.8968 177.58 97.0928 177.922C97.2933 178.264 97.5667 178.539 97.9131 178.749C98.264 178.954 98.6536 179.057 99.082 179.057Z" fill="#191B1C"/>
<path d="M154.921 171.264V171.195H149.685V170.102H156.192V171.25L151.667 180H150.382L154.921 171.264Z" fill="#191B1C"/>
<path d="M206.993 180.137C206.31 180.137 205.699 180.021 205.161 179.788C204.628 179.551 204.213 179.223 203.917 178.804C203.621 178.384 203.475 177.908 203.479 177.375C203.475 176.956 203.559 176.566 203.732 176.206C203.91 175.841 204.154 175.541 204.464 175.304C204.774 175.067 205.116 174.919 205.489 174.859V174.805C205.166 174.727 204.881 174.584 204.635 174.374C204.389 174.16 204.197 173.898 204.061 173.588C203.928 173.278 203.862 172.945 203.862 172.59C203.862 172.093 203.997 171.644 204.266 171.243C204.539 170.842 204.913 170.53 205.387 170.307C205.865 170.079 206.401 169.965 206.993 169.965C207.586 169.965 208.119 170.079 208.593 170.307C209.071 170.53 209.447 170.842 209.721 171.243C209.994 171.64 210.133 172.089 210.138 172.59C210.133 172.945 210.06 173.278 209.919 173.588C209.782 173.898 209.591 174.16 209.345 174.374C209.099 174.584 208.816 174.727 208.497 174.805V174.859C208.866 174.919 209.203 175.067 209.509 175.304C209.819 175.541 210.062 175.841 210.24 176.206C210.423 176.566 210.516 176.956 210.521 177.375C210.516 177.908 210.363 178.384 210.062 178.804C209.762 179.223 209.345 179.551 208.812 179.788C208.278 180.021 207.672 180.137 206.993 180.137ZM206.993 179.057C207.458 179.057 207.864 178.984 208.21 178.838C208.556 178.692 208.823 178.487 209.01 178.223C209.197 177.958 209.29 177.653 209.29 177.307C209.29 176.947 209.19 176.623 208.989 176.336C208.793 176.044 208.52 175.816 208.169 175.652C207.823 175.488 207.431 175.406 206.993 175.406C206.556 175.406 206.161 175.488 205.811 175.652C205.46 175.816 205.186 176.044 204.99 176.336C204.794 176.623 204.701 176.947 204.71 177.307C204.701 177.653 204.787 177.958 204.97 178.223C205.157 178.487 205.423 178.692 205.77 178.838C206.116 178.984 206.524 179.057 206.993 179.057ZM206.993 174.367C207.362 174.367 207.695 174.297 207.991 174.155C208.287 174.014 208.518 173.816 208.682 173.561C208.85 173.305 208.935 173.014 208.935 172.686C208.935 172.362 208.853 172.075 208.688 171.824C208.529 171.574 208.301 171.38 208.005 171.243C207.713 171.102 207.376 171.031 206.993 171.031C206.606 171.031 206.264 171.102 205.968 171.243C205.676 171.38 205.451 171.574 205.291 171.824C205.132 172.075 205.052 172.362 205.052 172.686C205.052 173.014 205.134 173.305 205.298 173.561C205.466 173.816 205.697 174.014 205.988 174.155C206.285 174.297 206.619 174.367 206.993 174.367Z" fill="#191B1C"/>
<path d="M196 206.54H218V184.54H196V206.54Z" fill="#25292C"/>
<path d="M260.904 169.965C261.538 169.965 262.126 170.111 262.668 170.402C263.21 170.689 263.655 171.182 264.001 171.879C264.352 172.576 264.527 173.501 264.527 174.654C264.527 175.812 264.375 176.803 264.069 177.628C263.769 178.448 263.336 179.073 262.771 179.501C262.21 179.925 261.542 180.137 260.768 180.137C260.198 180.137 259.685 180.027 259.229 179.809C258.774 179.585 258.4 179.275 258.108 178.879C257.821 178.482 257.637 178.022 257.555 177.498H258.771C258.885 177.963 259.113 178.337 259.455 178.619C259.797 178.902 260.234 179.043 260.768 179.043C261.305 179.043 261.768 178.895 262.155 178.599C262.547 178.298 262.848 177.863 263.058 177.293C263.267 176.723 263.374 176.04 263.379 175.242H263.242C262.951 175.657 262.586 175.98 262.148 176.213C261.711 176.441 261.232 176.555 260.713 176.555C260.125 176.555 259.583 176.416 259.086 176.138C258.589 175.855 258.195 175.465 257.903 174.969C257.616 174.472 257.473 173.911 257.473 173.287C257.473 172.676 257.614 172.118 257.896 171.612C258.184 171.106 258.587 170.705 259.106 170.409C259.626 170.113 260.225 169.965 260.904 169.965ZM260.932 171.045C260.512 171.045 260.13 171.145 259.783 171.346C259.441 171.542 259.17 171.808 258.97 172.146C258.774 172.483 258.676 172.85 258.676 173.246C258.676 173.661 258.769 174.039 258.956 174.381C259.143 174.718 259.405 174.985 259.742 175.181C260.079 175.377 260.462 175.475 260.891 175.475C261.31 175.475 261.695 175.372 262.046 175.167C262.397 174.957 262.675 174.682 262.88 174.34C263.085 173.993 263.188 173.629 263.188 173.246C263.188 172.868 263.09 172.51 262.894 172.173C262.698 171.831 262.426 171.558 262.08 171.353C261.738 171.147 261.355 171.045 260.932 171.045Z" fill="#191B1C"/>
<path d="M250 206.54H272V184.54H250V206.54Z" fill="#25292C"/>
<path d="M314.904 169.965C315.538 169.965 316.126 170.111 316.668 170.402C317.21 170.689 317.655 171.182 318.001 171.879C318.352 172.576 318.527 173.501 318.527 174.654C318.527 175.812 318.375 176.803 318.069 177.628C317.769 178.448 317.336 179.073 316.771 179.501C316.21 179.925 315.542 180.137 314.768 180.137C314.198 180.137 313.685 180.027 313.229 179.809C312.774 179.585 312.4 179.275 312.108 178.879C311.821 178.482 311.637 178.022 311.555 177.498H312.771C312.885 177.963 313.113 178.337 313.455 178.619C313.797 178.902 314.234 179.043 314.768 179.043C315.305 179.043 315.768 178.895 316.155 178.599C316.547 178.298 316.848 177.863 317.058 177.293C317.267 176.723 317.374 176.04 317.379 175.242H317.242C316.951 175.657 316.586 175.98 316.148 176.213C315.711 176.441 315.232 176.555 314.713 176.555C314.125 176.555 313.583 176.416 313.086 176.138C312.589 175.855 312.195 175.465 311.903 174.969C311.616 174.472 311.473 173.911 311.473 173.287C311.473 172.676 311.614 172.118 311.896 171.612C312.184 171.106 312.587 170.705 313.106 170.409C313.626 170.113 314.225 169.965 314.904 169.965ZM314.932 171.045C314.512 171.045 314.13 171.145 313.783 171.346C313.441 171.542 313.17 171.808 312.97 172.146C312.774 172.483 312.676 172.85 312.676 173.246C312.676 173.661 312.769 174.039 312.956 174.381C313.143 174.718 313.405 174.985 313.742 175.181C314.079 175.377 314.462 175.475 314.891 175.475C315.31 175.475 315.695 175.372 316.046 175.167C316.397 174.957 316.675 174.682 316.88 174.34C317.085 173.993 317.188 173.629 317.188 173.246C317.188 172.868 317.09 172.51 316.894 172.173C316.698 171.831 316.426 171.558 316.08 171.353C315.738 171.147 315.355 171.045 314.932 171.045Z" fill="#191B1C"/>
<path d="M304 206.54H326V184.54H304V206.54Z" fill="#25292C"/>
<path d="M42.252 228H41.0078V219.387H40.9531L38.5469 220.986V219.742L41.0078 218.102H42.252V228ZM44.877 227.098L48.2539 223.543C48.7005 223.074 49.04 222.695 49.2725 222.408C49.5094 222.117 49.6872 221.836 49.8057 221.567C49.9287 221.294 49.9902 221.009 49.9902 220.713C49.9902 220.385 49.9036 220.093 49.7305 219.838C49.5573 219.583 49.3203 219.384 49.0195 219.243C48.7233 219.102 48.3906 219.031 48.0215 219.031C47.6341 219.031 47.2946 219.109 47.0029 219.264C46.7113 219.419 46.4857 219.637 46.3262 219.92C46.1712 220.202 46.0938 220.526 46.0938 220.891H44.9316C44.9271 220.316 45.0592 219.808 45.3281 219.366C45.6016 218.924 45.9775 218.58 46.4561 218.334C46.9346 218.088 47.4701 217.965 48.0625 217.965C48.6504 217.965 49.1768 218.086 49.6416 218.327C50.111 218.569 50.4779 218.899 50.7422 219.318C51.0065 219.738 51.1387 220.202 51.1387 220.713C51.1387 221.091 51.0703 221.453 50.9336 221.8C50.7969 222.142 50.5667 222.522 50.2432 222.941C49.9242 223.356 49.4661 223.871 48.8691 224.486L46.5996 226.824V226.906H51.3164V228H44.8906L44.877 227.098Z" fill="#191B1C"/>
<path d="M96.04 228H94.7959V219.387H94.7412L92.335 220.986V219.742L94.7959 218.102H96.04V228ZM102.097 228.137C101.445 228.137 100.862 228.027 100.347 227.809C99.8363 227.59 99.4307 227.282 99.1299 226.886C98.8337 226.489 98.6742 226.031 98.6514 225.512H99.8955C99.9183 225.817 100.028 226.086 100.224 226.318C100.424 226.551 100.686 226.731 101.01 226.858C101.333 226.981 101.691 227.043 102.083 227.043C102.511 227.043 102.896 226.97 103.238 226.824C103.585 226.674 103.854 226.469 104.045 226.209C104.241 225.945 104.339 225.644 104.339 225.307C104.339 224.942 104.243 224.621 104.052 224.343C103.865 224.065 103.591 223.848 103.231 223.693C102.871 223.538 102.438 223.461 101.933 223.461H101.126V222.381H101.933C102.329 222.381 102.682 222.31 102.992 222.169C103.302 222.028 103.541 221.829 103.71 221.574C103.883 221.319 103.97 221.023 103.97 220.686C103.97 220.362 103.892 220.075 103.737 219.824C103.587 219.574 103.373 219.38 103.095 219.243C102.817 219.102 102.493 219.031 102.124 219.031C101.769 219.031 101.436 219.095 101.126 219.223C100.816 219.35 100.563 219.533 100.367 219.77C100.171 220.002 100.064 220.275 100.046 220.59H98.8564C98.8792 220.079 99.0387 219.626 99.335 219.229C99.6312 218.828 100.025 218.519 100.518 218.3C101.01 218.076 101.55 217.965 102.138 217.965C102.748 217.965 103.282 218.086 103.737 218.327C104.198 218.564 104.551 218.885 104.797 219.291C105.043 219.697 105.164 220.139 105.159 220.617C105.164 221.173 105.016 221.649 104.715 222.046C104.414 222.442 104.002 222.714 103.478 222.859V222.928C103.901 222.996 104.268 223.14 104.578 223.358C104.893 223.573 105.132 223.848 105.296 224.186C105.465 224.518 105.547 224.892 105.542 225.307C105.547 225.84 105.398 226.323 105.098 226.756C104.797 227.184 104.382 227.521 103.854 227.768C103.329 228.014 102.744 228.137 102.097 228.137Z" fill="#191B1C"/>
<path d="M149.992 228H148.748V219.387H148.693L146.287 220.986V219.742L148.748 218.102H149.992V228ZM152.385 224.965L156.842 218.102H158.359V224.896H159.74V225.977H158.359V228H157.184V225.977H152.385V224.965ZM157.184 224.896V219.66H157.061L153.711 224.814V224.896H157.184Z" fill="#191B1C"/>
<path d="M204.184 228H202.939V219.387H202.885L200.479 220.986V219.742L202.939 218.102H204.184V228ZM210.049 228.137C209.461 228.137 208.925 228.025 208.442 227.802C207.964 227.574 207.581 227.262 207.294 226.865C207.011 226.464 206.859 226.013 206.836 225.512H208.025C208.057 225.803 208.167 226.068 208.354 226.305C208.54 226.537 208.782 226.722 209.078 226.858C209.374 226.991 209.698 227.057 210.049 227.057C210.468 227.057 210.846 226.961 211.184 226.77C211.521 226.578 211.785 226.316 211.977 225.983C212.168 225.651 212.264 225.279 212.264 224.869C212.264 224.445 212.163 224.065 211.963 223.728C211.767 223.386 211.493 223.119 211.143 222.928C210.796 222.732 210.404 222.632 209.967 222.627C209.087 222.613 208.472 222.91 208.121 223.516H206.932L207.629 218.102H212.988V219.195H208.654L208.285 222.094H208.381C208.604 221.921 208.875 221.782 209.194 221.677C209.513 221.572 209.844 221.52 210.186 221.52C210.805 221.52 211.364 221.663 211.86 221.95C212.362 222.233 212.754 222.627 213.036 223.133C213.323 223.639 213.467 224.208 213.467 224.842C213.467 225.471 213.319 226.036 213.022 226.537C212.726 227.038 212.318 227.43 211.799 227.713C211.279 227.995 210.696 228.137 210.049 228.137Z" fill="#191B1C"/>
<path d="M258.067 228H256.823V219.387H256.769L254.362 220.986V219.742L256.823 218.102H258.067V228ZM264.179 228.137C263.541 228.137 262.948 227.993 262.401 227.706C261.859 227.414 261.412 226.92 261.062 226.223C260.715 225.521 260.542 224.591 260.542 223.434C260.542 222.281 260.692 221.294 260.993 220.474C261.299 219.653 261.731 219.031 262.292 218.607C262.857 218.179 263.527 217.965 264.302 217.965C264.871 217.965 265.382 218.074 265.833 218.293C266.289 218.512 266.66 218.819 266.947 219.216C267.239 219.612 267.428 220.07 267.515 220.59H266.298C266.175 220.13 265.942 219.76 265.601 219.482C265.263 219.2 264.83 219.059 264.302 219.059C263.764 219.059 263.299 219.209 262.907 219.51C262.52 219.806 262.221 220.237 262.012 220.802C261.807 221.367 261.704 222.044 261.704 222.832H261.827C262.119 222.417 262.483 222.096 262.921 221.868C263.358 221.636 263.841 221.52 264.37 221.52C264.953 221.52 265.491 221.661 265.983 221.943C266.48 222.226 266.872 222.618 267.159 223.119C267.451 223.616 267.597 224.176 267.597 224.801C267.597 225.416 267.453 225.979 267.166 226.489C266.883 226.995 266.482 227.396 265.963 227.692C265.443 227.989 264.849 228.137 264.179 228.137ZM264.151 227.057C264.571 227.057 264.951 226.956 265.293 226.756C265.635 226.555 265.904 226.284 266.1 225.942C266.3 225.596 266.403 225.22 266.407 224.814C266.403 224.409 266.305 224.037 266.113 223.7C265.922 223.363 265.658 223.096 265.32 222.9C264.983 222.7 264.603 222.6 264.179 222.6C263.755 222.6 263.368 222.702 263.017 222.907C262.666 223.112 262.388 223.388 262.183 223.734C261.978 224.076 261.873 224.441 261.868 224.828C261.868 225.215 261.966 225.58 262.162 225.922C262.363 226.264 262.636 226.539 262.982 226.749C263.333 226.954 263.723 227.057 264.151 227.057Z" fill="#191B1C"/>
<path d="M312.067 228H310.823V219.387H310.769L308.362 220.986V219.742L310.823 218.102H312.067V228ZM318.179 228.137C317.541 228.137 316.948 227.993 316.401 227.706C315.859 227.414 315.412 226.92 315.062 226.223C314.715 225.521 314.542 224.591 314.542 223.434C314.542 222.281 314.692 221.294 314.993 220.474C315.299 219.653 315.731 219.031 316.292 218.607C316.857 218.179 317.527 217.965 318.302 217.965C318.871 217.965 319.382 218.074 319.833 218.293C320.289 218.512 320.66 218.819 320.947 219.216C321.239 219.612 321.428 220.07 321.515 220.59H320.298C320.175 220.13 319.942 219.76 319.601 219.482C319.263 219.2 318.83 219.059 318.302 219.059C317.764 219.059 317.299 219.209 316.907 219.51C316.52 219.806 316.221 220.237 316.012 220.802C315.807 221.367 315.704 222.044 315.704 222.832H315.827C316.119 222.417 316.483 222.096 316.921 221.868C317.358 221.636 317.841 221.52 318.37 221.52C318.953 221.52 319.491 221.661 319.983 221.943C320.48 222.226 320.872 222.618 321.159 223.119C321.451 223.616 321.597 224.176 321.597 224.801C321.597 225.416 321.453 225.979 321.166 226.489C320.883 226.995 320.482 227.396 319.963 227.692C319.443 227.989 318.849 228.137 318.179 228.137ZM318.151 227.057C318.571 227.057 318.951 226.956 319.293 226.756C319.635 226.555 319.904 226.284 320.1 225.942C320.3 225.596 320.403 225.22 320.407 224.814C320.403 224.409 320.305 224.037 320.113 223.7C319.922 223.363 319.658 223.096 319.32 222.9C318.983 222.7 318.603 222.6 318.179 222.6C317.755 222.6 317.368 222.702 317.017 222.907C316.666 223.112 316.388 223.388 316.183 223.734C315.978 224.076 315.873 224.441 315.868 224.828C315.868 225.215 315.966 225.58 316.162 225.922C316.363 226.264 316.636 226.539 316.982 226.749C317.333 226.954 317.723 227.057 318.151 227.057Z" fill="#191B1C"/>
<path d="M42.0674 276H40.8232V267.387H40.7686L38.3623 268.986V267.742L40.8232 266.102H42.0674V276ZM47.9736 265.965C48.6071 265.965 49.195 266.111 49.7373 266.402C50.2796 266.689 50.724 267.182 51.0703 267.879C51.4212 268.576 51.5967 269.501 51.5967 270.654C51.5967 271.812 51.444 272.803 51.1387 273.628C50.8379 274.448 50.4049 275.073 49.8398 275.501C49.2793 275.925 48.6117 276.137 47.8369 276.137C47.2673 276.137 46.7546 276.027 46.2988 275.809C45.8431 275.585 45.4694 275.275 45.1777 274.879C44.8906 274.482 44.7061 274.022 44.624 273.498H45.8408C45.9548 273.963 46.1826 274.337 46.5244 274.619C46.8662 274.902 47.3037 275.043 47.8369 275.043C48.3747 275.043 48.8372 274.895 49.2246 274.599C49.6165 274.298 49.9173 273.863 50.127 273.293C50.3366 272.723 50.4437 272.04 50.4482 271.242H50.3115C50.0199 271.657 49.6553 271.98 49.2178 272.213C48.7803 272.441 48.3018 272.555 47.7822 272.555C47.1943 272.555 46.652 272.416 46.1553 272.138C45.6585 271.855 45.2643 271.465 44.9727 270.969C44.6855 270.472 44.542 269.911 44.542 269.287C44.542 268.676 44.6833 268.118 44.9658 267.612C45.2529 267.106 45.6562 266.705 46.1758 266.409C46.6953 266.113 47.2946 265.965 47.9736 265.965ZM48.001 267.045C47.5817 267.045 47.1989 267.145 46.8525 267.346C46.5107 267.542 46.2396 267.808 46.0391 268.146C45.8431 268.483 45.7451 268.85 45.7451 269.246C45.7451 269.661 45.8385 270.039 46.0254 270.381C46.2122 270.718 46.4743 270.985 46.8115 271.181C47.1488 271.377 47.5316 271.475 47.96 271.475C48.3792 271.475 48.7643 271.372 49.1152 271.167C49.4661 270.957 49.7441 270.682 49.9492 270.34C50.1543 269.993 50.2568 269.629 50.2568 269.246C50.2568 268.868 50.1589 268.51 49.9629 268.173C49.7669 267.831 49.4958 267.558 49.1494 267.353C48.8076 267.147 48.4248 267.045 48.001 267.045Z" fill="#191B1C"/>
<path d="M91.6377 275.098L95.0146 271.543C95.4613 271.074 95.8008 270.695 96.0332 270.408C96.2702 270.117 96.4479 269.836 96.5664 269.567C96.6895 269.294 96.751 269.009 96.751 268.713C96.751 268.385 96.6644 268.093 96.4912 267.838C96.318 267.583 96.0811 267.384 95.7803 267.243C95.484 267.102 95.1514 267.031 94.7822 267.031C94.3949 267.031 94.0553 267.109 93.7637 267.264C93.472 267.419 93.2464 267.637 93.0869 267.92C92.932 268.202 92.8545 268.526 92.8545 268.891H91.6924C91.6878 268.316 91.82 267.808 92.0889 267.366C92.3623 266.924 92.7383 266.58 93.2168 266.334C93.6953 266.088 94.2308 265.965 94.8232 265.965C95.4111 265.965 95.9375 266.086 96.4023 266.327C96.8717 266.569 97.2386 266.899 97.5029 267.318C97.7673 267.738 97.8994 268.202 97.8994 268.713C97.8994 269.091 97.8311 269.453 97.6943 269.8C97.5576 270.142 97.3275 270.522 97.0039 270.941C96.6849 271.356 96.2269 271.871 95.6299 272.486L93.3604 274.824V274.906H98.0771V276H91.6514L91.6377 275.098ZM103.108 276.137C102.379 276.137 101.755 275.938 101.235 275.542C100.72 275.146 100.326 274.567 100.053 273.806C99.7839 273.045 99.6494 272.126 99.6494 271.051C99.6494 269.989 99.7861 269.077 100.06 268.316C100.333 267.551 100.729 266.967 101.249 266.566C101.769 266.165 102.388 265.965 103.108 265.965C103.828 265.965 104.448 266.165 104.968 266.566C105.487 266.967 105.884 267.551 106.157 268.316C106.431 269.077 106.567 269.989 106.567 271.051C106.567 272.126 106.431 273.045 106.157 273.806C105.888 274.567 105.494 275.146 104.975 275.542C104.455 275.938 103.833 276.137 103.108 276.137ZM103.108 275.043C103.582 275.043 103.988 274.888 104.325 274.578C104.662 274.268 104.92 273.815 105.098 273.218C105.275 272.621 105.364 271.898 105.364 271.051C105.364 270.203 105.275 269.479 105.098 268.877C104.92 268.275 104.662 267.817 104.325 267.503C103.988 267.188 103.582 267.031 103.108 267.031C102.634 267.031 102.227 267.188 101.885 267.503C101.548 267.817 101.288 268.275 101.105 268.877C100.928 269.479 100.839 270.203 100.839 271.051C100.839 271.898 100.928 272.621 101.105 273.218C101.283 273.815 101.541 274.268 101.878 274.578C102.22 274.888 102.63 275.043 103.108 275.043Z" fill="#191B1C"/>
<path d="M146.738 275.098L150.115 271.543C150.562 271.074 150.901 270.695 151.134 270.408C151.371 270.117 151.549 269.836 151.667 269.567C151.79 269.294 151.852 269.009 151.852 268.713C151.852 268.385 151.765 268.093 151.592 267.838C151.419 267.583 151.182 267.384 150.881 267.243C150.585 267.102 150.252 267.031 149.883 267.031C149.495 267.031 149.156 267.109 148.864 267.264C148.573 267.419 148.347 267.637 148.188 267.92C148.033 268.202 147.955 268.526 147.955 268.891H146.793C146.788 268.316 146.921 267.808 147.189 267.366C147.463 266.924 147.839 266.58 148.317 266.334C148.796 266.088 149.331 265.965 149.924 265.965C150.512 265.965 151.038 266.086 151.503 266.327C151.972 266.569 152.339 266.899 152.604 267.318C152.868 267.738 153 268.202 153 268.713C153 269.091 152.932 269.453 152.795 269.8C152.658 270.142 152.428 270.522 152.104 270.941C151.785 271.356 151.327 271.871 150.73 272.486L148.461 274.824V274.906H153.178V276H146.752L146.738 275.098ZM158.469 276H157.225V267.387H157.17L154.764 268.986V267.742L157.225 266.102H158.469V276Z" fill="#191B1C"/>
<path d="M199.699 275.098L203.076 271.543C203.523 271.074 203.862 270.695 204.095 270.408C204.332 270.117 204.509 269.836 204.628 269.567C204.751 269.294 204.812 269.009 204.812 268.713C204.812 268.385 204.726 268.093 204.553 267.838C204.38 267.583 204.143 267.384 203.842 267.243C203.546 267.102 203.213 267.031 202.844 267.031C202.456 267.031 202.117 267.109 201.825 267.264C201.534 267.419 201.308 267.637 201.148 267.92C200.993 268.202 200.916 268.526 200.916 268.891H199.754C199.749 268.316 199.882 267.808 200.15 267.366C200.424 266.924 200.8 266.58 201.278 266.334C201.757 266.088 202.292 265.965 202.885 265.965C203.473 265.965 203.999 266.086 204.464 266.327C204.933 266.569 205.3 266.899 205.564 267.318C205.829 267.738 205.961 268.202 205.961 268.713C205.961 269.091 205.893 269.453 205.756 269.8C205.619 270.142 205.389 270.522 205.065 270.941C204.746 271.356 204.288 271.871 203.691 272.486L201.422 274.824V274.906H206.139V276H199.713L199.699 275.098ZM207.916 275.098L211.293 271.543C211.74 271.074 212.079 270.695 212.312 270.408C212.549 270.117 212.726 269.836 212.845 269.567C212.968 269.294 213.029 269.009 213.029 268.713C213.029 268.385 212.943 268.093 212.77 267.838C212.596 267.583 212.359 267.384 212.059 267.243C211.762 267.102 211.43 267.031 211.061 267.031C210.673 267.031 210.334 267.109 210.042 267.264C209.75 267.419 209.525 267.637 209.365 267.92C209.21 268.202 209.133 268.526 209.133 268.891H207.971C207.966 268.316 208.098 267.808 208.367 267.366C208.641 266.924 209.017 266.58 209.495 266.334C209.974 266.088 210.509 265.965 211.102 265.965C211.689 265.965 212.216 266.086 212.681 266.327C213.15 266.569 213.517 266.899 213.781 267.318C214.046 267.738 214.178 268.202 214.178 268.713C214.178 269.091 214.109 269.453 213.973 269.8C213.836 270.142 213.606 270.522 213.282 270.941C212.963 271.356 212.505 271.871 211.908 272.486L209.639 274.824V274.906H214.355V276H207.93L207.916 275.098Z" fill="#191B1C"/>
<path d="M253.487 275.098L256.864 271.543C257.311 271.074 257.65 270.695 257.883 270.408C258.12 270.117 258.298 269.836 258.416 269.567C258.539 269.294 258.601 269.009 258.601 268.713C258.601 268.385 258.514 268.093 258.341 267.838C258.168 267.583 257.931 267.384 257.63 267.243C257.334 267.102 257.001 267.031 256.632 267.031C256.244 267.031 255.905 267.109 255.613 267.264C255.322 267.419 255.096 267.637 254.937 267.92C254.782 268.202 254.704 268.526 254.704 268.891H253.542C253.537 268.316 253.67 267.808 253.938 267.366C254.212 266.924 254.588 266.58 255.066 266.334C255.545 266.088 256.08 265.965 256.673 265.965C257.261 265.965 257.787 266.086 258.252 266.327C258.721 266.569 259.088 266.899 259.353 267.318C259.617 267.738 259.749 268.202 259.749 268.713C259.749 269.091 259.681 269.453 259.544 269.8C259.407 270.142 259.177 270.522 258.854 270.941C258.535 271.356 258.076 271.871 257.479 272.486L255.21 274.824V274.906H259.927V276H253.501L253.487 275.098ZM265.136 276.137C264.484 276.137 263.901 276.027 263.386 275.809C262.875 275.59 262.47 275.282 262.169 274.886C261.873 274.489 261.713 274.031 261.69 273.512H262.935C262.957 273.817 263.067 274.086 263.263 274.318C263.463 274.551 263.725 274.731 264.049 274.858C264.372 274.981 264.73 275.043 265.122 275.043C265.55 275.043 265.936 274.97 266.277 274.824C266.624 274.674 266.893 274.469 267.084 274.209C267.28 273.945 267.378 273.644 267.378 273.307C267.378 272.942 267.282 272.621 267.091 272.343C266.904 272.065 266.631 271.848 266.271 271.693C265.91 271.538 265.478 271.461 264.972 271.461H264.165V270.381H264.972C265.368 270.381 265.721 270.31 266.031 270.169C266.341 270.028 266.58 269.829 266.749 269.574C266.922 269.319 267.009 269.023 267.009 268.686C267.009 268.362 266.931 268.075 266.776 267.824C266.626 267.574 266.412 267.38 266.134 267.243C265.856 267.102 265.532 267.031 265.163 267.031C264.808 267.031 264.475 267.095 264.165 267.223C263.855 267.35 263.602 267.533 263.406 267.77C263.21 268.002 263.103 268.275 263.085 268.59H261.896C261.918 268.079 262.078 267.626 262.374 267.229C262.67 266.828 263.064 266.519 263.557 266.3C264.049 266.076 264.589 265.965 265.177 265.965C265.787 265.965 266.321 266.086 266.776 266.327C267.237 266.564 267.59 266.885 267.836 267.291C268.082 267.697 268.203 268.139 268.198 268.617C268.203 269.173 268.055 269.649 267.754 270.046C267.453 270.442 267.041 270.714 266.517 270.859V270.928C266.94 270.996 267.307 271.14 267.617 271.358C267.932 271.573 268.171 271.848 268.335 272.186C268.504 272.518 268.586 272.892 268.581 273.307C268.586 273.84 268.438 274.323 268.137 274.756C267.836 275.184 267.421 275.521 266.893 275.768C266.368 276.014 265.783 276.137 265.136 276.137Z" fill="#191B1C"/>
<path d="M307.487 275.098L310.864 271.543C311.311 271.074 311.65 270.695 311.883 270.408C312.12 270.117 312.298 269.836 312.416 269.567C312.539 269.294 312.601 269.009 312.601 268.713C312.601 268.385 312.514 268.093 312.341 267.838C312.168 267.583 311.931 267.384 311.63 267.243C311.334 267.102 311.001 267.031 310.632 267.031C310.244 267.031 309.905 267.109 309.613 267.264C309.322 267.419 309.096 267.637 308.937 267.92C308.782 268.202 308.704 268.526 308.704 268.891H307.542C307.537 268.316 307.67 267.808 307.938 267.366C308.212 266.924 308.588 266.58 309.066 266.334C309.545 266.088 310.08 265.965 310.673 265.965C311.261 265.965 311.787 266.086 312.252 266.327C312.721 266.569 313.088 266.899 313.353 267.318C313.617 267.738 313.749 268.202 313.749 268.713C313.749 269.091 313.681 269.453 313.544 269.8C313.407 270.142 313.177 270.522 312.854 270.941C312.535 271.356 312.076 271.871 311.479 272.486L309.21 274.824V274.906H313.927V276H307.501L307.487 275.098ZM319.136 276.137C318.484 276.137 317.901 276.027 317.386 275.809C316.875 275.59 316.47 275.282 316.169 274.886C315.873 274.489 315.713 274.031 315.69 273.512H316.935C316.957 273.817 317.067 274.086 317.263 274.318C317.463 274.551 317.725 274.731 318.049 274.858C318.372 274.981 318.73 275.043 319.122 275.043C319.55 275.043 319.936 274.97 320.277 274.824C320.624 274.674 320.893 274.469 321.084 274.209C321.28 273.945 321.378 273.644 321.378 273.307C321.378 272.942 321.282 272.621 321.091 272.343C320.904 272.065 320.631 271.848 320.271 271.693C319.91 271.538 319.478 271.461 318.972 271.461H318.165V270.381H318.972C319.368 270.381 319.721 270.31 320.031 270.169C320.341 270.028 320.58 269.829 320.749 269.574C320.922 269.319 321.009 269.023 321.009 268.686C321.009 268.362 320.931 268.075 320.776 267.824C320.626 267.574 320.412 267.38 320.134 267.243C319.856 267.102 319.532 267.031 319.163 267.031C318.808 267.031 318.475 267.095 318.165 267.223C317.855 267.35 317.602 267.533 317.406 267.77C317.21 268.002 317.103 268.275 317.085 268.59H315.896C315.918 268.079 316.078 267.626 316.374 267.229C316.67 266.828 317.064 266.519 317.557 266.3C318.049 266.076 318.589 265.965 319.177 265.965C319.787 265.965 320.321 266.086 320.776 266.327C321.237 266.564 321.59 266.885 321.836 267.291C322.082 267.697 322.203 268.139 322.198 268.617C322.203 269.173 322.055 269.649 321.754 270.046C321.453 270.442 321.041 270.714 320.517 270.859V270.928C320.94 270.996 321.307 271.14 321.617 271.358C321.932 271.573 322.171 271.848 322.335 272.186C322.504 272.518 322.586 272.892 322.581 273.307C322.586 273.84 322.438 274.323 322.137 274.756C321.836 275.184 321.421 275.521 320.893 275.768C320.368 276.014 319.783 276.137 319.136 276.137Z" fill="#191B1C"/>
<path d="M37.5146 323.098L40.8916 319.543C41.3382 319.074 41.6777 318.695 41.9102 318.408C42.1471 318.117 42.3249 317.836 42.4434 317.567C42.5664 317.294 42.6279 317.009 42.6279 316.713C42.6279 316.385 42.5413 316.093 42.3682 315.838C42.195 315.583 41.958 315.384 41.6572 315.243C41.361 315.102 41.0283 315.031 40.6592 315.031C40.2718 315.031 39.9323 315.109 39.6406 315.264C39.349 315.419 39.1234 315.637 38.9639 315.92C38.8089 316.202 38.7314 316.526 38.7314 316.891H37.5693C37.5648 316.316 37.6969 315.808 37.9658 315.366C38.2393 314.924 38.6152 314.58 39.0938 314.334C39.5723 314.088 40.1077 313.965 40.7002 313.965C41.2881 313.965 41.8145 314.086 42.2793 314.327C42.7487 314.569 43.1156 314.899 43.3799 315.318C43.6442 315.738 43.7764 316.202 43.7764 316.713C43.7764 317.091 43.708 317.453 43.5713 317.8C43.4346 318.142 43.2044 318.522 42.8809 318.941C42.5618 319.356 42.1038 319.871 41.5068 320.486L39.2373 322.824V322.906H43.9541V324H37.5283L37.5146 323.098ZM49.2178 324.137C48.5798 324.137 47.9873 323.993 47.4404 323.706C46.8981 323.414 46.4515 322.92 46.1006 322.223C45.7542 321.521 45.5811 320.591 45.5811 319.434C45.5811 318.281 45.7314 317.294 46.0322 316.474C46.3376 315.653 46.7705 315.031 47.3311 314.607C47.8962 314.179 48.5661 313.965 49.3408 313.965C49.9105 313.965 50.4209 314.074 50.8721 314.293C51.3278 314.512 51.6992 314.819 51.9863 315.216C52.278 315.612 52.4671 316.07 52.5537 316.59H51.3369C51.2139 316.13 50.9814 315.76 50.6396 315.482C50.3024 315.2 49.8695 315.059 49.3408 315.059C48.8031 315.059 48.3382 315.209 47.9463 315.51C47.5589 315.806 47.2604 316.237 47.0508 316.802C46.8457 317.367 46.7432 318.044 46.7432 318.832H46.8662C47.1579 318.417 47.5225 318.096 47.96 317.868C48.3975 317.636 48.8805 317.52 49.4092 317.52C49.9925 317.52 50.5303 317.661 51.0225 317.943C51.5192 318.226 51.9111 318.618 52.1982 319.119C52.4899 319.616 52.6357 320.176 52.6357 320.801C52.6357 321.416 52.4922 321.979 52.2051 322.489C51.9225 322.995 51.5215 323.396 51.002 323.692C50.4824 323.989 49.8877 324.137 49.2178 324.137ZM49.1904 323.057C49.6097 323.057 49.9902 322.956 50.332 322.756C50.6738 322.555 50.9427 322.284 51.1387 321.942C51.3392 321.596 51.4417 321.22 51.4463 320.814C51.4417 320.409 51.3438 320.037 51.1523 319.7C50.9609 319.363 50.6966 319.096 50.3594 318.9C50.0221 318.7 49.6416 318.6 49.2178 318.6C48.7939 318.6 48.4066 318.702 48.0557 318.907C47.7048 319.112 47.4268 319.388 47.2217 319.734C47.0166 320.076 46.9118 320.441 46.9072 320.828C46.9072 321.215 47.0052 321.58 47.2012 321.922C47.4017 322.264 47.6751 322.539 48.0215 322.749C48.3724 322.954 48.762 323.057 49.1904 323.057Z" fill="#191B1C"/>
<path d="M91.9453 323.098L95.3223 319.543C95.7689 319.074 96.1084 318.695 96.3408 318.408C96.5778 318.117 96.7555 317.836 96.874 317.567C96.9971 317.294 97.0586 317.009 97.0586 316.713C97.0586 316.385 96.972 316.093 96.7988 315.838C96.6257 315.583 96.3887 315.384 96.0879 315.243C95.7917 315.102 95.459 315.031 95.0898 315.031C94.7025 315.031 94.363 315.109 94.0713 315.264C93.7796 315.419 93.554 315.637 93.3945 315.92C93.2396 316.202 93.1621 316.526 93.1621 316.891H92C91.9954 316.316 92.1276 315.808 92.3965 315.366C92.6699 314.924 93.0459 314.58 93.5244 314.334C94.0029 314.088 94.5384 313.965 95.1309 313.965C95.7188 313.965 96.2451 314.086 96.71 314.327C97.1794 314.569 97.5462 314.899 97.8105 315.318C98.0749 315.738 98.207 316.202 98.207 316.713C98.207 317.091 98.1387 317.453 98.002 317.8C97.8652 318.142 97.6351 318.522 97.3115 318.941C96.9925 319.356 96.5345 319.871 95.9375 320.486L93.668 322.824V322.906H98.3848V324H91.959L91.9453 323.098ZM105.029 315.264V315.195H99.793V314.102H106.301V315.25L101.775 324H100.49L105.029 315.264Z" fill="#191B1C"/>
<path d="M145.562 323.098L148.939 319.543C149.386 319.074 149.726 318.695 149.958 318.408C150.195 318.117 150.373 317.836 150.491 317.567C150.614 317.294 150.676 317.009 150.676 316.713C150.676 316.385 150.589 316.093 150.416 315.838C150.243 315.583 150.006 315.384 149.705 315.243C149.409 315.102 149.076 315.031 148.707 315.031C148.32 315.031 147.98 315.109 147.688 315.264C147.397 315.419 147.171 315.637 147.012 315.92C146.857 316.202 146.779 316.526 146.779 316.891H145.617C145.613 316.316 145.745 315.808 146.014 315.366C146.287 314.924 146.663 314.58 147.142 314.334C147.62 314.088 148.156 313.965 148.748 313.965C149.336 313.965 149.862 314.086 150.327 314.327C150.797 314.569 151.163 314.899 151.428 315.318C151.692 315.738 151.824 316.202 151.824 316.713C151.824 317.091 151.756 317.453 151.619 317.8C151.482 318.142 151.252 318.522 150.929 318.941C150.61 319.356 150.152 319.871 149.555 320.486L147.285 322.824V322.906H152.002V324H145.576L145.562 323.098ZM157.102 324.137C156.418 324.137 155.807 324.021 155.27 323.788C154.736 323.551 154.322 323.223 154.025 322.804C153.729 322.384 153.583 321.908 153.588 321.375C153.583 320.956 153.668 320.566 153.841 320.206C154.019 319.841 154.262 319.541 154.572 319.304C154.882 319.067 155.224 318.919 155.598 318.859V318.805C155.274 318.727 154.989 318.584 154.743 318.374C154.497 318.16 154.306 317.898 154.169 317.588C154.037 317.278 153.971 316.945 153.971 316.59C153.971 316.093 154.105 315.644 154.374 315.243C154.647 314.842 155.021 314.53 155.495 314.307C155.974 314.079 156.509 313.965 157.102 313.965C157.694 313.965 158.227 314.079 158.701 314.307C159.18 314.53 159.556 314.842 159.829 315.243C160.103 315.64 160.242 316.089 160.246 316.59C160.242 316.945 160.169 317.278 160.027 317.588C159.891 317.898 159.699 318.16 159.453 318.374C159.207 318.584 158.924 318.727 158.605 318.805V318.859C158.975 318.919 159.312 319.067 159.617 319.304C159.927 319.541 160.171 319.841 160.349 320.206C160.531 320.566 160.624 320.956 160.629 321.375C160.624 321.908 160.472 322.384 160.171 322.804C159.87 323.223 159.453 323.551 158.92 323.788C158.387 324.021 157.781 324.137 157.102 324.137ZM157.102 323.057C157.566 323.057 157.972 322.984 158.318 322.838C158.665 322.692 158.931 322.487 159.118 322.223C159.305 321.958 159.398 321.653 159.398 321.307C159.398 320.947 159.298 320.623 159.098 320.336C158.902 320.044 158.628 319.816 158.277 319.652C157.931 319.488 157.539 319.406 157.102 319.406C156.664 319.406 156.27 319.488 155.919 319.652C155.568 319.816 155.295 320.044 155.099 320.336C154.903 320.623 154.809 320.947 154.818 321.307C154.809 321.653 154.896 321.958 155.078 322.223C155.265 322.487 155.532 322.692 155.878 322.838C156.224 322.984 156.632 323.057 157.102 323.057ZM157.102 318.367C157.471 318.367 157.803 318.297 158.1 318.155C158.396 318.014 158.626 317.816 158.79 317.561C158.959 317.305 159.043 317.014 159.043 316.686C159.043 316.362 158.961 316.075 158.797 315.824C158.637 315.574 158.41 315.38 158.113 315.243C157.822 315.102 157.484 315.031 157.102 315.031C156.714 315.031 156.372 315.102 156.076 315.243C155.785 315.38 155.559 315.574 155.399 315.824C155.24 316.075 155.16 316.362 155.16 316.686C155.16 317.014 155.242 317.305 155.406 317.561C155.575 317.816 155.805 318.014 156.097 318.155C156.393 318.297 156.728 318.367 157.102 318.367Z" fill="#191B1C"/>
<path d="M199.515 323.098L202.892 319.543C203.338 319.074 203.678 318.695 203.91 318.408C204.147 318.117 204.325 317.836 204.443 317.567C204.566 317.294 204.628 317.009 204.628 316.713C204.628 316.385 204.541 316.093 204.368 315.838C204.195 315.583 203.958 315.384 203.657 315.243C203.361 315.102 203.028 315.031 202.659 315.031C202.272 315.031 201.932 315.109 201.641 315.264C201.349 315.419 201.123 315.637 200.964 315.92C200.809 316.202 200.731 316.526 200.731 316.891H199.569C199.565 316.316 199.697 315.808 199.966 315.366C200.239 314.924 200.615 314.58 201.094 314.334C201.572 314.088 202.108 313.965 202.7 313.965C203.288 313.965 203.814 314.086 204.279 314.327C204.749 314.569 205.116 314.899 205.38 315.318C205.644 315.738 205.776 316.202 205.776 316.713C205.776 317.091 205.708 317.453 205.571 317.8C205.435 318.142 205.204 318.522 204.881 318.941C204.562 319.356 204.104 319.871 203.507 320.486L201.237 322.824V322.906H205.954V324H199.528L199.515 323.098ZM211.013 313.965C211.646 313.965 212.234 314.111 212.776 314.402C213.319 314.689 213.763 315.182 214.109 315.879C214.46 316.576 214.636 317.501 214.636 318.654C214.636 319.812 214.483 320.803 214.178 321.628C213.877 322.448 213.444 323.073 212.879 323.501C212.318 323.925 211.651 324.137 210.876 324.137C210.306 324.137 209.794 324.027 209.338 323.809C208.882 323.585 208.508 323.275 208.217 322.879C207.93 322.482 207.745 322.022 207.663 321.498H208.88C208.994 321.963 209.222 322.337 209.563 322.619C209.905 322.902 210.343 323.043 210.876 323.043C211.414 323.043 211.876 322.895 212.264 322.599C212.656 322.298 212.956 321.863 213.166 321.293C213.376 320.723 213.483 320.04 213.487 319.242H213.351C213.059 319.657 212.694 319.98 212.257 320.213C211.819 320.441 211.341 320.555 210.821 320.555C210.233 320.555 209.691 320.416 209.194 320.138C208.698 319.855 208.303 319.465 208.012 318.969C207.725 318.472 207.581 317.911 207.581 317.287C207.581 316.676 207.722 316.118 208.005 315.612C208.292 315.106 208.695 314.705 209.215 314.409C209.734 314.113 210.334 313.965 211.013 313.965ZM211.04 315.045C210.621 315.045 210.238 315.145 209.892 315.346C209.55 315.542 209.279 315.808 209.078 316.146C208.882 316.483 208.784 316.85 208.784 317.246C208.784 317.661 208.878 318.039 209.064 318.381C209.251 318.718 209.513 318.985 209.851 319.181C210.188 319.377 210.571 319.475 210.999 319.475C211.418 319.475 211.803 319.372 212.154 319.167C212.505 318.957 212.783 318.682 212.988 318.34C213.193 317.993 213.296 317.629 213.296 317.246C213.296 316.868 213.198 316.51 213.002 316.173C212.806 315.831 212.535 315.558 212.188 315.353C211.847 315.147 211.464 315.045 211.04 315.045Z" fill="#191B1C"/>
<path d="M256.857 324.137C256.206 324.137 255.622 324.027 255.107 323.809C254.597 323.59 254.191 323.282 253.891 322.886C253.594 322.489 253.435 322.031 253.412 321.512H254.656C254.679 321.817 254.788 322.086 254.984 322.318C255.185 322.551 255.447 322.731 255.771 322.858C256.094 322.981 256.452 323.043 256.844 323.043C257.272 323.043 257.657 322.97 257.999 322.824C258.345 322.674 258.614 322.469 258.806 322.209C259.002 321.945 259.1 321.644 259.1 321.307C259.1 320.942 259.004 320.621 258.812 320.343C258.626 320.065 258.352 319.848 257.992 319.693C257.632 319.538 257.199 319.461 256.693 319.461H255.887V318.381H256.693C257.09 318.381 257.443 318.31 257.753 318.169C258.063 318.028 258.302 317.829 258.471 317.574C258.644 317.319 258.73 317.023 258.73 316.686C258.73 316.362 258.653 316.075 258.498 315.824C258.348 315.574 258.133 315.38 257.855 315.243C257.577 315.102 257.254 315.031 256.885 315.031C256.529 315.031 256.197 315.095 255.887 315.223C255.577 315.35 255.324 315.533 255.128 315.77C254.932 316.002 254.825 316.275 254.807 316.59H253.617C253.64 316.079 253.799 315.626 254.096 315.229C254.392 314.828 254.786 314.519 255.278 314.3C255.771 314.076 256.311 313.965 256.898 313.965C257.509 313.965 258.042 314.086 258.498 314.327C258.958 314.564 259.312 314.885 259.558 315.291C259.804 315.697 259.924 316.139 259.92 316.617C259.924 317.173 259.776 317.649 259.476 318.046C259.175 318.442 258.762 318.714 258.238 318.859V318.928C258.662 318.996 259.029 319.14 259.339 319.358C259.653 319.573 259.893 319.848 260.057 320.186C260.225 320.518 260.307 320.892 260.303 321.307C260.307 321.84 260.159 322.323 259.858 322.756C259.558 323.184 259.143 323.521 258.614 323.768C258.09 324.014 257.505 324.137 256.857 324.137ZM265.32 324.137C264.591 324.137 263.967 323.938 263.447 323.542C262.932 323.146 262.538 322.567 262.265 321.806C261.996 321.045 261.861 320.126 261.861 319.051C261.861 317.989 261.998 317.077 262.271 316.316C262.545 315.551 262.941 314.967 263.461 314.566C263.98 314.165 264.6 313.965 265.32 313.965C266.04 313.965 266.66 314.165 267.18 314.566C267.699 314.967 268.096 315.551 268.369 316.316C268.643 317.077 268.779 317.989 268.779 319.051C268.779 320.126 268.643 321.045 268.369 321.806C268.1 322.567 267.706 323.146 267.187 323.542C266.667 323.938 266.045 324.137 265.32 324.137ZM265.32 323.043C265.794 323.043 266.2 322.888 266.537 322.578C266.874 322.268 267.132 321.815 267.31 321.218C267.487 320.621 267.576 319.898 267.576 319.051C267.576 318.203 267.487 317.479 267.31 316.877C267.132 316.275 266.874 315.817 266.537 315.503C266.2 315.188 265.794 315.031 265.32 315.031C264.846 315.031 264.438 315.188 264.097 315.503C263.759 315.817 263.5 316.275 263.317 316.877C263.14 317.479 263.051 318.203 263.051 319.051C263.051 319.898 263.14 320.621 263.317 321.218C263.495 321.815 263.753 322.268 264.09 322.578C264.432 322.888 264.842 323.043 265.32 323.043Z" fill="#191B1C"/>
<path d="M310.857 324.137C310.206 324.137 309.622 324.027 309.107 323.809C308.597 323.59 308.191 323.282 307.891 322.886C307.594 322.489 307.435 322.031 307.412 321.512H308.656C308.679 321.817 308.788 322.086 308.984 322.318C309.185 322.551 309.447 322.731 309.771 322.858C310.094 322.981 310.452 323.043 310.844 323.043C311.272 323.043 311.657 322.97 311.999 322.824C312.345 322.674 312.614 322.469 312.806 322.209C313.002 321.945 313.1 321.644 313.1 321.307C313.1 320.942 313.004 320.621 312.812 320.343C312.626 320.065 312.352 319.848 311.992 319.693C311.632 319.538 311.199 319.461 310.693 319.461H309.887V318.381H310.693C311.09 318.381 311.443 318.31 311.753 318.169C312.063 318.028 312.302 317.829 312.471 317.574C312.644 317.319 312.73 317.023 312.73 316.686C312.73 316.362 312.653 316.075 312.498 315.824C312.348 315.574 312.133 315.38 311.855 315.243C311.577 315.102 311.254 315.031 310.885 315.031C310.529 315.031 310.197 315.095 309.887 315.223C309.577 315.35 309.324 315.533 309.128 315.77C308.932 316.002 308.825 316.275 308.807 316.59H307.617C307.64 316.079 307.799 315.626 308.096 315.229C308.392 314.828 308.786 314.519 309.278 314.3C309.771 314.076 310.311 313.965 310.898 313.965C311.509 313.965 312.042 314.086 312.498 314.327C312.958 314.564 313.312 314.885 313.558 315.291C313.804 315.697 313.924 316.139 313.92 316.617C313.924 317.173 313.776 317.649 313.476 318.046C313.175 318.442 312.762 318.714 312.238 318.859V318.928C312.662 318.996 313.029 319.14 313.339 319.358C313.653 319.573 313.893 319.848 314.057 320.186C314.225 320.518 314.307 320.892 314.303 321.307C314.307 321.84 314.159 322.323 313.858 322.756C313.558 323.184 313.143 323.521 312.614 323.768C312.09 324.014 311.505 324.137 310.857 324.137ZM319.32 324.137C318.591 324.137 317.967 323.938 317.447 323.542C316.932 323.146 316.538 322.567 316.265 321.806C315.996 321.045 315.861 320.126 315.861 319.051C315.861 317.989 315.998 317.077 316.271 316.316C316.545 315.551 316.941 314.967 317.461 314.566C317.98 314.165 318.6 313.965 319.32 313.965C320.04 313.965 320.66 314.165 321.18 314.566C321.699 314.967 322.096 315.551 322.369 316.316C322.643 317.077 322.779 317.989 322.779 319.051C322.779 320.126 322.643 321.045 322.369 321.806C322.1 322.567 321.706 323.146 321.187 323.542C320.667 323.938 320.045 324.137 319.32 324.137ZM319.32 323.043C319.794 323.043 320.2 322.888 320.537 322.578C320.874 322.268 321.132 321.815 321.31 321.218C321.487 320.621 321.576 319.898 321.576 319.051C321.576 318.203 321.487 317.479 321.31 316.877C321.132 316.275 320.874 315.817 320.537 315.503C320.2 315.188 319.794 315.031 319.32 315.031C318.846 315.031 318.438 315.188 318.097 315.503C317.759 315.817 317.5 316.275 317.317 316.877C317.14 317.479 317.051 318.203 317.051 319.051C317.051 319.898 317.14 320.621 317.317 321.218C317.495 321.815 317.753 322.268 318.09 322.578C318.432 322.888 318.842 323.043 319.32 323.043Z" fill="#191B1C"/>
</svg>
