<svg width="32" height="32" viewBox="0 0 32 32" fill="none" xmlns="http://www.w3.org/2000/svg">
<g clip-path="url(#clip0_76_275)">
<path fill-rule="evenodd" clip-rule="evenodd" d="M11.9527 6.9C12.4418 5.50177 13.7614 4.5 15.3125 4.5H17.6875C19.2386 4.5 20.5582 5.50177 21.0473 6.9H22.4375C24.405 6.9 26 8.51178 26 10.5V24.9C26 26.8882 24.405 28.5 22.4375 28.5H10.5625C8.59499 28.5 7 26.8882 7 24.9V10.5C7 8.51178 8.59499 6.9 10.5625 6.9H11.9527ZM11.9527 9.3H10.5625C9.90666 9.3 9.375 9.83726 9.375 10.5V24.9C9.375 25.5627 9.90666 26.1 10.5625 26.1H22.4375C23.0933 26.1 23.625 25.5627 23.625 24.9V10.5C23.625 9.83726 23.0933 9.3 22.4375 9.3H21.0473C20.5582 10.6982 19.2386 11.7 17.6875 11.7H15.3125C13.7614 11.7 12.4418 10.6982 11.9527 9.3ZM15.3125 6.9C14.6567 6.9 14.125 7.43726 14.125 8.1C14.125 8.76274 14.6567 9.3 15.3125 9.3H17.6875C18.3433 9.3 18.875 8.76274 18.875 8.1C18.875 7.43726 18.3433 6.9 17.6875 6.9H15.3125ZM11.75 16.5C11.75 15.8373 12.2817 15.3 12.9375 15.3H12.9494C13.6052 15.3 14.1369 15.8373 14.1369 16.5C14.1369 17.1627 13.6052 17.7 12.9494 17.7H12.9375C12.2817 17.7 11.75 17.1627 11.75 16.5ZM15.3125 16.5C15.3125 15.8373 15.8442 15.3 16.5 15.3H20.0625C20.7183 15.3 21.25 15.8373 21.25 16.5C21.25 17.1627 20.7183 17.7 20.0625 17.7H16.5C15.8442 17.7 15.3125 17.1627 15.3125 16.5ZM11.75 21.3C11.75 20.6373 12.2817 20.1 12.9375 20.1H12.9494C13.6052 20.1 14.1369 20.6373 14.1369 21.3C14.1369 21.9627 13.6052 22.5 12.9494 22.5H12.9375C12.2817 22.5 11.75 21.9627 11.75 21.3ZM15.3125 21.3C15.3125 20.6373 15.8442 20.1 16.5 20.1H20.0625C20.7183 20.1 21.25 20.6373 21.25 21.3C21.25 21.9627 20.7183 22.5 20.0625 22.5H16.5C15.8442 22.5 15.3125 21.9627 15.3125 21.3Z" fill="#50BF50"/>
</g>
<defs>
<clipPath id="clip0_76_275">
<rect width="24" height="24" fill="white" transform="translate(4 4)"/>
</clipPath>
</defs>
</svg>
