<svg width="32" height="32" viewBox="0 0 32 32" fill="none" xmlns="http://www.w3.org/2000/svg">
<path fill-rule="evenodd" clip-rule="evenodd" d="M15 8C11.134 8 8 11.134 8 15C8 18.866 11.134 22 15 22C18.866 22 22 18.866 22 15C22 11.134 18.866 8 15 8ZM6 15C6 10.0294 10.0294 6 15 6C19.9706 6 24 10.0294 24 15C24 19.9706 19.9706 24 15 24C10.0294 24 6 19.9706 6 15Z" fill="#A6ABAF"/>
<path fill-rule="evenodd" clip-rule="evenodd" d="M19.9433 19.9428C20.3338 19.5523 20.967 19.5523 21.3575 19.9428L25.7075 24.2928C26.098 24.6833 26.098 25.3165 25.7075 25.707C25.317 26.0975 24.6838 26.0975 24.2933 25.707L19.9433 21.357C19.5528 20.9665 19.5528 20.3333 19.9433 19.9428Z" fill="#A6ABAF"/>
</svg>
