<svg width="32" height="32" viewBox="0 0 32 32" fill="none" xmlns="http://www.w3.org/2000/svg">
<path d="M7 15.7174C7 13.9407 7 13.0524 7.37248 12.2715C7.74497 11.4907 8.4445 10.9126 9.84356 9.75637L11.2007 8.63479C13.7295 6.54493 14.9939 5.5 16.5 5.5C18.0061 5.5 19.2705 6.54493 21.7993 8.63479L23.1564 9.75637C24.5555 10.9126 25.255 11.4907 25.6275 12.2715C26 13.0524 26 13.9407 26 15.7174V21.266C26 23.7333 26 24.967 25.205 25.7335C24.41 26.5 23.1305 26.5 20.5714 26.5H12.4286C9.86952 26.5 8.58999 26.5 7.795 25.7335C7 24.967 7 23.7333 7 21.266V15.7174Z" stroke="#50BF50" stroke-width="2"/>
<path d="M21 26.5V19.5C21 18.9477 20.5523 18.5 20 18.5H13C12.4477 18.5 12 18.9477 12 19.5V26.5" stroke="#50BF50" stroke-width="2" stroke-linecap="round" stroke-linejoin="round"/>
</svg>
