<svg width="24" height="24" viewBox="0 0 24 24" fill="none" xmlns="http://www.w3.org/2000/svg">
<path fill-rule="evenodd" clip-rule="evenodd" d="M3.25 6C3.25 4.48122 4.48122 3.25 6 3.25H18C19.5188 3.25 20.75 4.48122 20.75 6V18C20.75 19.5188 19.5188 20.75 18 20.75H6C4.48122 20.75 3.25 19.5188 3.25 18V6ZM6 4.75C5.30964 4.75 4.75 5.30964 4.75 6V18C4.75 18.6904 5.30964 19.25 6 19.25H18C18.6904 19.25 19.25 18.6904 19.25 18V6C19.25 5.30964 18.6904 4.75 18 4.75H6Z" fill="#191B1C"/>
<path fill-rule="evenodd" clip-rule="evenodd" d="M6 12.3741V4.75H7.5V11.3404L8.71921 10.5191C9.04006 10.3029 9.45994 10.3029 9.78079 10.5191L11 11.3404V4.75H12.5V12.3741C12.5 13.135 11.6502 13.5871 11.0192 13.162L9.25 11.9701L7.48079 13.162C6.84978 13.5871 6 13.135 6 12.3741Z" fill="#191B1C"/>
</svg>
