<svg width="64" height="64" viewBox="0 0 64 64" fill="none" xmlns="http://www.w3.org/2000/svg">
<rect width="64" height="64.0001" fill="#FF3949"/>
<path fill-rule="evenodd" clip-rule="evenodd" d="M39.6302 28.2143H42.6765C42.6498 28.0213 42.6528 27.7582 42.6563 27.4501C42.6752 25.7937 42.7089 22.8388 38.2323 22.5104C31.9876 22.3793 31.7066 28.4939 34.4171 31.2514C34.8451 31.7422 35.5725 32.2459 36.3478 32.7828C37.8539 33.8257 39.5409 34.9939 39.5654 36.4365C39.8343 39.5969 36.0333 39.227 35.9727 36.9714L35.9728 35.7328H32.8616C32.8701 35.9693 32.8666 36.2196 32.863 36.4759V36.476C32.851 37.3267 32.8382 38.2431 33.2583 38.9385C33.2797 38.9738 33.303 39.0132 33.3283 39.056L33.3283 39.056C33.7265 39.7291 34.6309 41.258 36.8246 41.3624C40.269 41.8002 42.8497 39.8693 42.6776 36.6626C42.6531 36.4125 42.6563 36.1956 42.6594 35.99C42.6723 35.1184 42.6822 34.4508 40.5656 32.3253C39.972 31.8035 39.353 31.3495 38.768 30.9203C37.2355 29.7963 35.9358 28.843 35.9358 27.2884C35.9287 24.4665 39.4734 24.4957 39.6024 26.8808L39.6302 28.2143ZM13.6392 32.5849C13.6392 32.5849 15.288 32.7324 15.288 30.9361V27.1774C15.288 27.1774 15.288 25.5386 13.6492 25.5386C12.0092 25.5386 11.4543 25.5111 11.4543 25.5111V32.5849H13.6392ZM8.56543 22.6961C8.56543 22.6961 10.0192 22.6686 13.6029 22.6686C18.4918 22.6686 18.0655 26.6962 18.0655 26.6962V31.5661C18.0655 35.5474 14.0467 35.5849 14.0467 35.5849H11.4543V41.2512H8.56543V22.6961ZM25.1068 26.5073L23.6392 35.1774H26.5742L25.1068 26.5073ZM22.8993 22.6686H27.3155L30.5742 41.2511H27.463L26.8705 37.9549H23.343L22.7505 41.2511H19.6392L22.8993 22.6686ZM55.4184 28.2143H52.3721L52.3444 26.8808C52.2153 24.4957 48.6705 24.4665 48.6777 27.2884C48.6777 28.843 49.9773 29.7963 51.5098 30.9203C52.0949 31.3494 52.7138 31.8035 53.3074 32.3253C55.4241 34.4508 55.4142 35.1184 55.4013 35.99C55.3983 36.1956 55.3951 36.4125 55.4196 36.6626C55.5916 39.8693 53.0108 41.8002 49.5665 41.3624C47.3728 41.258 46.4683 39.729 46.0701 39.056C46.0448 39.0132 46.0215 38.9738 46.0001 38.9385C45.5801 38.2431 45.5929 37.3267 45.6049 36.4761C45.6085 36.2198 45.612 35.9694 45.6036 35.7328H48.7147V36.9714C48.7752 39.227 52.5762 39.5969 52.3073 36.4365C52.2828 34.9939 50.5958 33.8258 49.0897 32.7828C48.3144 32.246 47.587 31.7423 47.159 31.2514C44.4485 28.4939 44.7296 22.3793 50.9741 22.5104C55.4506 22.8388 55.417 25.7936 55.3982 27.4499C55.3947 27.7581 55.3917 28.0213 55.4184 28.2143Z" fill="white"/>
</svg>
