<svg width="24" height="24" viewBox="0 0 24 24" fill="none" xmlns="http://www.w3.org/2000/svg">
<path fill-rule="evenodd" clip-rule="evenodd" d="M6 3.25C4.48122 3.25 3.25 4.48122 3.25 6V18C3.25 19.5188 4.48122 20.75 6 20.75H18C19.5188 20.75 20.75 19.5188 20.75 18V6C20.75 4.48122 19.5188 3.25 18 3.25H6ZM4.75 6C4.75 5.30964 5.30964 4.75 6 4.75H18C18.6904 4.75 19.25 5.30964 19.25 6V18C19.25 18.6904 18.6904 19.25 18 19.25H6C5.30964 19.25 4.75 18.6904 4.75 18V6ZM14.4391 8.43934C14.6343 8.24408 14.9509 8.24408 15.1462 8.43934L15.4997 8.79289L15.8533 8.43934C16.0486 8.24408 16.3651 8.24408 16.5604 8.43934C16.7557 8.6346 16.7557 8.95118 16.5604 9.14645L16.2068 9.5L16.5604 9.85355C16.7557 10.0488 16.7557 10.3654 16.5604 10.5607C16.3651 10.7559 16.0486 10.7559 15.8533 10.5607L15.4997 10.2071L15.1462 10.5607C14.9509 10.7559 14.6343 10.7559 14.4391 10.5607C14.2438 10.3654 14.2438 10.0488 14.4391 9.85355L14.7926 9.5L14.4391 9.14645C14.2438 8.95118 14.2438 8.6346 14.4391 8.43934ZM8.64645 14.6464C8.84171 14.4512 9.15829 14.4512 9.35355 14.6464L10 15.2929L10.6464 14.6464C10.8417 14.4512 11.1583 14.4512 11.3536 14.6464L12 15.2929L12.6464 14.6464C12.8417 14.4512 13.1583 14.4512 13.3536 14.6464L14 15.2929L14.6464 14.6464C14.8417 14.4512 15.1583 14.4512 15.3536 14.6464L16.3536 15.6464C16.5488 15.8417 16.5488 16.1583 16.3536 16.3536C16.1583 16.5488 15.8417 16.5488 15.6464 16.3536L15 15.7071L14.3536 16.3536C14.1583 16.5488 13.8417 16.5488 13.6464 16.3536L13 15.7071L12.3536 16.3536C12.1583 16.5488 11.8417 16.5488 11.6464 16.3536L11 15.7071L10.3536 16.3536C10.1583 16.5488 9.84171 16.5488 9.64645 16.3536L9 15.7071L8.35355 16.3536C8.15829 16.5488 7.84171 16.5488 7.64645 16.3536C7.45118 16.1583 7.45118 15.8417 7.64645 15.6464L8.64645 14.6464ZM7.43957 8.43934C7.63483 8.24408 7.95141 8.24408 8.14667 8.43934L8.50023 8.79289L8.85378 8.43934C9.04904 8.24408 9.36562 8.24408 9.56089 8.43934C9.75615 8.6346 9.75615 8.95118 9.56089 9.14645L9.20733 9.5L9.56089 9.85355C9.75615 10.0488 9.75615 10.3654 9.56089 10.5607C9.36562 10.7559 9.04904 10.7559 8.85378 10.5607L8.50023 10.2071L8.14667 10.5607C7.95141 10.7559 7.63483 10.7559 7.43957 10.5607C7.2443 10.3654 7.2443 10.0488 7.43957 9.85355L7.79312 9.5L7.43957 9.14644C7.2443 8.95118 7.2443 8.6346 7.43957 8.43934Z" fill="#191B1C"/>
</svg>
