<svg width="24" height="24" viewBox="0 0 24 24" fill="none" xmlns="http://www.w3.org/2000/svg">
<path fill-rule="evenodd" clip-rule="evenodd" d="M3.75 8C3.75 7.30964 4.30964 6.75 5 6.75H19C19.6904 6.75 20.25 7.30964 20.25 8V14C20.25 14.6904 19.6904 15.25 19 15.25H18.3579H17.6079V16V17.448L16.0086 15.521L15.7836 15.25H15.4314H5C4.30964 15.25 3.75 14.6904 3.75 14V8ZM5 5.25C3.48122 5.25 2.25 6.48122 2.25 8V14C2.25 15.5188 3.48122 16.75 5 16.75H15.0792L16.896 18.939C17.6434 19.8396 19.1079 19.3111 19.1079 18.1407V16.7479C20.5767 16.6913 21.75 15.4827 21.75 14V8C21.75 6.48122 20.5188 5.25 19 5.25H5ZM7 12.5C7.82843 12.5 8.5 11.8284 8.5 11C8.5 10.1716 7.82843 9.5 7 9.5C6.17157 9.5 5.5 10.1716 5.5 11C5.5 11.8284 6.17157 12.5 7 12.5ZM12 12.5C12.8284 12.5 13.5 11.8284 13.5 11C13.5 10.1716 12.8284 9.5 12 9.5C11.1716 9.5 10.5 10.1716 10.5 11C10.5 11.8284 11.1716 12.5 12 12.5ZM18.5 11C18.5 11.8284 17.8284 12.5 17 12.5C16.1716 12.5 15.5 11.8284 15.5 11C15.5 10.1716 16.1716 9.5 17 9.5C17.8284 9.5 18.5 10.1716 18.5 11Z" fill="#191B1C"/>
</svg>
