<svg width="64" height="64" viewBox="0 0 64 64" fill="none" xmlns="http://www.w3.org/2000/svg">
<rect width="64" height="64" fill="white"/>
<path fill-rule="evenodd" clip-rule="evenodd" d="M46.8725 32.5319C46.873 31.4884 46.7805 30.447 46.5962 29.4199H32.2598V35.2986H40.4528C40.2853 36.2316 39.9293 37.1208 39.4067 37.912C38.884 38.7031 38.2056 39.3796 37.4128 39.9004V43.7198H42.3356C45.2143 41.0738 46.8725 37.1739 46.8725 32.5434" fill="#3E82F1"/>
<path fill-rule="evenodd" clip-rule="evenodd" d="M32.2601 47.3906C36.3711 47.3906 39.8141 46.0331 42.3359 43.7092L37.419 39.8955C35.8746 40.8832 34.0703 41.3879 32.2371 41.3451C30.3398 41.3207 28.4978 40.7027 26.9703 39.5781C25.4428 38.4534 24.3066 36.8786 23.7216 35.0752H18.6377V39.0155C19.9041 41.5341 21.8467 43.6512 24.2483 45.1302C26.6499 46.6092 29.4159 47.3918 32.2371 47.3906" fill="#32A753"/>
<path fill-rule="evenodd" clip-rule="evenodd" d="M23.7448 35.0749C23.1143 33.2092 23.1143 31.1883 23.7448 29.3227V25.3882H18.6609C17.5932 27.5062 17.0371 29.8446 17.0371 32.216C17.0371 34.5874 17.5932 36.9259 18.6609 39.0439L23.7448 35.0749Z" fill="#F9BB00"/>
<path fill-rule="evenodd" clip-rule="evenodd" d="M32.2606 23.024C34.4284 22.9953 36.5201 23.8221 38.0815 25.3248L42.4457 20.9647C39.6914 18.3776 36.0409 16.9571 32.2606 17.0015C29.4386 17.0001 26.6719 17.7833 24.2702 19.2635C21.8684 20.7436 19.9263 22.8622 18.6611 25.3823L23.7451 29.3168C24.3301 27.5134 25.4662 25.9386 26.9937 24.8139C28.5212 23.6893 30.3632 23.0713 32.2606 23.047" fill="#E74133"/>
</svg>
