<svg width="24" height="24" viewBox="0 0 24 24" fill="none" xmlns="http://www.w3.org/2000/svg">
<rect x="6" y="17.3198" width="12" height="1.68" rx="0.56" fill="#F87171"/>
<path fill-rule="evenodd" clip-rule="evenodd" d="M6 10C6 6.68629 8.68629 4 12 4C15.3137 4 18 6.68629 18 10V15.44C18 15.7493 17.7493 16 17.44 16H6.56C6.25072 16 6 15.7493 6 15.44V10ZM11.1688 11L11 6H13L12.8312 11H11.1688ZM12 14C12.5523 14 13 13.5523 13 13C13 12.4477 12.5523 12 12 12C11.4477 12 11 12.4477 11 13C11 13.5523 11.4477 14 12 14Z" fill="#F87171"/>
</svg>
