<svg width="328" height="72" viewBox="0 0 328 72" fill="none" xmlns="http://www.w3.org/2000/svg">
<path d="M0 16C0 7.16344 7.16344 0 16 0H312C320.837 0 328 7.16344 328 16V56C328 64.8366 320.837 72 312 72H16C7.16345 72 0 64.8366 0 56V16Z" fill="#F6F7F9"/>
<path fill-rule="evenodd" clip-rule="evenodd" d="M48.5 34.6707C48.5 31.9939 48.5 30.6555 47.8259 29.6941C47.534 29.2779 47.159 28.9205 46.7223 28.6424C45.7134 28 44.3089 28 41.5 28H39.5C36.6911 28 35.2866 28 34.2777 28.6424C33.841 28.9205 33.466 29.2779 33.1741 29.6941C32.5 30.6555 32.5 31.9939 32.5 34.6707C32.5 37.3474 32.5 38.6858 33.1741 39.6473C33.466 40.0635 33.841 40.4208 34.2777 40.6989C35.1591 41.2601 36.3423 41.3311 38.5 41.34V41.3413L39.6145 43.4654C39.989 44.1793 41.011 44.1793 41.3855 43.4654L42.5 41.3413V41.34C44.6577 41.3311 45.8409 41.2601 46.7223 40.6989C47.159 40.4208 47.534 40.0635 47.8259 39.6473C48.5 38.6858 48.5 37.3474 48.5 34.6707ZM36.5 35.6236C37.0523 35.6236 37.5 35.197 37.5 34.6707C37.5 34.1444 37.0523 33.7177 36.5 33.7177C35.9477 33.7177 35.5 34.1444 35.5 34.6707C35.5 35.197 35.9477 35.6236 36.5 35.6236ZM41.5 34.6707C41.5 35.197 41.0523 35.6236 40.5 35.6236C39.9477 35.6236 39.5 35.197 39.5 34.6707C39.5 34.1444 39.9477 33.7177 40.5 33.7177C41.0523 33.7177 41.5 34.1444 41.5 34.6707ZM45.5 34.6707C45.5 35.197 45.0523 35.6236 44.5 35.6236C43.9477 35.6236 43.5 35.197 43.5 34.6707C43.5 34.1444 43.9477 33.7177 44.5 33.7177C45.0523 33.7177 45.5 34.1444 45.5 34.6707Z" fill="#A6ABAF"/>
<path d="M60.2324 30.3281C60.8385 30.3281 61.3786 30.5036 61.8525 30.8545C62.3311 31.2054 62.7025 31.7067 62.9668 32.3584C63.2357 33.0055 63.3724 33.7598 63.377 34.6211C63.3724 35.487 63.2357 36.2458 62.9668 36.8975C62.7025 37.5446 62.3311 38.0459 61.8525 38.4014C61.3786 38.7523 60.8385 38.9277 60.2324 38.9277C59.6217 38.9277 59.0794 38.7523 58.6055 38.4014C58.1315 38.0459 57.7601 37.5446 57.4912 36.8975C57.2269 36.2458 57.097 35.487 57.1016 34.6211C57.097 33.7598 57.2269 33.0055 57.4912 32.3584C57.7601 31.7113 58.1315 31.2122 58.6055 30.8613C59.0794 30.5059 59.6217 30.3281 60.2324 30.3281ZM60.2324 31.4902C59.8587 31.4902 59.5283 31.6178 59.2412 31.873C58.9587 32.1283 58.7376 32.4928 58.5781 32.9668C58.4232 33.4362 58.3457 33.9876 58.3457 34.6211C58.3457 35.2591 58.4232 35.8151 58.5781 36.2891C58.7376 36.763 58.9587 37.1276 59.2412 37.3828C59.5283 37.638 59.8587 37.7656 60.2324 37.7656C60.6107 37.7656 60.9434 37.638 61.2305 37.3828C61.5176 37.1276 61.7386 36.763 61.8936 36.2891C62.0531 35.8151 62.1328 35.2591 62.1328 34.6211C62.1328 33.9876 62.0531 33.4362 61.8936 32.9668C61.7386 32.4928 61.5176 32.1283 61.2305 31.873C60.9434 31.6178 60.6107 31.4902 60.2324 31.4902ZM66.4941 34.2109H68.4629V35.3047H66.4941V41.6621H65.1953V29.4121H66.4941V34.2109ZM73.5898 31.6133C73.5898 32.1374 73.7129 32.6432 73.959 33.1309C74.2096 33.6185 74.5651 34.0514 75.0254 34.4297C75.4902 34.8079 76.0326 35.0951 76.6523 35.291L75.9824 36.3027C75.2852 36.0749 74.6745 35.7285 74.1504 35.2637C73.6309 34.7988 73.2321 34.2565 72.9541 33.6367C72.6761 34.3112 72.2705 34.8991 71.7373 35.4004C71.2087 35.9017 70.582 36.2799 69.8574 36.5352L69.1875 35.5371C69.8073 35.3229 70.3496 35.0153 70.8145 34.6143C71.2793 34.2087 71.637 33.7461 71.8877 33.2266C72.1429 32.707 72.2728 32.1693 72.2773 31.6133V31.2715H69.5293V30.2188H76.2832V31.2715H73.5898V31.6133ZM79.209 36.8086H77.9102V29.4121H79.209V36.8086ZM79.209 41.6621H77.9102V38.4766H70.9102V37.4238H79.209V41.6621ZM96.0117 35.291H94.1113V41.6484H92.8125V29.4121H94.1113V34.2246H96.0117V35.291ZM86.3184 37.4922C88.1868 37.4922 90.0007 37.3099 91.7598 36.9453L91.9102 38.0391C90.9349 38.235 89.9665 38.374 89.0049 38.4561C88.0479 38.5335 87.0612 38.5723 86.0449 38.5723H85.0332V30.6016H86.3184V37.4922ZM106.58 34.0469H98.1719V29.8359H99.4707V33.0078H106.58V34.0469ZM107.852 36.4121H102.998V38.832H101.713V36.4121H96.668V35.373H107.852V36.4121ZM106.676 41.4023H98.0625V37.793H99.3477V40.3496H106.676V41.4023ZM116.178 30.2871C116.816 30.2826 117.388 30.4033 117.894 30.6494C118.399 30.8955 118.794 31.2419 119.076 31.6885C119.363 32.1305 119.509 32.6341 119.514 33.1992C119.509 33.7643 119.363 34.2702 119.076 34.7168C118.794 35.1589 118.399 35.5052 117.894 35.7559C117.388 36.002 116.816 36.125 116.178 36.125C115.54 36.125 114.965 36.002 114.455 35.7559C113.949 35.5052 113.553 35.1589 113.266 34.7168C112.979 34.2702 112.837 33.7643 112.842 33.1992C112.837 32.6341 112.979 32.1305 113.266 31.6885C113.553 31.2419 113.949 30.8955 114.455 30.6494C114.965 30.4033 115.54 30.2826 116.178 30.2871ZM116.178 31.4082C115.781 31.4082 115.426 31.4834 115.111 31.6338C114.801 31.7796 114.558 31.9893 114.38 32.2627C114.207 32.5316 114.122 32.8438 114.127 33.1992C114.122 33.5547 114.207 33.8691 114.38 34.1426C114.558 34.4115 114.801 34.6211 115.111 34.7715C115.426 34.9173 115.781 34.9902 116.178 34.9902C116.574 34.9902 116.927 34.9173 117.237 34.7715C117.552 34.6211 117.798 34.4115 117.976 34.1426C118.153 33.8691 118.242 33.5547 118.242 33.1992C118.242 32.8438 118.153 32.5316 117.976 32.2627C117.798 31.9893 117.552 31.7796 117.237 31.6338C116.927 31.4834 116.574 31.4082 116.178 31.4082ZM122.316 41.6895H121.018V29.4121H122.316V41.6895ZM112.254 37.9707C113.767 37.9707 115.18 37.9456 116.492 37.8955C117.809 37.8408 119.062 37.7292 120.252 37.5605L120.348 38.5039C119.126 38.7409 117.884 38.8913 116.622 38.9551C115.364 39.0189 113.963 39.0508 112.418 39.0508L112.254 37.9707ZM134.498 38.5176H133.199V35.7012H130.068V34.6348H133.199V32.9531H130.239C129.802 33.901 129.136 34.7282 128.243 35.4346C127.354 36.1364 126.286 36.6855 125.037 37.082L124.477 36.0566C125.411 35.7559 126.229 35.3753 126.931 34.915C127.632 34.4502 128.193 33.9215 128.612 33.3291C129.036 32.7367 129.291 32.0964 129.378 31.4082H125.105V30.3691H130.793C130.793 30.8887 130.729 31.3991 130.602 31.9004H133.199V29.4258H134.498V38.5176ZM134.812 41.4023H126.609V37.6152H127.922V40.3496H134.812V41.4023ZM146.529 41.6895H145.23V29.4121H146.529V41.6895ZM139.98 30.3281C140.587 30.3281 141.129 30.5059 141.607 30.8613C142.086 31.2122 142.46 31.7135 142.729 32.3652C143.002 33.0124 143.139 33.7643 143.139 34.6211C143.139 35.4824 143.002 36.2389 142.729 36.8906C142.46 37.5423 142.086 38.0459 141.607 38.4014C141.129 38.7523 140.587 38.9277 139.98 38.9277C139.365 38.9277 138.818 38.7523 138.34 38.4014C137.861 38.0459 137.485 37.5446 137.212 36.8975C136.943 36.2458 136.809 35.487 136.809 34.6211C136.809 33.7598 136.943 33.0055 137.212 32.3584C137.485 31.7067 137.861 31.2054 138.34 30.8545C138.818 30.5036 139.365 30.3281 139.98 30.3281ZM139.98 31.4902C139.602 31.4902 139.267 31.6178 138.976 31.873C138.688 32.1283 138.465 32.4928 138.306 32.9668C138.146 33.4362 138.066 33.9876 138.066 34.6211C138.066 35.2591 138.146 35.8151 138.306 36.2891C138.465 36.763 138.688 37.1276 138.976 37.3828C139.267 37.638 139.602 37.7656 139.98 37.7656C140.354 37.7656 140.685 37.638 140.972 37.3828C141.259 37.1276 141.482 36.763 141.642 36.2891C141.801 35.8151 141.881 35.2591 141.881 34.6211C141.881 33.9876 141.801 33.4362 141.642 32.9668C141.482 32.4928 141.259 32.1283 140.972 31.873C140.685 31.6178 140.354 31.4902 139.98 31.4902ZM154.514 38.0117H156.428V36.5898H157.631V41.5117H153.297V36.5898H154.514V38.0117ZM156.428 40.5V38.9961H154.514V40.5H156.428ZM161.186 37.5059C161.186 37.9479 161.268 38.374 161.432 38.7842C161.596 39.1943 161.844 39.5612 162.177 39.8848C162.514 40.2038 162.926 40.4499 163.414 40.623L162.744 41.6074C162.206 41.4023 161.753 41.1107 161.384 40.7324C161.019 40.3587 160.737 39.9189 160.536 39.4131C160.326 39.9053 160.037 40.3405 159.668 40.7188C159.303 41.097 158.866 41.3932 158.355 41.6074L157.699 40.623C158.173 40.4271 158.574 40.165 158.902 39.8369C159.235 39.5042 159.483 39.1374 159.647 38.7363C159.816 38.3307 159.9 37.9206 159.9 37.5059V36.5078H161.186V37.5059ZM155.293 29.9316C155.826 29.9316 156.314 30.0273 156.756 30.2188C157.198 30.4056 157.562 30.6722 157.85 31.0186C158.141 31.3649 158.333 31.7637 158.424 32.2148H160.816V29.4121H162.115V35.9062H160.816V33.2812H158.431C158.344 33.7461 158.155 34.154 157.863 34.5049C157.576 34.8558 157.209 35.127 156.763 35.3184C156.321 35.5098 155.831 35.6055 155.293 35.6055C154.673 35.6055 154.119 35.487 153.632 35.25C153.144 35.0085 152.764 34.6735 152.49 34.2451C152.217 33.8122 152.08 33.3177 152.08 32.7617C152.08 32.2148 152.217 31.7272 152.49 31.2988C152.764 30.8659 153.144 30.5309 153.632 30.2939C154.119 30.0524 154.673 29.9316 155.293 29.9316ZM155.293 31.0117C154.91 31.0117 154.568 31.0869 154.268 31.2373C153.971 31.3831 153.739 31.5882 153.57 31.8525C153.406 32.1169 153.324 32.4199 153.324 32.7617C153.324 33.1081 153.406 33.4157 153.57 33.6846C153.739 33.9535 153.971 34.1654 154.268 34.3203C154.568 34.4707 154.91 34.5482 155.293 34.5527C155.667 34.5482 155.999 34.4707 156.291 34.3203C156.587 34.1654 156.817 33.9535 156.981 33.6846C157.15 33.4157 157.234 33.1081 157.234 32.7617C157.234 32.4199 157.15 32.1169 156.981 31.8525C156.817 31.5882 156.587 31.3831 156.291 31.2373C155.999 31.0869 155.667 31.0117 155.293 31.0117ZM167.324 30.3281C167.876 30.3281 168.372 30.4785 168.814 30.7793C169.257 31.0755 169.614 31.5016 169.888 32.0576C170.166 32.609 170.337 33.2585 170.4 34.0059H172.93V29.4121H174.215V41.6895H172.93V35.0586H170.414C170.368 35.8424 170.209 36.526 169.936 37.1094C169.662 37.6927 169.3 38.1416 168.849 38.4561C168.397 38.7705 167.889 38.9277 167.324 38.9277C166.714 38.9277 166.174 38.7523 165.704 38.4014C165.235 38.0459 164.868 37.5446 164.604 36.8975C164.344 36.2458 164.216 35.487 164.221 34.6211C164.216 33.7598 164.344 33.0055 164.604 32.3584C164.868 31.7067 165.235 31.2054 165.704 30.8545C166.178 30.5036 166.718 30.3281 167.324 30.3281ZM167.324 31.4902C166.955 31.4902 166.629 31.6178 166.347 31.873C166.064 32.1283 165.843 32.4928 165.684 32.9668C165.529 33.4362 165.451 33.9876 165.451 34.6211C165.451 35.2591 165.529 35.8151 165.684 36.2891C165.843 36.763 166.064 37.1276 166.347 37.3828C166.629 37.638 166.955 37.7656 167.324 37.7656C167.693 37.7656 168.019 37.638 168.302 37.3828C168.584 37.1276 168.803 36.763 168.958 36.2891C169.118 35.8151 169.197 35.2591 169.197 34.6211C169.197 33.9876 169.118 33.4362 168.958 32.9668C168.803 32.4928 168.584 32.1283 168.302 31.873C168.019 31.6178 167.693 31.4902 167.324 31.4902ZM187.312 40.1309H176.102V39.0508H178.781V35.8516C178.271 35.569 177.874 35.2113 177.592 34.7783C177.309 34.3454 177.168 33.86 177.168 33.3223C177.168 32.6888 177.359 32.1305 177.742 31.6475C178.13 31.1644 178.665 30.7907 179.349 30.5264C180.032 30.2575 180.809 30.123 181.68 30.123C182.555 30.123 183.334 30.2575 184.018 30.5264C184.706 30.7907 185.241 31.1644 185.624 31.6475C186.011 32.1305 186.205 32.6888 186.205 33.3223C186.205 33.8555 186.068 34.3363 185.795 34.7646C185.521 35.1885 185.134 35.5417 184.633 35.8242V39.0508H187.312V40.1309ZM181.68 31.1621C181.042 31.1621 180.477 31.251 179.984 31.4287C179.492 31.6019 179.109 31.8525 178.836 32.1807C178.562 32.5042 178.426 32.8848 178.426 33.3223C178.426 33.7552 178.562 34.1357 178.836 34.4639C179.109 34.792 179.492 35.0472 179.984 35.2295C180.477 35.4072 181.042 35.4961 181.68 35.4961C182.313 35.4961 182.876 35.4072 183.368 35.2295C183.865 35.0472 184.252 34.792 184.53 34.4639C184.808 34.1357 184.947 33.7552 184.947 33.3223C184.947 32.8893 184.808 32.5088 184.53 32.1807C184.257 31.8525 183.872 31.6019 183.375 31.4287C182.883 31.251 182.318 31.1621 181.68 31.1621ZM183.32 39.0508V36.3232C182.824 36.4463 182.277 36.5078 181.68 36.5078C181.105 36.5078 180.568 36.4486 180.066 36.3301V39.0508H183.32ZM189.596 40.5957C189.423 40.5957 189.258 40.5524 189.104 40.4658C188.953 40.3792 188.835 40.2607 188.748 40.1104C188.661 39.96 188.62 39.7982 188.625 39.625C188.62 39.4518 188.661 39.29 188.748 39.1396C188.835 38.9893 188.953 38.8708 189.104 38.7842C189.258 38.6976 189.423 38.6543 189.596 38.6543C189.764 38.6543 189.924 38.6976 190.074 38.7842C190.225 38.8708 190.343 38.9893 190.43 39.1396C190.521 39.29 190.566 39.4518 190.566 39.625C190.566 39.7982 190.521 39.96 190.43 40.1104C190.343 40.2607 190.225 40.3792 190.074 40.4658C189.924 40.5524 189.764 40.5957 189.596 40.5957ZM199.139 30.2871C199.777 30.2826 200.349 30.4033 200.854 30.6494C201.36 30.8955 201.755 31.2419 202.037 31.6885C202.324 32.1305 202.47 32.6341 202.475 33.1992C202.47 33.7643 202.324 34.2702 202.037 34.7168C201.755 35.1589 201.36 35.5052 200.854 35.7559C200.349 36.002 199.777 36.125 199.139 36.125C198.501 36.125 197.926 36.002 197.416 35.7559C196.91 35.5052 196.514 35.1589 196.227 34.7168C195.939 34.2702 195.798 33.7643 195.803 33.1992C195.798 32.6341 195.939 32.1305 196.227 31.6885C196.514 31.2419 196.91 30.8955 197.416 30.6494C197.926 30.4033 198.501 30.2826 199.139 30.2871ZM199.139 31.4082C198.742 31.4082 198.387 31.4834 198.072 31.6338C197.762 31.7796 197.519 31.9893 197.341 32.2627C197.168 32.5316 197.083 32.8438 197.088 33.1992C197.083 33.5547 197.168 33.8691 197.341 34.1426C197.519 34.4115 197.762 34.6211 198.072 34.7715C198.387 34.9173 198.742 34.9902 199.139 34.9902C199.535 34.9902 199.888 34.9173 200.198 34.7715C200.513 34.6211 200.759 34.4115 200.937 34.1426C201.114 33.8691 201.203 33.5547 201.203 33.1992C201.203 32.8438 201.114 32.5316 200.937 32.2627C200.759 31.9893 200.513 31.7796 200.198 31.6338C199.888 31.4834 199.535 31.4082 199.139 31.4082ZM205.277 41.6895H203.979V29.4121H205.277V41.6895ZM195.215 37.9707C196.728 37.9707 198.141 37.9456 199.453 37.8955C200.77 37.8408 202.023 37.7292 203.213 37.5605L203.309 38.5039C202.087 38.7409 200.845 38.8913 199.583 38.9551C198.325 39.0189 196.924 39.0508 195.379 39.0508L195.215 37.9707ZM217.459 38.5176H216.16V35.7012H213.029V34.6348H216.16V32.9531H213.2C212.763 33.901 212.097 34.7282 211.204 35.4346C210.315 36.1364 209.247 36.6855 207.998 37.082L207.438 36.0566C208.372 35.7559 209.19 35.3753 209.892 34.915C210.593 34.4502 211.154 33.9215 211.573 33.3291C211.997 32.7367 212.252 32.0964 212.339 31.4082H208.066V30.3691H213.754C213.754 30.8887 213.69 31.3991 213.562 31.9004H216.16V29.4258H217.459V38.5176ZM217.773 41.4023H209.57V37.6152H210.883V40.3496H217.773V41.4023ZM224.924 29.6172C225.844 29.6172 226.631 29.6992 227.282 29.8633C227.938 30.0228 228.438 30.2598 228.779 30.5742C229.126 30.8887 229.299 31.2715 229.299 31.7227C229.299 32.1738 229.126 32.5589 228.779 32.8779C228.438 33.1924 227.938 33.4316 227.282 33.5957C226.631 33.7598 225.844 33.8418 224.924 33.8418C224.003 33.8418 223.215 33.7598 222.559 33.5957C221.907 33.4316 221.408 33.1924 221.062 32.8779C220.72 32.5589 220.549 32.1738 220.549 31.7227C220.549 31.2715 220.72 30.8887 221.062 30.5742C221.408 30.2598 221.907 30.0228 222.559 29.8633C223.215 29.6992 224.003 29.6172 224.924 29.6172ZM224.924 30.5742C223.949 30.5742 223.199 30.6745 222.675 30.875C222.151 31.0755 221.893 31.3581 221.902 31.7227C221.898 32.0964 222.153 32.3812 222.668 32.5771C223.188 32.7731 223.939 32.8711 224.924 32.8711C225.904 32.8711 226.653 32.7731 227.173 32.5771C227.697 32.3812 227.959 32.0964 227.959 31.7227C227.959 31.3581 227.695 31.0755 227.166 30.875C226.642 30.6745 225.895 30.5742 224.924 30.5742ZM230.516 35.6328H219.346V34.5938H230.516V35.6328ZM229.107 39.4473H221.971V40.541H229.449V41.5391H220.699V38.5039H227.822V37.5469H220.686V36.5762H229.107V39.4473ZM244.488 32.1465H246.279V33.2266H244.488V36.3301H243.189V29.4258H244.488V32.1465ZM244.488 41.498H236.641V36.9727H244.488V41.498ZM237.912 40.459H243.23V37.9844H237.912V40.459ZM236.723 34.416C238.536 34.4023 240.296 34.2246 242 33.8828L242.164 34.9492C241.202 35.1452 240.257 35.2842 239.327 35.3662C238.402 35.4437 237.434 35.487 236.422 35.4961H235.424V30.0273H236.723V34.416ZM253.197 30.7246C253.197 31.39 253.138 32.0508 253.02 32.707H255.877V29.3984H257.162V41.6484H255.877V37.0547H252.582V35.9883H255.877V33.7461H252.767C252.024 36.1979 250.303 38.0846 247.605 39.4062L246.922 38.3672C248.48 37.6016 249.668 36.6696 250.483 35.5713C251.299 34.4684 251.769 33.1992 251.892 31.7637H247.482V30.7246H253.197ZM270.232 37.3691H265.256V41.6484H263.984V37.3691H259.062V36.3164H270.232V37.3691ZM269.18 31.1758H265.393C265.397 31.6725 265.589 32.1465 265.967 32.5977C266.35 33.0443 266.862 33.4248 267.505 33.7393C268.147 34.0492 268.852 34.2565 269.617 34.3613L269.139 35.3867C268.469 35.2819 267.838 35.1064 267.245 34.8604C266.653 34.6097 266.133 34.2998 265.687 33.9307C265.24 33.557 264.894 33.14 264.647 32.6797C264.278 33.3724 263.693 33.958 262.891 34.4365C262.093 34.9105 261.191 35.2272 260.184 35.3867L259.691 34.3613C260.448 34.2565 261.145 34.0492 261.783 33.7393C262.426 33.4248 262.938 33.0443 263.321 32.5977C263.704 32.1465 263.902 31.6725 263.916 31.1758H260.102V30.1367H269.18V31.1758ZM274.895 32.7617C274.895 33.4271 274.988 34.0856 275.175 34.7373C275.362 35.3844 275.64 35.9769 276.009 36.5146C276.378 37.0524 276.827 37.4831 277.355 37.8066L276.631 38.8047C276.075 38.472 275.599 38.0186 275.202 37.4443C274.806 36.8656 274.5 36.2093 274.286 35.4756C274.054 36.2731 273.726 36.9863 273.302 37.6152C272.882 38.2396 272.383 38.7272 271.805 39.0781L270.998 38.1074C271.559 37.7702 272.037 37.3236 272.434 36.7676C272.83 36.207 273.129 35.5872 273.329 34.9082C273.534 34.2246 273.637 33.5273 273.637 32.8164V30.5332H274.895V32.7617ZM281.703 41.6621H280.459V29.4121H281.703V41.6621ZM279.16 41.0605H277.93V34.7988H276.029V33.7188H277.93V29.6445H279.16V41.0605ZM294.473 40.1309H283.262V39.0508H285.941V35.8516C285.431 35.569 285.035 35.2113 284.752 34.7783C284.469 34.3454 284.328 33.86 284.328 33.3223C284.328 32.6888 284.52 32.1305 284.902 31.6475C285.29 31.1644 285.825 30.7907 286.509 30.5264C287.192 30.2575 287.969 30.123 288.84 30.123C289.715 30.123 290.494 30.2575 291.178 30.5264C291.866 30.7907 292.401 31.1644 292.784 31.6475C293.172 32.1305 293.365 32.6888 293.365 33.3223C293.365 33.8555 293.229 34.3363 292.955 34.7646C292.682 35.1885 292.294 35.5417 291.793 35.8242V39.0508H294.473V40.1309ZM288.84 31.1621C288.202 31.1621 287.637 31.251 287.145 31.4287C286.652 31.6019 286.27 31.8525 285.996 32.1807C285.723 32.5042 285.586 32.8848 285.586 33.3223C285.586 33.7552 285.723 34.1357 285.996 34.4639C286.27 34.792 286.652 35.0472 287.145 35.2295C287.637 35.4072 288.202 35.4961 288.84 35.4961C289.473 35.4961 290.036 35.4072 290.528 35.2295C291.025 35.0472 291.412 34.792 291.69 34.4639C291.968 34.1357 292.107 33.7552 292.107 33.3223C292.107 32.8893 291.968 32.5088 291.69 32.1807C291.417 31.8525 291.032 31.6019 290.535 31.4287C290.043 31.251 289.478 31.1621 288.84 31.1621ZM290.48 39.0508V36.3232C289.984 36.4463 289.437 36.5078 288.84 36.5078C288.266 36.5078 287.728 36.4486 287.227 36.3301V39.0508H290.48ZM297.494 37.6426H296.141L296.018 30.6016H297.617L297.494 37.6426ZM296.824 40.5957C296.651 40.5957 296.487 40.5524 296.332 40.4658C296.182 40.3792 296.063 40.2607 295.977 40.1104C295.89 39.96 295.849 39.7982 295.854 39.625C295.849 39.4518 295.89 39.29 295.977 39.1396C296.063 38.9893 296.182 38.8708 296.332 38.7842C296.487 38.6976 296.651 38.6543 296.824 38.6543C296.993 38.6543 297.152 38.6976 297.303 38.7842C297.453 38.8708 297.572 38.9893 297.658 39.1396C297.749 39.29 297.795 39.4518 297.795 39.625C297.795 39.7982 297.749 39.96 297.658 40.1104C297.572 40.2607 297.453 40.3792 297.303 40.4658C297.152 40.5524 296.993 40.5957 296.824 40.5957Z" fill="#A6ABAF"/>
</svg>
