<svg width="54" height="44" viewBox="0 0 54 44" fill="none" xmlns="http://www.w3.org/2000/svg">
<path d="M26.9043 4.96484C27.5378 4.96484 28.1257 5.11068 28.668 5.40234C29.2103 5.68945 29.6546 6.18164 30.001 6.87891C30.3519 7.57617 30.5273 8.5013 30.5273 9.6543C30.5273 10.8118 30.3747 11.8031 30.0693 12.6279C29.7686 13.4482 29.3356 14.0726 28.7705 14.501C28.21 14.9248 27.5423 15.1367 26.7676 15.1367C26.1979 15.1367 25.6852 15.0273 25.2295 14.8086C24.7738 14.5853 24.4001 14.2754 24.1084 13.8789C23.8213 13.4824 23.6367 13.0221 23.5547 12.498H24.7715C24.8854 12.9629 25.1133 13.3366 25.4551 13.6191C25.7969 13.9017 26.2344 14.043 26.7676 14.043C27.3053 14.043 27.7679 13.8949 28.1553 13.5986C28.5472 13.2979 28.848 12.8626 29.0576 12.293C29.2673 11.7233 29.3743 11.0397 29.3789 10.2422H29.2422C28.9505 10.6569 28.5859 10.9805 28.1484 11.2129C27.7109 11.4408 27.2324 11.5547 26.7129 11.5547C26.125 11.5547 25.5827 11.4157 25.0859 11.1377C24.5892 10.8551 24.195 10.4655 23.9033 9.96875C23.6162 9.47201 23.4727 8.91146 23.4727 8.28711C23.4727 7.67643 23.6139 7.11816 23.8965 6.6123C24.1836 6.10645 24.5869 5.7054 25.1064 5.40918C25.626 5.11296 26.2253 4.96484 26.9043 4.96484ZM26.9316 6.04492C26.5124 6.04492 26.1296 6.14518 25.7832 6.3457C25.4414 6.54167 25.1702 6.80827 24.9697 7.14551C24.7738 7.48275 24.6758 7.84961 24.6758 8.24609C24.6758 8.66081 24.7692 9.03906 24.9561 9.38086C25.1429 9.7181 25.4049 9.9847 25.7422 10.1807C26.0794 10.3766 26.4622 10.4746 26.8906 10.4746C27.3099 10.4746 27.695 10.3721 28.0459 10.167C28.3968 9.95736 28.6748 9.68164 28.8799 9.33984C29.085 8.99349 29.1875 8.62891 29.1875 8.24609C29.1875 7.86784 29.0895 7.51009 28.8936 7.17285C28.6976 6.83105 28.4264 6.55762 28.0801 6.35254C27.7383 6.14746 27.3555 6.04492 26.9316 6.04492Z" fill="#191B1C"/>
<path d="M16 41.54H38V19.54H16V41.54Z" fill="#25292C"/>
</svg>
