<svg width="112" height="130" viewBox="0 0 112 130" fill="none" xmlns="http://www.w3.org/2000/svg">
<g clip-path="url(#clip0_80_335)">
<circle cx="34" cy="65" r="78" fill="#C0F5B8"/>
<path d="M27.5254 51.4252C27.5254 49.5168 29.0725 47.9697 30.9809 47.9697H84.5443C86.4527 47.9697 87.9998 49.5168 87.9998 51.4252V83.6499C87.9998 85.5583 86.4527 87.1054 84.5443 87.1054H30.9809C29.0725 87.1054 27.5254 85.5583 27.5254 83.6499V51.4252Z" fill="#50BF50"/>
<path d="M22.3066 46.1191C22.3066 44.2107 23.8537 42.6636 25.7621 42.6636H79.3256C81.234 42.6636 82.7811 44.2107 82.7811 46.1191V78.3437C82.7811 80.2522 81.234 81.7992 79.3256 81.7992H25.7621C23.8537 81.7992 22.3066 80.2522 22.3066 78.3438V46.1191Z" fill="white"/>
<rect x="22.3066" y="49.2964" width="60.4744" height="7.29648" fill="#BDFFBD"/>
<path d="M22.3066 56.5933L83.395 56.5933" stroke="#50BF50" stroke-width="1.72775"/>
<rect x="22.75" y="42.75" width="59.8953" height="38.299" rx="2.7055" stroke="#191B1C" stroke-width="1.5"/>
<rect x="25.9902" y="71.1855" width="15.3488" height="2.65327" rx="1.32663" fill="#BDFFBD"/>
<rect x="25.9902" y="75.1655" width="26.4" height="2.65327" rx="1.32663" fill="#BDFFBD"/>
<path fill-rule="evenodd" clip-rule="evenodd" d="M74.1712 77.5498C73.2557 76.8973 72.6515 75.776 72.6515 74.5023C72.6515 73.2285 73.2558 72.1071 74.1716 71.4546C73.7994 71.2815 73.3893 71.1855 72.9584 71.1855C71.2631 71.1855 69.8887 72.6704 69.8887 74.5021C69.8887 76.3338 71.2631 77.8187 72.9584 77.8187C73.3892 77.8187 73.7992 77.7229 74.1712 77.5498Z" fill="#50BF50"/>
<path d="M76.0288 78.1643C77.9397 78.1643 79.4441 76.499 79.4441 74.5021C79.4441 72.5052 77.9397 70.84 76.0288 70.84C74.1178 70.84 72.6134 72.5052 72.6134 74.5021C72.6134 76.499 74.1178 78.1643 76.0288 78.1643Z" fill="#50BF50" stroke="white" stroke-width="0.691099"/>
</g>
<defs>
<clipPath id="clip0_80_335">
<rect width="112" height="130" fill="white"/>
</clipPath>
</defs>
</svg>
