<svg width="54" height="44" viewBox="0 0 54 44" fill="none" xmlns="http://www.w3.org/2000/svg">
<path d="M20.7383 14.0977L24.1152 10.543C24.5618 10.0736 24.9014 9.69531 25.1338 9.4082C25.3708 9.11654 25.5485 8.83626 25.667 8.56738C25.79 8.29395 25.8516 8.00911 25.8516 7.71289C25.8516 7.38477 25.765 7.0931 25.5918 6.83789C25.4186 6.58268 25.1816 6.38444 24.8809 6.24316C24.5846 6.10189 24.252 6.03125 23.8828 6.03125C23.4954 6.03125 23.1559 6.10872 22.8643 6.26367C22.5726 6.41862 22.347 6.63737 22.1875 6.91992C22.0326 7.20247 21.9551 7.52604 21.9551 7.89062H20.793C20.7884 7.31641 20.9206 6.80827 21.1895 6.36621C21.4629 5.92415 21.8389 5.58008 22.3174 5.33398C22.7959 5.08789 23.3314 4.96484 23.9238 4.96484C24.5117 4.96484 25.0381 5.08561 25.5029 5.32715C25.9723 5.56868 26.3392 5.89909 26.6035 6.31836C26.8678 6.73763 27 7.20247 27 7.71289C27 8.09115 26.9316 8.45345 26.7949 8.7998C26.6582 9.1416 26.4281 9.52214 26.1045 9.94141C25.7855 10.3561 25.3275 10.8711 24.7305 11.4863L22.4609 13.8242V13.9062H27.1777V15H20.752L20.7383 14.0977ZM32.4688 15H31.2246V6.38672H31.1699L28.7637 7.98633V6.74219L31.2246 5.10156H32.4688V15Z" fill="#50BF50"/>
</svg>
