<svg width="24" height="24" viewBox="0 0 24 24" fill="none" xmlns="http://www.w3.org/2000/svg">
<path fill-rule="evenodd" clip-rule="evenodd" d="M10.0303 6.30662C10.2621 5.95888 10.6524 5.75 11.0704 5.75H12H12.9296C13.3476 5.75 13.7379 5.95888 13.9697 6.30662L15.376 8.41603C15.5151 8.62467 15.7492 8.75 16 8.75H18C18.6904 8.75 19.25 9.30964 19.25 10V17C19.25 17.6904 18.6904 18.25 18 18.25H6C5.30964 18.25 4.75 17.6904 4.75 17V10C4.75 9.30964 5.30964 8.75 6 8.75H8C8.25076 8.75 8.48494 8.62467 8.62404 8.41603L10.0303 6.30662ZM11.0704 4.25C10.1509 4.25 9.29226 4.70953 8.78223 5.47457L7.59861 7.25H6C4.48122 7.25 3.25 8.48122 3.25 10V17C3.25 18.5188 4.48122 19.75 6 19.75H18C19.5188 19.75 20.75 18.5188 20.75 17V10C20.75 8.48122 19.5188 7.25 18 7.25H16.4014L15.2178 5.47457C14.7077 4.70953 13.8491 4.25 12.9296 4.25H12H11.0704ZM9.75 13C9.75 11.7574 10.7574 10.75 12 10.75C13.2426 10.75 14.25 11.7574 14.25 13C14.25 14.2426 13.2426 15.25 12 15.25C10.7574 15.25 9.75 14.2426 9.75 13ZM12 9.25C9.92893 9.25 8.25 10.9289 8.25 13C8.25 15.0711 9.92893 16.75 12 16.75C14.0711 16.75 15.75 15.0711 15.75 13C15.75 10.9289 14.0711 9.25 12 9.25Z" fill="#191B1C"/>
</svg>
