<svg width="24" height="24" viewBox="0 0 24 24" fill="none" xmlns="http://www.w3.org/2000/svg">
<path fill-rule="evenodd" clip-rule="evenodd" d="M6.87382 5.81282C6.58093 5.51992 6.10605 5.51992 5.81316 5.81282C5.52027 6.10571 5.52027 6.58058 5.81316 6.87348L10.9397 12L5.81316 17.1265C5.52027 17.4194 5.52027 17.8943 5.81316 18.1872C6.10605 18.4801 6.58093 18.4801 6.87382 18.1872L12.0003 13.0607L17.1269 18.1872C17.4198 18.4801 17.8946 18.4801 18.1875 18.1872C18.4804 17.8943 18.4804 17.4194 18.1875 17.1265L13.061 12L18.1875 6.87348C18.4804 6.58058 18.4804 6.10571 18.1875 5.81282C17.8946 5.51992 17.4198 5.51992 17.1269 5.81282L12.0003 10.9393L6.87382 5.81282Z" fill="#191B1C"/>
</svg>
