<svg width="24" height="24" viewBox="0 0 24 24" fill="none" xmlns="http://www.w3.org/2000/svg">
<path fill-rule="evenodd" clip-rule="evenodd" d="M13.0248 7.31018L15.2304 5.10515C15.9673 4.36847 16.3357 4.00014 16.7935 4.00014C17.2513 4.00014 17.6197 4.36847 18.3566 5.10515L18.898 5.64645C19.6352 6.38347 20.0039 6.75198 20.0039 7.20994C20.0039 7.66791 19.6352 8.03642 18.898 8.77344L16.7133 10.9576C15.1899 10.072 13.9218 8.81381 13.0248 7.31018ZM12.221 8.1138L5.34455 14.9884C5.10955 15.2234 4.99205 15.3409 4.9148 15.4852C4.83754 15.6295 4.80495 15.7924 4.73976 16.1183L4.0353 19.6397C3.99853 19.8235 3.98014 19.9154 4.03243 19.9677C4.08471 20.02 4.17663 20.0016 4.36047 19.9649L7.88323 19.2605L7.88325 19.2605L7.88327 19.2605C8.20899 19.1954 8.37186 19.1628 8.51615 19.0856C8.66045 19.0084 8.77792 18.8909 9.01285 18.6561L15.9073 11.7634C14.412 10.8423 13.1519 9.59135 12.221 8.1138Z" fill="#50BF50"/>
</svg>
