<svg width="24" height="24" viewBox="0 0 24 24" fill="none" xmlns="http://www.w3.org/2000/svg">
<path d="M12 9C12 10.6569 10.6569 12 9 12C7.34315 12 6 10.6569 6 9M12 9C12 7.34315 10.6569 6 9 6C7.34315 6 6 7.34315 6 9M12 9H21M6 9H3" stroke="#191B1C" stroke-width="1.5" stroke-linecap="round"/>
<path d="M12 16C12 17.6569 13.3431 19 15 19C16.6569 19 18 17.6569 18 16M12 16C12 14.3431 13.3431 13 15 13C16.6569 13 18 14.3431 18 16M12 16H3M18 16H21" stroke="#191B1C" stroke-width="1.5" stroke-linecap="round"/>
</svg>
