<svg width="24" height="24" viewBox="0 0 24 24" fill="none" xmlns="http://www.w3.org/2000/svg">
<path fill-rule="evenodd" clip-rule="evenodd" d="M15.1183 11.2101C14.8201 11.4976 14.8115 11.9724 15.099 12.2706C15.3865 12.5688 15.8613 12.5774 16.1595 12.2899L19.2706 9.28988C19.4172 9.14853 19.5 8.95364 19.5 8.75C19.5 8.54636 19.4172 8.35147 19.2706 8.21012L16.1595 5.21012C15.8613 4.9226 15.3865 4.93123 15.099 5.2294C14.8115 5.52757 14.8201 6.00236 15.1183 6.28988L16.8917 8H10H6.28125H5.16016H4.85596H4.77692H4.75678H4.7517H4.75096H4.75043H4.75011C4.75004 8 4.75 8 4.75 8.75L4.75 8C4.33579 8 4 8.33579 4 8.75C4 9.16421 4.33579 9.5 4.75 9.5L4.75 8.75C4.75 9.5 4.75004 9.5 4.75011 9.5H4.75043H4.7517H4.75678H4.77692H4.85596H5.16016H6.28125H10H16.8917L15.1183 11.2101ZM8.38171 18.2101C8.67988 18.4976 8.68852 18.9724 8.40099 19.2706C8.11347 19.5688 7.63868 19.5774 7.34051 19.2899L4.2294 16.2899C4.08281 16.1485 4 15.9536 4 15.75C4 15.5464 4.08281 15.3515 4.2294 15.2101L7.34051 12.2101C7.63868 11.9226 8.11347 11.9312 8.40099 12.2294C8.68851 12.5276 8.67988 13.0024 8.38171 13.2899L6.60826 15H13.5H17.2188H18.3398H18.644H18.7231H18.7432H18.7483H18.749H18.7496H18.7499C18.75 15 18.75 15 18.75 15.75C18.75 16.5 18.75 16.5 18.7499 16.5H18.7496H18.7483H18.7432H18.7231H18.644H18.3398H17.2188H13.5H6.60826L8.38171 18.2101ZM18.75 15.75V16.5C19.1642 16.5 19.5 16.1642 19.5 15.75C19.5 15.3358 19.1642 15 18.75 15V15.75Z" fill="#191B1C"/>
</svg>
