<svg width="24" height="24" viewBox="0 0 24 24" fill="none" xmlns="http://www.w3.org/2000/svg">
<path fill-rule="evenodd" clip-rule="evenodd" d="M12.358 4.13613C12.2361 4.05036 12.0875 4 11.9271 4C11.7666 4 11.6179 4.05038 11.496 4.13619L8.31462 6.30905C7.97257 6.54266 7.88467 7.00933 8.11829 7.35138C8.35191 7.69342 8.81857 7.78132 9.16062 7.54771L11.1771 6.17049V13.4635C11.1771 13.8777 11.5128 14.2135 11.9271 14.2135C12.3413 14.2135 12.6771 13.8777 12.6771 13.4635V6.17049L14.6935 7.54771C15.0355 7.78132 15.5022 7.69342 15.7358 7.35138C15.9694 7.00933 15.8815 6.54266 15.5395 6.30905L12.358 4.13613ZM5.53056 10.5828C5.51368 10.5828 5.5 10.5965 5.5 10.6133V18.4918C5.5 18.5087 5.51368 18.5224 5.53056 18.5224H18.3219C18.3388 18.5224 18.3524 18.5087 18.3524 18.4918V10.6133C18.3524 10.5965 18.3388 10.5828 18.3219 10.5828H15.5143C15.1001 10.5828 14.7643 10.247 14.7643 9.83277C14.7643 9.41856 15.1001 9.08277 15.5143 9.08277H18.3219C19.1672 9.08277 19.8524 9.76803 19.8524 10.6133V18.4918C19.8524 19.3371 19.1672 20.0224 18.3219 20.0224H5.53056C4.68525 20.0224 4 19.3371 4 18.4918V10.6133C4 9.76803 4.68526 9.08277 5.53056 9.08277H8.33811C8.75232 9.08277 9.08811 9.41856 9.08811 9.83277C9.08811 10.247 8.75232 10.5828 8.33811 10.5828H5.53056Z" fill="#191B1C"/>
</svg>
