<svg width="24" height="24" viewBox="0 0 24 24" fill="none" xmlns="http://www.w3.org/2000/svg">
<path fill-rule="evenodd" clip-rule="evenodd" d="M17.7803 11.2803C18.0732 10.9874 18.0732 10.5126 17.7803 10.2197C17.4874 9.92678 17.0126 9.92678 16.7197 10.2197L13 13.9393V4.25C13 3.83579 12.6642 3.5 12.25 3.5C11.8358 3.5 11.5 3.83579 11.5 4.25V13.9393L7.78033 10.2197C7.48744 9.92678 7.01256 9.92678 6.71967 10.2197C6.42678 10.5126 6.42678 10.9874 6.71967 11.2803L11.7197 16.2803C12.0126 16.5732 12.4874 16.5732 12.7803 16.2803L17.7803 11.2803ZM16.7455 20.1641C17.1597 20.1641 17.4955 19.8283 17.4955 19.4141C17.4955 18.9998 17.1597 18.6641 16.7455 18.6641H7.75454C7.34032 18.6641 7.00454 18.9998 7.00454 19.4141C7.00454 19.8283 7.34032 20.1641 7.75454 20.1641H16.7455Z" fill="#191B1C"/>
</svg>
