<svg width="52" height="78" viewBox="0 0 52 78" fill="none" xmlns="http://www.w3.org/2000/svg">
<rect x="1" y="2" width="50" height="50" rx="8" fill="#EDF0F3"/>
<path d="M16 28.2857C16 27.5756 16.5596 27 17.25 27H19.75C20.4404 27 21 27.5756 21 28.2857V34.7143C21 35.4244 20.4404 36 19.75 36H17.25C16.5596 36 16 35.4244 16 34.7143V28.2857Z" fill="#C6CCD1"/>
<path d="M23.5 23.1429C23.5 22.4328 24.0596 21.8571 24.75 21.8571H27.25C27.9404 21.8571 28.5 22.4328 28.5 23.1429V34.7143C28.5 35.4244 27.9404 36 27.25 36H24.75C24.0596 36 23.5 35.4244 23.5 34.7143V23.1429Z" fill="#C6CCD1"/>
<path d="M31 19.2857C31 18.5756 31.5596 18 32.25 18H34.75C35.4404 18 36 18.5756 36 19.2857V34.7143C36 35.4244 35.4404 36 34.75 36H32.25C31.5596 36 31 35.4244 31 34.7143V19.2857Z" fill="#C6CCD1"/>
<path d="M20.1309 62.6758C20.124 64.3027 22.291 65.6836 24.4102 65.998L24.0137 66.8457C22.1201 66.5244 20.2676 65.5127 19.5293 64.0498C18.791 65.5127 16.9385 66.5244 15.0723 66.8457L14.6484 65.998C16.7607 65.6836 18.9209 64.3027 18.9277 62.6758V62.5938H15.0312V61.7188H24.0137V62.5938H20.1309V62.6758ZM13.9922 68.7734V67.8848H25.0664V68.7734H20.0352V73.1074H18.9824V68.7734H13.9922ZM30.3984 62.7168C30.3848 64.4873 31.6699 66.0664 33.4746 66.6953L32.9277 67.543C31.5195 67.0234 30.4053 65.9775 29.8584 64.6309C29.3252 66.0732 28.2041 67.208 26.7754 67.7617L26.2148 66.9141C28.0332 66.2373 29.3047 64.5557 29.3047 62.7168V61.5547H30.3984V62.7168ZM27.9512 69.7715V68.8828H36.127V73.1074H35.0605V69.7715H27.9512ZM35.0605 68.2812V60.9531H36.127V68.2812H35.0605Z" fill="#494F54"/>
</svg>
