<svg width="52" height="78" viewBox="0 0 52 78" fill="none" xmlns="http://www.w3.org/2000/svg">
<rect x="1" y="2" width="50" height="50" rx="8" fill="#E9FFE9"/>
<path d="M14.2249 27.9421C14.6944 24.3431 17.2797 21.3783 20.7813 20.4233L23.6319 19.6458C25.1823 19.223 26.8177 19.223 28.3681 19.6458L31.2187 20.4233C34.7203 21.3783 37.3056 24.3431 37.7751 27.9421L38.6743 34.8359C39.3769 40.2231 35.1827 45 29.7499 45H22.2501C16.8173 45 12.6231 40.2231 13.3257 34.8359L14.2249 27.9421Z" fill="#50BF50"/>
<path d="M26.8364 21.7998C26.0762 22.4825 24.9238 22.4825 24.1636 21.7998L17.6924 15.988C16.3279 14.7625 17.1948 12.5 19.0288 12.5L31.9712 12.5C33.8052 12.5 34.6721 14.7625 33.3076 15.988L26.8364 21.7998Z" fill="#50BF50"/>
<path d="M25.999 25.8574H26.792V38.2441H25.999V25.8574ZM28.2959 29.8154C28.2686 29.5374 28.1751 29.2959 28.0156 29.0908C27.8607 28.8857 27.6465 28.7331 27.373 28.6328C27.0996 28.528 26.7852 28.4756 26.4297 28.4756C26.0605 28.4756 25.7415 28.5303 25.4727 28.6396C25.2038 28.749 24.9941 28.904 24.8438 29.1045C24.6979 29.3005 24.625 29.5238 24.625 29.7744C24.625 30.1481 24.7799 30.4398 25.0898 30.6494C25.4043 30.8545 25.8145 31.0186 26.3203 31.1416L27.2432 31.374C28.1182 31.5791 28.82 31.9049 29.3486 32.3516C29.8818 32.7982 30.1507 33.4202 30.1553 34.2178C30.1553 34.8011 30.0072 35.3138 29.7109 35.7559C29.4147 36.1979 28.984 36.542 28.4189 36.7881C27.8538 37.0296 27.1794 37.1504 26.3955 37.1504C25.6299 37.1549 24.9645 37.0365 24.3994 36.7949C23.8343 36.5488 23.3923 36.1979 23.0732 35.7422C22.7588 35.2819 22.5879 34.7282 22.5605 34.0811H24.3105C24.3333 34.4183 24.4382 34.7031 24.625 34.9355C24.8118 35.168 25.0557 35.3411 25.3564 35.4551C25.6618 35.569 26.0036 35.626 26.3818 35.626C26.7738 35.626 27.1201 35.5667 27.4209 35.4482C27.7217 35.3298 27.9541 35.1634 28.1182 34.9492C28.2822 34.7305 28.3665 34.4821 28.3711 34.2041C28.3665 33.958 28.2936 33.7484 28.1523 33.5752C28.0156 33.402 27.8174 33.2607 27.5576 33.1514C27.3024 33.0374 26.9788 32.9303 26.5869 32.8301L25.459 32.543C24.6113 32.3197 23.9596 31.9915 23.5039 31.5586C23.0482 31.1257 22.8226 30.5651 22.8271 29.877C22.8271 29.3027 22.9821 28.7946 23.292 28.3525C23.6064 27.9059 24.0394 27.5641 24.5908 27.3271C25.1423 27.0856 25.7643 26.9648 26.457 26.9648C27.1452 26.9648 27.7581 27.0856 28.2959 27.3271C28.8337 27.5687 29.2529 27.9059 29.5537 28.3389C29.8545 28.7718 30.0094 29.264 30.0186 29.8154H28.2959Z" fill="#E9FFE9"/>
<path d="M18.4102 60.9531V73.1074H17.3711V60.9531H18.4102ZM8.14258 66.2031C8.14941 63.6191 9.1748 61.9854 10.7539 61.9785C11.793 61.9854 12.5928 62.6895 13.0303 63.9062H14.9648V61.2129H15.9902V72.4922H14.9648V68.5H13.0303C12.5996 69.7236 11.793 70.4346 10.7539 70.4277C9.1748 70.4346 8.14941 68.7871 8.14258 66.2031ZM9.14062 66.2031C9.13379 68.1719 9.75586 69.416 10.7539 69.4023C11.7451 69.416 12.3809 68.1719 12.3809 66.2031C12.3809 64.2275 11.7451 62.9902 10.7539 62.9902C9.75586 62.9902 9.13379 64.2275 9.14062 66.2031ZM13.2559 64.7949C13.3379 65.2256 13.3789 65.6973 13.3789 66.2031C13.3789 66.7021 13.3379 67.1738 13.2627 67.5977H14.9648V64.7949H13.2559ZM24.3164 63.1953C24.3164 64.7744 25.5332 66.2852 27.3105 66.9004L26.75 67.748C25.3828 67.2559 24.3232 66.2373 23.8037 64.9863C23.2773 66.3809 22.1494 67.502 20.707 68.0352L20.1465 67.1875C21.9375 66.5449 23.2363 64.9248 23.2363 63.209V62.6758H20.4883V61.8008H27.0371V62.6758H24.3164V63.1953ZM21.9922 69.7715V68.8828H30.168V73.1074H29.0879V69.7715H21.9922ZM26.6543 65.041V64.1387H29.0879V60.9531H30.168V68.2402H29.0879V65.041H26.6543ZM41.8574 61.6094V62.5117C41.8574 63.4551 41.8574 64.5625 41.5361 66.0801H43.3203V66.9688H32.1914V66.0801H40.4561C40.7979 64.5488 40.7979 63.4551 40.791 62.5117V62.498H33.5996V61.6094H41.8574ZM33.5586 72.9434V68.6504H41.9121V72.9434H33.5586ZM34.625 72.0684H40.8457V69.498H34.625V72.0684Z" fill="#50BF50"/>
</svg>
