<svg width="24" height="24" viewBox="0 0 24 24" fill="none" xmlns="http://www.w3.org/2000/svg">
<path fill-rule="evenodd" clip-rule="evenodd" d="M16.1127 3.50126C16.2159 3.10114 16.7841 3.10114 16.8873 3.50126L17.3638 5.34853C17.4002 5.48949 17.5103 5.59957 17.6512 5.63593L19.4985 6.11245C19.8986 6.21566 19.8986 6.78388 19.4985 6.88709L17.6512 7.36361C17.5103 7.39997 17.4002 7.51005 17.3638 7.65102L16.8873 9.49828C16.7841 9.8984 16.2159 9.8984 16.1127 9.49828L15.6362 7.65102C15.5998 7.51005 15.4897 7.39997 15.3488 7.36361L13.5015 6.88709C13.1014 6.78388 13.1014 6.21566 13.5015 6.11245L15.3488 5.63593C15.4897 5.59957 15.5998 5.48949 15.6362 5.34853L16.1127 3.50126ZM19.0331 18.6158C18.233 18.8653 17.3822 18.9997 16.5 18.9997C11.8056 18.9997 8 15.1941 8 10.4997C8 7.92562 9.14417 5.61881 10.9517 4.06007C6.47501 4.5794 3 8.38372 3 12.9997C3 17.9702 7.02944 21.9997 12 21.9997C14.8463 21.9997 17.3839 20.6784 19.0331 18.6158ZM21.8873 11.5013C21.7841 11.1011 21.2159 11.1011 21.1127 11.5013L20.8412 12.5536C20.8049 12.6946 20.6948 12.8046 20.5538 12.841L19.5015 13.1125C19.1014 13.2157 19.1014 13.7839 19.5015 13.8871L20.5538 14.1585C20.6948 14.1949 20.8049 14.305 20.8412 14.446L21.1127 15.4983C21.2159 15.8984 21.7841 15.8984 21.8873 15.4983L22.1588 14.446C22.1951 14.305 22.3052 14.1949 22.4462 14.1585L23.4985 13.8871C23.8986 13.7839 23.8986 13.2157 23.4985 13.1125L22.4462 12.841C22.3052 12.8046 22.1951 12.6946 22.1588 12.5536L21.8873 11.5013Z" fill="#191B1C"/>
</svg>
