<svg width="64" height="64" viewBox="0 0 64 64" fill="none" xmlns="http://www.w3.org/2000/svg">
<rect width="64" height="64.0001" fill="#254E9F"/>
<path fill-rule="evenodd" clip-rule="evenodd" d="M11.9188 32.1325H13.8301C15.4337 32.1325 16.7326 30.9251 16.7326 29.4363C16.7326 27.9463 15.4337 26.7388 13.8301 26.7388H11.9188V32.1325ZM9 24H14.0626C17.1225 24 19.6038 26.4063 19.6038 29.3726C19.6038 32.3401 17.1225 34.745 14.0626 34.745H11.9063V39.1326H9V24ZM26.3489 36.4038C27.4139 36.4038 28.2663 36.09 28.9051 35.4625C29.5451 34.8351 29.8639 34.0313 29.8639 33.05C29.8639 32.0688 29.5451 31.2651 28.9051 30.6375C28.2663 30.01 27.4139 29.6963 26.3489 29.6963C25.3163 29.6963 24.4888 30.01 23.8663 30.6375C23.2438 31.2651 22.9326 32.0688 22.9326 33.05C22.9326 34.0313 23.2438 34.8351 23.8663 35.4625C24.4888 36.09 25.3163 36.4038 26.3489 36.4038ZM29.8639 28.5713V26.9712H32.7002V39.1325H29.8639V37.5288C28.8226 38.5238 27.4351 39.1325 25.9113 39.1325C22.6863 39.1325 20.0725 36.4088 20.0725 33.05C20.0725 29.6913 22.6863 26.9675 25.9113 26.9675C27.4351 26.9675 28.8226 27.5763 29.8639 28.5713ZM43.5109 29.5217L41.1405 30.6698C41.1405 30.6698 40.2146 29.3727 38.6219 29.3727C37.0294 29.3727 36.6961 30.1143 36.6961 30.5772C36.6961 31.0401 37.3072 31.559 39.659 31.8644C42.0109 32.1698 43.659 33.3365 43.659 35.4476C43.659 37.5587 41.4369 39.1325 38.7516 39.1325C36.0664 39.1325 33.9142 37.7068 33.3072 36.1883L35.9553 35.0402C35.9553 35.0402 36.8257 36.6699 38.6775 36.6699C40.5294 36.6699 40.8997 35.7624 40.8997 35.4291C40.8997 35.0957 40.7332 34.4105 38.2886 34.0402C35.8442 33.6698 33.8256 32.5957 33.8256 30.8364C33.8256 29.0772 34.9738 27.3921 37.7702 27.0587C40.5664 26.7253 42.1035 27.6513 43.5109 29.5217ZM51.9831 30.6698L54.3535 29.5217C52.9462 27.6513 51.4091 26.7253 48.6128 27.0587C45.8165 27.3921 44.6683 29.0772 44.6683 30.8364C44.6683 32.5957 46.6868 33.6698 49.1313 34.0402C51.5757 34.4105 51.7424 35.0957 51.7424 35.4291C51.7424 35.7624 51.3721 36.6699 49.5202 36.6699C47.6683 36.6699 46.798 35.0402 46.798 35.0402L44.1498 36.1883C44.7568 37.7068 46.9091 39.1325 49.5942 39.1325C52.2794 39.1325 54.5016 37.5587 54.5016 35.4476C54.5016 33.3365 52.8536 32.1698 50.5016 31.8644C48.1499 31.559 47.5388 31.0401 47.5388 30.5772C47.5388 30.1143 47.872 29.3727 49.4646 29.3727C51.0573 29.3727 51.9831 30.6698 51.9831 30.6698Z" fill="white"/>
</svg>
