<svg width="112" height="130" viewBox="0 0 112 130" fill="none" xmlns="http://www.w3.org/2000/svg">
<g clip-path="url(#clip0_80_333)">
<circle cx="34" cy="65" r="78" fill="#C0F5B8"/>
<path fill-rule="evenodd" clip-rule="evenodd" d="M38.024 81.5138L38.3399 88.2524C38.3827 89.1665 39.1363 89.8855 40.0513 89.8855H46.1264C47.0726 89.8855 47.8397 89.1184 47.8397 88.1722V87.5013C47.8397 87.0575 48.2561 86.7314 48.689 86.8289C53.031 87.8067 55.7286 87.7852 59.8364 86.8355C60.2706 86.7351 60.6897 87.0617 60.6897 87.5073V88.1722C60.6897 89.1184 61.4567 89.8855 62.403 89.8855H68.7423C69.6885 89.8855 70.4556 89.1184 70.4556 88.1722V81.6616C73.1727 79.2974 74.371 77.7469 75.7669 74.4656H79.1936C80.8968 74.4656 82.2776 73.0848 82.2776 71.3816V64.0143C82.2776 62.3111 80.8968 60.9303 79.1936 60.9303H75.7669C74.988 58.2706 74.0449 57.0906 72.1689 55.105C72.1689 55.105 73.3683 44.1398 71.4836 42.9404C69.5989 41.741 65.8732 41.855 61.5463 47.5664L61.4496 47.7037C61.4485 47.7036 61.4475 47.7035 61.4464 47.7034C55.8989 47.2192 50.2866 48.0228 45.3697 50.0054C40.4529 51.988 36.469 55.0538 33.9578 58.7875C31.4466 62.5212 30.5294 66.7423 31.3305 70.8791C32.1039 74.8727 34.4237 78.5248 38.024 81.5138Z" fill="white"/>
<path d="M38.3399 88.2524L37.5907 88.2875L38.3399 88.2524ZM38.024 81.5138L38.7732 81.4786L38.7577 81.1481L38.5031 80.9367L38.024 81.5138ZM48.689 86.8289L48.5242 87.5606H48.5242L48.689 86.8289ZM59.8364 86.8355L60.0054 87.5662H60.0054L59.8364 86.8355ZM70.4556 81.6616L69.9633 81.0957L69.7056 81.32V81.6616H70.4556ZM75.7669 74.4656V73.7156H75.2709L75.0768 74.172L75.7669 74.4656ZM75.7669 60.9303L75.0472 61.1411L75.2051 61.6803H75.7669V60.9303ZM72.1689 55.105L71.4234 55.0235L71.3857 55.3681L71.6238 55.6201L72.1689 55.105ZM71.4836 42.9404L71.0809 43.5731V43.5731L71.4836 42.9404ZM61.5463 47.5664L60.9485 47.1135L60.9406 47.1239L60.9331 47.1345L61.5463 47.5664ZM61.4496 47.7037L61.3831 48.4507L61.8138 48.4891L62.0628 48.1355L61.4496 47.7037ZM61.4464 47.7034L61.5116 46.9562L61.5116 46.9562L61.4464 47.7034ZM45.3697 50.0054L45.6502 50.701L45.3697 50.0054ZM33.9578 58.7875L33.3355 58.3689H33.3355L33.9578 58.7875ZM31.3305 70.8791L30.5942 71.0217L31.3305 70.8791ZM39.0891 88.2173L38.7732 81.4786L37.2748 81.5489L37.5907 88.2875L39.0891 88.2173ZM40.0513 89.1355C39.5368 89.1355 39.1131 88.7312 39.0891 88.2173L37.5907 88.2875C37.6523 89.6017 38.7357 90.6355 40.0513 90.6355V89.1355ZM46.1264 89.1355H40.0513V90.6355H46.1264V89.1355ZM47.0897 88.1722C47.0897 88.7042 46.6584 89.1355 46.1264 89.1355V90.6355C47.4868 90.6355 48.5897 89.5327 48.5897 88.1722H47.0897ZM47.0897 87.5013V88.1722H48.5897V87.5013H47.0897ZM48.8538 86.0973C47.9624 85.8965 47.0897 86.5662 47.0897 87.5013H48.5897C48.5897 87.5094 48.5875 87.5205 48.5822 87.5311C48.5774 87.5407 48.5715 87.547 48.5665 87.551C48.5565 87.5589 48.5397 87.5641 48.5242 87.5606L48.8538 86.0973ZM59.6675 86.1047C55.6711 87.0287 53.0877 87.0507 48.8538 86.0973L48.5242 87.5606C52.9744 88.5627 55.786 88.5417 60.0054 87.5662L59.6675 86.1047ZM61.4397 87.5073C61.4397 86.5689 60.5616 85.898 59.6675 86.1047L60.0054 87.5662C59.99 87.5697 59.973 87.5646 59.9629 87.5566C59.9578 87.5527 59.952 87.5464 59.9472 87.5368C59.9419 87.5263 59.9397 87.5152 59.9397 87.5073H61.4397ZM61.4397 88.1722V87.5073H59.9397V88.1722H61.4397ZM62.403 89.1355C61.871 89.1355 61.4397 88.7042 61.4397 88.1722H59.9397C59.9397 89.5326 61.0425 90.6355 62.403 90.6355V89.1355ZM68.7423 89.1355H62.403V90.6355H68.7423V89.1355ZM69.7056 88.1722C69.7056 88.7042 69.2743 89.1355 68.7423 89.1355V90.6355C70.1027 90.6355 71.2056 89.5326 71.2056 88.1722H69.7056ZM69.7056 81.6616V88.1722H71.2056V81.6616H69.7056ZM75.0768 74.172C74.3928 75.7799 73.7714 76.9301 73.0051 77.9598C72.2371 78.9916 71.3032 79.9299 69.9633 81.0957L70.9479 82.2274C72.3251 81.0291 73.3489 80.0101 74.2084 78.8553C75.0694 77.6984 75.7452 76.4326 76.4571 74.7592L75.0768 74.172ZM79.1936 73.7156H75.7669V75.2156H79.1936V73.7156ZM81.5276 71.3816C81.5276 72.6706 80.4826 73.7156 79.1936 73.7156V75.2156C81.311 75.2156 83.0276 73.4991 83.0276 71.3816H81.5276ZM81.5276 64.0143V71.3816H83.0276V64.0143H81.5276ZM79.1936 61.6803C80.4826 61.6803 81.5276 62.7253 81.5276 64.0143H83.0276C83.0276 61.8968 81.311 60.1803 79.1936 60.1803V61.6803ZM75.7669 61.6803H79.1936V60.1803H75.7669V61.6803ZM71.6238 55.6201C72.5596 56.6106 73.2226 57.3594 73.75 58.1728C74.2703 58.9755 74.6737 59.8658 75.0472 61.1411L76.4867 60.7195C76.0812 59.3351 75.6236 58.3056 75.0087 57.3569C74.4007 56.4191 73.6543 55.5851 72.7141 54.5899L71.6238 55.6201ZM71.0809 43.5731C71.1008 43.5858 71.2164 43.6903 71.3476 44.0589C71.4697 44.402 71.5688 44.8694 71.6418 45.442C71.7874 46.5835 71.815 48.0231 71.7832 49.4558C71.7515 50.8824 71.6615 52.2754 71.5792 53.3137C71.5381 53.8322 71.499 54.261 71.4702 54.5596C71.4559 54.7088 71.4441 54.8255 71.4359 54.9045C71.4318 54.944 71.4287 54.9741 71.4265 54.9942C71.4255 55.0042 71.4247 55.0117 71.4241 55.0166C71.4239 55.019 71.4237 55.0209 71.4235 55.022C71.4235 55.0226 71.4234 55.023 71.4234 55.0232C71.4234 55.0234 71.4234 55.0234 71.4234 55.0235C71.4234 55.0235 71.4234 55.0235 72.1689 55.105C72.9145 55.1866 72.9145 55.1864 72.9145 55.1863C72.9145 55.1862 72.9146 55.186 72.9146 55.1858C72.9146 55.1854 72.9147 55.1848 72.9148 55.184C72.9149 55.1825 72.9152 55.1803 72.9155 55.1775C72.9161 55.1719 72.917 55.1636 72.9181 55.1529C72.9204 55.1313 72.9237 55.0997 72.928 55.0586C72.9365 54.9764 72.9486 54.8563 72.9633 54.7034C72.9928 54.3977 73.0327 53.9604 73.0745 53.4322C73.1582 52.377 73.2503 50.9537 73.2828 49.4891C73.3152 48.0306 73.2894 46.504 73.1298 45.2522C73.0502 44.6282 72.9338 44.0421 72.7607 43.556C72.5968 43.0953 72.3376 42.5949 71.8863 42.3077L71.0809 43.5731ZM62.1441 48.0193C64.2521 45.2368 66.1539 43.8987 67.6766 43.3704C69.1851 42.8471 70.3466 43.1058 71.0809 43.5731L71.8863 42.3077C70.736 41.5757 69.0922 41.2916 67.185 41.9533C65.2919 42.61 63.1674 44.1846 60.9485 47.1135L62.1441 48.0193ZM62.0628 48.1355L62.1595 47.9982L60.9331 47.1345L60.8364 47.2718L62.0628 48.1355ZM61.3811 48.4506C61.3819 48.4506 61.3825 48.4507 61.3831 48.4507L61.5162 46.9566C61.5146 46.9565 61.513 46.9564 61.5116 46.9562L61.3811 48.4506ZM45.6502 50.701C50.452 48.7648 55.9453 47.9761 61.3812 48.4506L61.5116 46.9562C55.8525 46.4623 50.1212 47.2808 45.0893 49.3099L45.6502 50.701ZM34.5801 59.2061C36.9936 55.6177 40.8471 52.6378 45.6502 50.701L45.0893 49.3099C40.0586 51.3383 35.9444 54.4899 33.3355 58.3689L34.5801 59.2061ZM32.0669 70.7365C31.3062 66.8086 32.1714 62.7875 34.5801 59.2061L33.3355 58.3689C30.7219 62.2548 29.7527 66.676 30.5942 71.0217L32.0669 70.7365ZM38.5031 80.9367C35.0122 78.0385 32.8018 74.5317 32.0669 70.7365L30.5942 71.0217C31.406 75.2138 33.8352 79.011 37.5449 82.0908L38.5031 80.9367Z" fill="#191B1C"/>
<circle cx="63.6025" cy="65.0425" r="3.08399" fill="#BDFFBD"/>
<path d="M47.9405 46.8477C48.2332 47.5363 48.3431 48.0676 48.884 48.5946C52.2952 47.4309 55.3755 47.1081 58.7043 47.3784C59.2452 46.8514 58.4115 47.5363 58.7043 46.8477C58.997 46.1591 59.1477 45.421 59.1477 44.6757C59.1477 43.9304 58.997 43.1923 58.7043 42.5037C58.4115 41.8151 57.9824 41.1894 57.4415 40.6624C56.9006 40.1353 56.2584 39.7173 55.5516 39.432C54.8449 39.1468 54.0874 39 53.3224 39C52.5574 39 51.7999 39.1468 51.0931 39.432C50.3864 39.7173 49.7442 40.1353 49.2033 40.6624C48.6623 41.1894 48.2332 41.8151 47.9405 42.5037C47.6477 43.1923 47.4971 43.9303 47.4971 44.6757C47.4971 45.421 47.6477 46.1591 47.9405 46.8477Z" fill="#50BF50" stroke="#191B1C" stroke-width="1.5"/>
<path d="M17 59.388C18.8945 62.5642 20.4021 63.0423 23.168 63.6713M23.168 63.6713C24.9739 64.5216 27.9454 64.2238 29.1646 62.6433C30.153 61.3619 29.9319 59.3486 28.6506 58.36C27.4276 57.4163 25.8769 57.8618 24.71 58.874C23.3958 60.0139 23.0521 61.9355 23.168 63.6713ZM23.168 63.6713C24.7506 67.8324 26.4519 69.0214 30.5353 69.6679" stroke="#191B1C" stroke-width="1.5" stroke-linecap="round"/>
<circle cx="66.3443" cy="61.9585" r="1.37066" fill="#191B1C"/>
</g>
<defs>
<clipPath id="clip0_80_333">
<rect width="112" height="130" fill="white"/>
</clipPath>
</defs>
</svg>
