<svg width="24" height="24" viewBox="0 0 24 24" fill="none" xmlns="http://www.w3.org/2000/svg">
<path d="M7.83293 15.8952H6.5775L3.50652 11.5143H3.44858V15.8952H2V9H3.27475L6.32641 13.381H6.39401V9H7.83293V15.8952Z" fill="#50BF50"/>
<path d="M11.3578 16C10.8267 16 10.3663 15.8921 9.97682 15.6762C9.59054 15.4603 9.29277 15.1524 9.08353 14.7524C8.8743 14.3492 8.76968 13.8762 8.76968 13.3333C8.76968 12.8032 8.87269 12.3365 9.07871 11.9333C9.28794 11.527 9.5841 11.2127 9.96717 10.9905C10.3502 10.7683 10.7945 10.6571 11.2999 10.6571C11.7698 10.6571 12.1899 10.7556 12.5601 10.9524C12.9335 11.146 13.2265 11.4397 13.4389 11.8333C13.6546 12.227 13.7624 12.7079 13.7624 13.2762V13.6762H10.1796C10.1796 13.9333 10.2279 14.1571 10.3245 14.3476C10.4243 14.5381 10.5643 14.6857 10.7446 14.7905C10.9281 14.8921 11.1421 14.9429 11.3868 14.9429C11.6218 14.9429 11.8246 14.8968 11.9952 14.8048C12.1658 14.7095 12.2881 14.581 12.3621 14.419H13.7238C13.6562 14.7365 13.5178 15.0143 13.3085 15.2524C13.0993 15.4905 12.8273 15.6746 12.4925 15.8048C12.161 15.9349 11.7827 16 11.3578 16ZM12.4104 12.7905C12.4104 12.5841 12.3638 12.4 12.2704 12.2381C12.1803 12.073 12.0531 11.9444 11.8889 11.8524C11.7248 11.7603 11.5381 11.7143 11.3288 11.7143C11.1164 11.7143 10.9232 11.7619 10.7494 11.8571C10.5788 11.9524 10.442 12.0825 10.339 12.2476C10.2392 12.4127 10.1861 12.5937 10.1796 12.7905H12.4104Z" fill="#50BF50"/>
<path d="M14.226 10.7238H15.6746L16.4954 14.219H16.5437L17.4032 10.7238H18.8228L19.6919 14.2H19.7402L20.5514 10.7238H22L20.5611 15.8952H19.0546L18.1468 12.6095H18.0792L17.1714 15.8952H15.6552L14.226 10.7238Z" fill="#50BF50"/>
</svg>
