<svg width="112" height="130" viewBox="0 0 112 130" fill="none" xmlns="http://www.w3.org/2000/svg">
<g clip-path="url(#clip0_80_334)">
<circle cx="34" cy="65" r="78" fill="#C0F5B8"/>
<path d="M70.7685 42.3578V79.9077V96.0006H32.9347C29.6558 96.0006 27 93.2571 27 89.8699V45.4231C27 42.0359 29.6558 39.2925 32.9347 39.2925H67.8012C69.4332 39.2925 70.7685 40.6719 70.7685 42.3578Z" fill="#50BF50"/>
<path d="M77 36.0653V73.6152V89.7081H39.1662C35.8872 89.7081 33.2314 86.9646 33.2314 83.5775V39.1306C33.2314 35.7434 35.8872 33 39.1662 33H74.0326C75.6647 33 77 34.3794 77 36.0653Z" fill="white" stroke="#191B1C" stroke-width="1.5" stroke-miterlimit="10" stroke-linecap="round"/>
<path d="M33.2314 82.8111C33.2314 79.424 35.8872 76.6805 39.1662 76.6805H74.0326C75.6647 76.6805 77 75.3012 77 73.6152V36.0653C77 34.3794 75.6647 33 74.0326 33H39.1662C35.8872 33 33.2314 35.7434 33.2314 39.1306V83.5775C33.2314 86.9646 35.8872 89.7081 39.1662 89.7081H77" fill="white"/>
<path d="M33.2314 82.8111C33.2314 79.424 35.8872 76.6805 39.1662 76.6805H74.0326C75.6647 76.6805 77 75.3012 77 73.6152M77 73.6152V36.0653C77 34.3794 75.6647 33 74.0326 33H39.1662C35.8872 33 33.2314 35.7434 33.2314 39.1306V83.5775C33.2314 86.9646 35.8872 89.7081 39.1662 89.7081H77V73.6152Z" stroke="#191B1C" stroke-width="1.5" stroke-miterlimit="10" stroke-linecap="round"/>
<path d="M69.3551 82.6577L39.3691 82.6577" stroke="#50BF50" stroke-width="1.5" stroke-miterlimit="10" stroke-linecap="round"/>
<path d="M42.875 33.7666V75.9145" stroke="#191B1C" stroke-width="1.5" stroke-miterlimit="10" stroke-linecap="round"/>
<path d="M55.1623 57.7937C55.3108 58.3748 55.6456 58.8889 56.1136 59.2546C56.5816 59.6204 57.1561 59.8169 57.7463 59.8131H60.6896C60.9967 59.8063 61.2995 59.7378 61.5805 59.6114C61.8614 59.485 62.115 59.3033 62.3266 59.0767C62.5382 58.8502 62.7035 58.5832 62.8132 58.2913C62.9228 57.9994 62.9746 57.6883 62.9655 57.3759C63.0308 56.8628 62.9081 56.3431 62.6209 55.9161C62.3338 55.4891 61.9021 55.1845 61.4083 55.0605L56.6853 53.3196C56.1929 53.1994 55.7616 52.8982 55.4742 52.4741C55.1867 52.0499 55.0635 51.5326 55.1281 51.0217C55.119 50.7093 55.1708 50.3982 55.2805 50.1063C55.3901 49.8144 55.5555 49.5474 55.7671 49.3208C55.9787 49.0942 56.2323 48.9125 56.5132 48.7861C56.7942 48.6598 57.0969 48.5912 57.404 48.5845H60.3473C60.9265 48.5931 61.4868 48.7955 61.9415 49.1605C62.3962 49.5256 62.72 50.0328 62.8628 50.6039" stroke="#50BF50" stroke-width="1.93598" stroke-linecap="round" stroke-linejoin="round"/>
<path d="M58.8594 47.0352V61.3614" stroke="#50BF50" stroke-width="1.93598" stroke-linecap="round" stroke-linejoin="round"/>
</g>
<defs>
<clipPath id="clip0_80_334">
<rect width="112" height="130" fill="white"/>
</clipPath>
</defs>
</svg>
