<svg width="64" height="64" viewBox="0 0 64 64" fill="none" xmlns="http://www.w3.org/2000/svg">
<rect width="64" height="64" fill="black"/>
<path d="M22.2034 41.8091C20.077 38.5496 18.9111 34.7583 18.8389 30.8683C18.8389 24.4488 22.8961 21.0414 26.8939 21.0414C28.9984 21.0414 30.773 22.4716 32.1189 22.4716C33.4647 22.4716 35.3382 20.9557 37.766 20.9557C39.0152 20.9313 40.2507 21.22 41.3593 21.7957C42.468 22.3714 43.4145 23.2157 44.1124 24.2511C43.0568 24.932 42.1883 25.8657 41.5857 26.9672C40.9831 28.0688 40.6657 29.3033 40.6621 30.5586C40.6503 31.9673 41.0495 33.349 41.8111 34.5347C42.5726 35.7204 43.6634 36.6588 44.9502 37.2351C44.4342 38.8886 43.6928 40.4632 42.7468 41.9146C41.3812 43.9314 39.9298 45.9944 37.766 45.9944C35.6021 45.9944 35.015 44.6762 32.4883 44.6762C29.9616 44.6762 29.1435 46.0405 27.1644 46.0405C25.1853 46.0405 23.7801 44.1489 22.1836 41.8355L22.2034 41.8091ZM31.8352 20.5866C31.7926 20.3918 31.7727 20.1927 31.7758 19.9934C31.8309 18.3481 32.4478 16.7713 33.524 15.5248C34.7022 14.0991 36.3937 13.1925 38.2344 13.0005C38.28 13.2172 38.3021 13.4382 38.3003 13.6596C38.2598 15.3421 37.6638 16.9641 36.6049 18.2732C36.0784 18.9416 35.4205 19.4952 34.6716 19.8999C33.9228 20.3046 33.0989 20.5518 32.2508 20.6262C32.1113 20.6261 31.9722 20.6128 31.8352 20.5866Z" fill="white"/>
</svg>
