<svg width="32" height="32" viewBox="0 0 32 32" fill="none" xmlns="http://www.w3.org/2000/svg">
<path d="M11.1012 20.9043C10.038 19.2746 9.45504 17.3789 9.41895 15.4339C9.41895 12.2242 11.4476 10.5205 13.4465 10.5205C14.4987 10.5205 15.386 11.2355 16.0589 11.2355C16.7318 11.2355 17.6686 10.4776 18.8825 10.4776C19.5071 10.4654 20.1248 10.6098 20.6792 10.8976C21.2335 11.1855 21.7068 11.6076 22.0557 12.1253C21.5279 12.4658 21.0936 12.9326 20.7924 13.4834C20.4911 14.0341 20.3323 14.6514 20.3306 15.279C20.3246 15.9834 20.5243 16.6743 20.905 17.2671C21.2858 17.86 21.8312 18.3292 22.4746 18.6173C22.2166 19.444 21.8459 20.2313 21.3729 20.9571C20.6901 21.9655 19.9644 22.9969 18.8825 22.9969C17.8006 22.9969 17.507 22.3379 16.2437 22.3379C14.9803 22.3379 14.5713 23.02 13.5817 23.02C12.5922 23.02 11.8896 22.0742 11.0913 20.9175L11.1012 20.9043ZM15.9171 10.293C15.8958 10.1957 15.8858 10.0961 15.8874 9.99645C15.9149 9.17383 16.2234 8.38542 16.7615 7.76218C17.3506 7.04929 18.1964 6.59602 19.1167 6.5C19.1395 6.60835 19.1506 6.71883 19.1497 6.82954C19.1294 7.67083 18.8314 8.48183 18.302 9.13634C18.0387 9.47056 17.7097 9.74737 17.3353 9.9497C16.9609 10.152 16.549 10.2756 16.1249 10.3128C16.0552 10.3128 15.9856 10.3062 15.9171 10.293Z" fill="white"/>
</svg>
