<svg width="32" height="32" viewBox="0 0 32 32" fill="none" xmlns="http://www.w3.org/2000/svg">
<rect width="32" height="32" fill="white"/>
<path fill-rule="evenodd" clip-rule="evenodd" d="M23.4363 16.2659C23.4365 15.7442 23.3903 15.2235 23.2981 14.71H16.1299V17.6493H20.2264C20.1426 18.1158 19.9647 18.5604 19.7033 18.956C19.442 19.3516 19.1028 19.6898 18.7064 19.9502V21.8599H21.1678C22.6072 20.5369 23.4363 18.5869 23.4363 16.2717" fill="#3E82F1"/>
<path fill-rule="evenodd" clip-rule="evenodd" d="M16.1296 23.6953C18.185 23.6953 19.9066 23.0165 21.1675 21.8546L18.709 19.9478C17.9368 20.4416 17.0347 20.6939 16.1181 20.6725C15.1694 20.6604 14.2484 20.3514 13.4847 19.789C12.7209 19.2267 12.1528 18.4393 11.8603 17.5376H9.31836V19.5077C9.95159 20.767 10.9229 21.8256 12.1237 22.5651C13.3245 23.3046 14.7075 23.6959 16.1181 23.6953" fill="#32A753"/>
<path fill-rule="evenodd" clip-rule="evenodd" d="M11.8724 17.5372C11.5572 16.6044 11.5572 15.5939 11.8724 14.6611V12.6938H9.33043C8.79661 13.7528 8.51855 14.9221 8.51855 16.1078C8.51855 17.2935 8.79661 18.4627 9.33043 19.5217L11.8724 17.5372Z" fill="#F9BB00"/>
<path fill-rule="evenodd" clip-rule="evenodd" d="M16.1298 11.5117C17.2137 11.4974 18.2596 11.9108 19.0403 12.6622L21.2224 10.4821C19.8452 9.18855 18.0199 8.47831 16.1298 8.50051C14.7188 8.49982 13.3355 8.89142 12.1346 9.63148C10.9337 10.3716 9.96264 11.4309 9.33008 12.6909L11.8721 14.6582C12.1646 13.7565 12.7326 12.9691 13.4964 12.4067C14.2601 11.8444 15.1811 11.5354 16.1298 11.5233" fill="#E74133"/>
</svg>
