<svg width="18" height="16" viewBox="0 0 18 16" fill="none" xmlns="http://www.w3.org/2000/svg">
<path fill-rule="evenodd" clip-rule="evenodd" d="M8.13309 0.503851C8.51699 -0.167951 9.48567 -0.16795 9.86957 0.503853L17.8694 14.5033C18.2504 15.1699 17.769 15.9994 17.0012 15.9994H1.00148C0.23365 15.9994 -0.247716 15.1699 0.13324 14.5033L8.13309 0.503851ZM7.98115 5.16106C7.98115 4.59737 8.43811 4.14041 9.0018 4.14041C9.5655 4.14041 10.0225 4.59737 10.0225 5.16106V9.307C10.0225 9.87069 9.5655 10.3277 9.0018 10.3277C8.43811 10.3277 7.98115 9.87069 7.98115 9.307V5.16106ZM9.0018 13.4212C9.5655 13.4212 10.0225 12.9595 10.0225 12.39C10.0225 11.8205 9.5655 11.3588 9.0018 11.3588C8.43811 11.3588 7.98115 11.8205 7.98115 12.39C7.98115 12.9595 8.43811 13.4212 9.0018 13.4212Z" fill="#FEF08A"/>
</svg>
