<svg width="24" height="24" viewBox="0 0 24 24" fill="none" xmlns="http://www.w3.org/2000/svg">
<path fill-rule="evenodd" clip-rule="evenodd" d="M2.25 5C2.25 4.0335 3.0335 3.25 4 3.25H10C10.9665 3.25 11.75 4.0335 11.75 5V7.25H20C20.9665 7.25 21.75 8.0335 21.75 9V20V20.75H21H11.75H11H10.25H3H2.25V20V5ZM11.75 19.25V8.75H20C20.1381 8.75 20.25 8.86193 20.25 9V19.25H11.75ZM10.25 5V7.25V8V19.25H3.75V5C3.75 4.86193 3.86193 4.75 4 4.75H10C10.1381 4.75 10.25 4.86193 10.25 5ZM13.5 10.25C13.0858 10.25 12.75 10.5858 12.75 11C12.75 11.4142 13.0858 11.75 13.5 11.75H15C15.4142 11.75 15.75 11.4142 15.75 11C15.75 10.5858 15.4142 10.25 15 10.25H13.5ZM12.75 14C12.75 13.5858 13.0858 13.25 13.5 13.25H15C15.4142 13.25 15.75 13.5858 15.75 14C15.75 14.4142 15.4142 14.75 15 14.75H13.5C13.0858 14.75 12.75 14.4142 12.75 14ZM17.5 10.25C17.0858 10.25 16.75 10.5858 16.75 11C16.75 11.4142 17.0858 11.75 17.5 11.75H19C19.4142 11.75 19.75 11.4142 19.75 11C19.75 10.5858 19.4142 10.25 19 10.25H17.5ZM16.75 14C16.75 13.5858 17.0858 13.25 17.5 13.25H19C19.4142 13.25 19.75 13.5858 19.75 14C19.75 14.4142 19.4142 14.75 19 14.75H17.5C17.0858 14.75 16.75 14.4142 16.75 14ZM4.5 7.5C4.5 7.08579 4.83579 6.75 5.25 6.75H5.75C6.16421 6.75 6.5 7.08579 6.5 7.5C6.5 7.91421 6.16421 8.25 5.75 8.25H5.25C4.83579 8.25 4.5 7.91421 4.5 7.5ZM4.5 10.5C4.5 10.0858 4.83579 9.75 5.25 9.75H5.75C6.16421 9.75 6.5 10.0858 6.5 10.5C6.5 10.9142 6.16421 11.25 5.75 11.25H5.25C4.83579 11.25 4.5 10.9142 4.5 10.5ZM5.25 12.75C4.83579 12.75 4.5 13.0858 4.5 13.5C4.5 13.9142 4.83579 14.25 5.25 14.25H5.75C6.16421 14.25 6.5 13.9142 6.5 13.5C6.5 13.0858 6.16421 12.75 5.75 12.75H5.25ZM4.5 16.5C4.5 16.0858 4.83579 15.75 5.25 15.75H5.75C6.16421 15.75 6.5 16.0858 6.5 16.5C6.5 16.9142 6.16421 17.25 5.75 17.25H5.25C4.83579 17.25 4.5 16.9142 4.5 16.5ZM8.25 6.75C7.83579 6.75 7.5 7.08579 7.5 7.5C7.5 7.91421 7.83579 8.25 8.25 8.25H8.75C9.16421 8.25 9.5 7.91421 9.5 7.5C9.5 7.08579 9.16421 6.75 8.75 6.75H8.25ZM7.5 10.5C7.5 10.0858 7.83579 9.75 8.25 9.75H8.75C9.16421 9.75 9.5 10.0858 9.5 10.5C9.5 10.9142 9.16421 11.25 8.75 11.25H8.25C7.83579 11.25 7.5 10.9142 7.5 10.5ZM8.25 12.75C7.83579 12.75 7.5 13.0858 7.5 13.5C7.5 13.9142 7.83579 14.25 8.25 14.25H8.75C9.16421 14.25 9.5 13.9142 9.5 13.5C9.5 13.0858 9.16421 12.75 8.75 12.75H8.25ZM7.5 16.5C7.5 16.0858 7.83579 15.75 8.25 15.75H8.75C9.16421 15.75 9.5 16.0858 9.5 16.5C9.5 16.9142 9.16421 17.25 8.75 17.25H8.25C7.83579 17.25 7.5 16.9142 7.5 16.5Z" fill="#191B1C"/>
</svg>
