<svg width="24" height="24" viewBox="0 0 24 24" fill="none" xmlns="http://www.w3.org/2000/svg">
<path fill-rule="evenodd" clip-rule="evenodd" d="M1.25 4C1.25 2.48122 2.48122 1.25 4 1.25H12H20C21.5188 1.25 22.75 2.48122 22.75 4V12V20C22.75 21.5188 21.5188 22.75 20 22.75H12H4C2.48122 22.75 1.25 21.5188 1.25 20V12V4ZM4 2.75C3.30964 2.75 2.75 3.30964 2.75 4V11.25H11.25V2.75H4ZM12.75 11.25H21.25V4C21.25 3.30964 20.6904 2.75 20 2.75H12.75V11.25ZM21.25 12.75H12.75V21.25H20C20.6904 21.25 21.25 20.6904 21.25 20V12.75ZM4 21.25H11.25V12.75H2.75V20C2.75 20.6904 3.30964 21.25 4 21.25ZM7 4.25C7.41421 4.25 7.75 4.58579 7.75 5V6.25H9C9.41421 6.25 9.75 6.58579 9.75 7C9.75 7.41421 9.41421 7.75 9 7.75H7.75V9C7.75 9.41421 7.41421 9.75 7 9.75C6.58579 9.75 6.25 9.41421 6.25 9V7.75H5C4.58579 7.75 4.25 7.41421 4.25 7C4.25 6.58579 4.58579 6.25 5 6.25H6.25V5C6.25 4.58579 6.58579 4.25 7 4.25ZM6.11617 15.0555C5.82328 14.7626 5.34841 14.7626 5.05551 15.0555C4.76262 15.3483 4.76262 15.8232 5.05551 16.1161L5.9394 17L5.05551 17.8839C4.76262 18.1768 4.76262 18.6516 5.05551 18.9445C5.34841 19.2374 5.82328 19.2374 6.11617 18.9445L7.00006 18.0607L7.88394 18.9445C8.17683 19.2374 8.65171 19.2374 8.9446 18.9445C9.23749 18.6516 9.23749 18.1768 8.9446 17.8839L8.06072 17L8.9446 16.1161C9.23749 15.8232 9.23749 15.3483 8.9446 15.0555C8.65171 14.7626 8.17683 14.7626 7.88394 15.0555L7.00006 15.9393L6.11617 15.0555ZM14.25 7C14.25 6.58579 14.5858 6.25 15 6.25H19C19.4142 6.25 19.75 6.58579 19.75 7C19.75 7.41421 19.4142 7.75 19 7.75H15C14.5858 7.75 14.25 7.41421 14.25 7ZM14.25 16C14.25 15.5858 14.5858 15.25 15 15.25H19C19.4142 15.25 19.75 15.5858 19.75 16C19.75 16.4142 19.4142 16.75 19 16.75H15C14.5858 16.75 14.25 16.4142 14.25 16ZM14.25 18C14.25 17.5858 14.5858 17.25 15 17.25H19C19.4142 17.25 19.75 17.5858 19.75 18C19.75 18.4142 19.4142 18.75 19 18.75H15C14.5858 18.75 14.25 18.4142 14.25 18Z" fill="#191B1C"/>
</svg>
