<svg width="24" height="24" viewBox="0 0 24 24" fill="none" xmlns="http://www.w3.org/2000/svg">
<path fill-rule="evenodd" clip-rule="evenodd" d="M5 8C4.44772 8 4 8.44772 4 9V18C4 18.5523 4.44772 19 5 19H19C19.5523 19 20 18.5523 20 18V9C20 8.44772 19.5523 8 19 8H16L15.2279 5.68377C15.0918 5.27543 14.7097 5 14.2792 5H12H9.72076C9.29033 5 8.90819 5.27543 8.77208 5.68377L8 8H5ZM12 17C14.2091 17 16 15.2091 16 13C16 10.7909 14.2091 9 12 9C9.79086 9 8 10.7909 8 13C8 15.2091 9.79086 17 12 17Z" fill="#191B1C"/>
<circle cx="12" cy="13" r="3" fill="#191B1C"/>
</svg>
