<svg width="24" height="24" viewBox="0 0 24 24" fill="none" xmlns="http://www.w3.org/2000/svg">
<path fill-rule="evenodd" clip-rule="evenodd" d="M10.3333 3.58301C9.91913 3.58301 9.58334 3.91879 9.58334 4.33301C9.58334 4.74722 9.91913 5.08301 10.3333 5.08301H19.3333C19.4714 5.08301 19.5833 5.19494 19.5833 5.33301V13.6663C19.5833 14.0806 19.9191 14.4163 20.3333 14.4163C20.7476 14.4163 21.0833 14.0806 21.0833 13.6663V5.33301C21.0833 4.36651 20.2998 3.58301 19.3333 3.58301H10.3333ZM6 6.24976C5.0335 6.24976 4.25 7.03326 4.25 7.99976V17.9998C4.25 18.9663 5.0335 19.7498 6 19.7498H16C16.9665 19.7498 17.75 18.9663 17.75 17.9998V7.99976C17.75 7.03326 16.9665 6.24976 16 6.24976H6ZM5.75 7.99976C5.75 7.86168 5.86193 7.74976 6 7.74976H16C16.1381 7.74976 16.25 7.86168 16.25 7.99976V17.9998C16.25 18.1378 16.1381 18.2498 16 18.2498H6C5.86193 18.2498 5.75 18.1378 5.75 17.9998V7.99976Z" fill="#191B1C"/>
</svg>
