<svg width="16" height="16" viewBox="0 0 16 16" fill="none" xmlns="http://www.w3.org/2000/svg">
<rect width="16" height="16" rx="8" fill="#F6F7F9"/>
<path fill-rule="evenodd" clip-rule="evenodd" d="M5.99671 5.28999C5.80145 5.09473 5.48486 5.09473 5.2896 5.28999C5.09434 5.48525 5.09434 5.80183 5.2896 5.9971L7.29299 8.00049L5.2896 10.0039C5.09434 10.1991 5.09434 10.5157 5.2896 10.711C5.48486 10.9062 5.80144 10.9062 5.99671 10.711L8.0001 8.7076L10.0036 10.7111C10.1989 10.9064 10.5155 10.9064 10.7108 10.7111C10.906 10.5159 10.906 10.1993 10.7108 10.004L8.70721 8.00049L10.7108 5.99694C10.906 5.80168 10.906 5.4851 10.7108 5.28983C10.5155 5.09457 10.1989 5.09457 10.0036 5.28983L8.0001 7.29338L5.99671 5.28999Z" fill="#A6ABAF"/>
</svg>
