<svg width="24" height="24" viewBox="0 0 24 24" fill="none" xmlns="http://www.w3.org/2000/svg">
<path fill-rule="evenodd" clip-rule="evenodd" d="M4.25 6.5V5.99988H4.28824C4.5288 4.44239 5.87515 3.25 7.5 3.25H17.75C18.1642 3.25 18.5 3.58579 18.5 4C18.5 4.41421 18.1642 4.75 17.75 4.75H7.5C6.5335 4.75 5.75 5.5335 5.75 6.5C5.75 7.4665 6.5335 8.25 7.5 8.25H16.2903V8.24996L17.9999 8.24991C18.9665 8.24988 19.75 9.03339 19.75 9.99991V18.9999C19.75 20.5187 18.5188 21.7499 17 21.7499H7C5.48122 21.7499 4.25 20.5187 4.25 18.9999V6.5ZM17 9.74994V9.75H7.5C6.85568 9.75 6.25515 9.5625 5.75 9.23909V18.9999C5.75 19.6902 6.30964 20.2499 7 20.2499H17C17.6904 20.2499 18.25 19.6902 18.25 18.9999V9.99991C18.25 9.86183 18.1381 9.7499 18 9.74991L17 9.74994ZM6.75012 6.49988C6.75012 6.08566 7.08591 5.74988 7.50012 5.74988H17.7501C18.1643 5.74988 18.5001 6.08566 18.5001 6.49988C18.5001 6.91409 18.1643 7.24988 17.7501 7.24988H7.50012C7.08591 7.24988 6.75012 6.91409 6.75012 6.49988ZM13 12C13 12.5523 12.5523 13 12 13C11.4477 13 11 12.5523 11 12C11 11.4477 11.4477 11 12 11C12.5523 11 13 11.4477 13 12ZM12 13.9999C12.5523 13.9999 13 14.4476 13 14.9999V17.9999C13 18.5522 12.5523 18.9999 12 18.9999C11.4477 18.9999 11 18.5522 11 17.9999V14.9999C11 14.4476 11.4477 13.9999 12 13.9999Z" fill="#191B1C"/>
</svg>
