<svg width="24" height="24" viewBox="0 0 24 24" fill="none" xmlns="http://www.w3.org/2000/svg">
<path fill-rule="evenodd" clip-rule="evenodd" d="M4.75 12C4.75 7.99594 7.99594 4.75 12 4.75C16.0041 4.75 19.25 7.99594 19.25 12C19.25 16.0041 16.0041 19.25 12 19.25C7.99594 19.25 4.75 16.0041 4.75 12ZM12 3.25C7.16751 3.25 3.25 7.16751 3.25 12C3.25 16.8325 7.16751 20.75 12 20.75C16.8325 20.75 20.75 16.8325 20.75 12C20.75 7.16751 16.8325 3.25 12 3.25ZM12.873 16V9.63672H11.1387V16H12.873ZM11.5312 8.6875C11.6758 8.76562 11.834 8.80469 12.0059 8.80469C12.1738 8.80469 12.3301 8.76562 12.4746 8.6875C12.6191 8.60547 12.7324 8.49805 12.8145 8.36523C12.9004 8.22852 12.9434 8.08203 12.9434 7.92578C12.9434 7.76562 12.9004 7.61719 12.8145 7.48047C12.7324 7.34375 12.6191 7.23633 12.4746 7.1582C12.3301 7.07617 12.1738 7.03516 12.0059 7.03516C11.834 7.03516 11.6758 7.07617 11.5312 7.1582C11.3867 7.23633 11.2715 7.34375 11.1855 7.48047C11.0996 7.61719 11.0566 7.76562 11.0566 7.92578C11.0566 8.08203 11.0996 8.22852 11.1855 8.36523C11.2715 8.49805 11.3867 8.60547 11.5312 8.6875Z" fill="#191B1C"/>
</svg>
