<svg width="24" height="24" viewBox="0 0 24 24" fill="none" xmlns="http://www.w3.org/2000/svg">
<circle cx="12.2452" cy="12.3013" r="2.66315" stroke="#191B1C" stroke-width="1.5"/>
<path d="M16.5099 8.1212C17.5656 9.1985 18.2165 10.674 18.2165 12.3014C18.2165 13.9728 17.53 15.4838 16.4237 16.568M8.06063 8.0376C6.95585 9.12153 6.27051 10.6314 6.27051 12.3014C6.27051 13.9728 6.95699 15.4838 8.06338 16.568" stroke="#191B1C" stroke-width="1.5" stroke-linecap="round"/>
<path d="M18.3385 6.32812C19.8473 7.86724 20.7776 9.97554 20.7776 12.3011C20.7776 14.654 19.8253 16.7845 18.2851 18.3281M6.15109 6.32812C4.64227 7.86724 3.71191 9.97554 3.71191 12.3011C3.71191 14.654 4.66425 16.7845 6.20448 18.3281" stroke="#191B1C" stroke-width="1.5" stroke-linecap="round"/>
</svg>
