<svg width="24" height="24" viewBox="0 0 24 24" fill="none" xmlns="http://www.w3.org/2000/svg">
<path fill-rule="evenodd" clip-rule="evenodd" d="M8.48791 4.16551C8.37074 3.64535 7.62953 3.64535 7.51235 4.16551L6.96652 6.58862C6.92409 6.77699 6.77699 6.92409 6.58862 6.96652L4.16551 7.51235C3.64535 7.62953 3.64535 8.37074 4.16551 8.48791L6.58862 9.03374C6.77699 9.07617 6.92409 9.22327 6.96652 9.41164L7.51235 11.8347C7.62953 12.3549 8.37074 12.3549 8.48791 11.8347L9.03374 9.41164C9.07617 9.22327 9.22327 9.07617 9.41164 9.03374L11.8347 8.48791C12.3549 8.37074 12.3549 7.62953 11.8347 7.51235L9.41164 6.96652C9.22327 6.92409 9.07617 6.77699 9.03374 6.58862L8.48791 4.16551ZM15.4879 9.16551C15.3707 8.64535 14.6295 8.64535 14.5124 9.16551L13.5988 13.2209C13.5564 13.4093 13.4093 13.5564 13.2209 13.5988L9.16551 14.5124C8.64535 14.6295 8.64535 15.3707 9.16551 15.4879L13.2209 16.4014C13.4093 16.4439 13.5564 16.591 13.5988 16.7793L14.5124 20.8347C14.6295 21.3549 15.3707 21.3549 15.4879 20.8347L16.4014 16.7793C16.4439 16.591 16.591 16.4439 16.7793 16.4014L20.8347 15.4879C21.3549 15.3707 21.3549 14.6295 20.8347 14.5124L16.7793 13.5988C16.591 13.5564 16.4439 13.4093 16.4014 13.2209L15.4879 9.16551Z" fill="#191B1C"/>
</svg>
