<svg width="24" height="24" viewBox="0 0 24 24" fill="none" xmlns="http://www.w3.org/2000/svg">
<path fill-rule="evenodd" clip-rule="evenodd" d="M4.75 12C4.75 7.99594 7.99594 4.75 12 4.75C16.0041 4.75 19.25 7.99594 19.25 12C19.25 16.0041 16.0041 19.25 12 19.25C7.99594 19.25 4.75 16.0041 4.75 12ZM12 3.25C7.16751 3.25 3.25 7.16751 3.25 12C3.25 16.8325 7.16751 20.75 12 20.75C16.8325 20.75 20.75 16.8325 20.75 12C20.75 7.16751 16.8325 3.25 12 3.25ZM10.8926 12.793C10.8105 13.082 10.7695 13.4609 10.7695 13.9297V14.0586H12.3164V13.9297C12.3164 13.6602 12.3496 13.4316 12.416 13.2441C12.4863 13.0566 12.5898 12.8926 12.7266 12.752C12.8633 12.6113 13.0469 12.4727 13.2773 12.3359C13.6875 12.0898 14 11.8047 14.2148 11.4805C14.4336 11.1523 14.543 10.7578 14.543 10.2969C14.543 9.82422 14.4238 9.41602 14.1855 9.07227C13.9512 8.72461 13.623 8.45898 13.2012 8.27539C12.7832 8.0918 12.3008 8 11.7539 8C11.2422 8 10.7793 8.0918 10.3652 8.27539C9.95508 8.45508 9.62695 8.72852 9.38086 9.0957C9.13477 9.45898 9.00781 9.90625 9 10.4375H10.6641C10.6719 10.2188 10.7266 10.0312 10.8281 9.875C10.9297 9.71484 11.0605 9.59375 11.2207 9.51172C11.3809 9.42969 11.5547 9.38672 11.7422 9.38281C11.9336 9.38672 12.1055 9.42969 12.2578 9.51172C12.4141 9.58984 12.5371 9.70312 12.627 9.85156C12.7168 9.99609 12.7617 10.1641 12.7617 10.3555C12.7656 10.6055 12.6895 10.8262 12.5332 11.0176C12.377 11.209 12.1562 11.3984 11.8711 11.5859C11.6094 11.75 11.4023 11.9199 11.25 12.0957C11.0977 12.2676 10.9785 12.5 10.8926 12.793ZM10.7168 15.2363C10.6309 15.3848 10.5898 15.5469 10.5938 15.7227C10.5898 15.9023 10.6309 16.0684 10.7168 16.2207C10.8066 16.3691 10.9277 16.4883 11.0801 16.5781C11.2324 16.6641 11.3984 16.707 11.5781 16.707C11.75 16.707 11.9102 16.6641 12.0586 16.5781C12.207 16.4883 12.3262 16.3691 12.416 16.2207C12.5059 16.0684 12.5508 15.9023 12.5508 15.7227C12.5508 15.5469 12.5059 15.3848 12.416 15.2363C12.3262 15.084 12.207 14.9648 12.0586 14.8789C11.9102 14.793 11.75 14.75 11.5781 14.75C11.3984 14.75 11.2324 14.793 11.0801 14.8789C10.9277 14.9648 10.8066 15.084 10.7168 15.2363Z" fill="#191B1C"/>
</svg>
