<svg width="24" height="24" viewBox="0 0 24 24" fill="none" xmlns="http://www.w3.org/2000/svg">
<path fill-rule="evenodd" clip-rule="evenodd" d="M6.12564 10.9139C6.50794 9.84249 7.22792 8.92421 8.1772 8.29731C9.12649 7.67041 10.2537 7.36882 11.3892 7.43792C12.5247 7.50703 13.6071 7.94309 14.4733 8.68048C15.1672 9.27113 15.6924 10.0295 16.0021 10.8784L12.7148 9.55383L12.1542 10.9451L16.5269 12.707L17.2226 12.9872L17.5028 12.2916L19.2647 7.91889L17.8733 7.35832L17.0168 9.4842C16.6213 8.74798 16.0901 8.08685 15.4456 7.53826C14.3318 6.59019 12.9403 6.02954 11.4803 5.94069C10.0204 5.85184 8.57111 6.23961 7.3506 7.04562C6.13009 7.85163 5.20441 9.03228 4.71288 10.4098C4.22135 11.7874 4.19058 13.2874 4.62519 14.6839C5.05981 16.0805 5.93629 17.2981 7.12271 18.1535C8.30914 19.0089 9.74131 19.4558 11.2037 19.4269C12.666 19.398 14.0794 18.8949 15.2311 17.9933L14.3065 16.8122C13.4107 17.5134 12.3114 17.9047 11.174 17.9272C10.0366 17.9497 8.92273 17.6021 7.99996 16.9368C7.07718 16.2715 6.39547 15.3245 6.05744 14.2382C5.71941 13.152 5.74334 11.9854 6.12564 10.9139Z" fill="#191B1C"/>
</svg>
