<svg width="24" height="24" viewBox="0 0 24 24" fill="none" xmlns="http://www.w3.org/2000/svg">
<path fill-rule="evenodd" clip-rule="evenodd" d="M13.4892 5.17094C13.1102 3.60969 10.8898 3.60969 10.5108 5.17094C10.2659 6.17949 9.11045 6.65811 8.22417 6.11809C6.85218 5.28212 5.28212 6.85218 6.11809 8.22416C6.65811 9.11045 6.17949 10.2659 5.17094 10.5108C3.60969 10.8898 3.60969 13.1102 5.17094 13.4892C6.17949 13.7341 6.65811 14.8896 6.11809 15.7758C5.28212 17.1478 6.85218 18.7179 8.22417 17.8819C9.11045 17.3419 10.2659 17.8205 10.5108 18.8291C10.8898 20.3903 13.1102 20.3903 13.4892 18.8291C13.7341 17.8205 14.8896 17.3419 15.7758 17.8819C17.1478 18.7179 18.7179 17.1478 17.8819 15.7758C17.3419 14.8896 17.8205 13.7341 18.8291 13.4892C20.3903 13.1102 20.3903 10.8898 18.8291 10.5108C17.8205 10.2659 17.3419 9.11045 17.8819 8.22416C18.7179 6.85218 17.1478 5.28212 15.7758 6.11809C14.8896 6.65811 13.7341 6.17949 13.4892 5.17094ZM12 15C13.6569 15 15 13.6569 15 12C15 10.3431 13.6569 9 12 9C10.3431 9 9 10.3431 9 12C9 13.6569 10.3431 15 12 15Z" stroke="#191B1C" stroke-width="1.5"/>
</svg>
