<svg width="24" height="24" viewBox="0 0 24 24" fill="none" xmlns="http://www.w3.org/2000/svg">
<path fill-rule="evenodd" clip-rule="evenodd" d="M20 10.6707C20 7.9939 20 6.65551 19.3259 5.69408C19.034 5.27787 18.659 4.92051 18.2223 4.64241C17.2134 4 15.8089 4 13 4H11C8.19108 4 6.78661 4 5.77772 4.64241C5.34096 4.92051 4.96596 5.27787 4.67412 5.69408C4 6.65551 4 7.9939 4 10.6707C4 13.3474 4 14.6858 4.67412 15.6473C4.96596 16.0635 5.34096 16.4208 5.77772 16.6989C6.65907 17.2601 7.8423 17.3311 10 17.34V17.3413L11.1145 19.4654C11.489 20.1793 12.511 20.1793 12.8855 19.4654L14 17.3413V17.34C16.1577 17.3311 17.3409 17.2601 18.2223 16.6989C18.659 16.4208 19.034 16.0635 19.3259 15.6473C20 14.6858 20 13.3474 20 10.6707ZM8 11.6236C8.55228 11.6236 9 11.197 9 10.6707C9 10.1444 8.55228 9.7177 8 9.7177C7.44772 9.7177 7 10.1444 7 10.6707C7 11.197 7.44772 11.6236 8 11.6236ZM13 10.6707C13 11.197 12.5523 11.6236 12 11.6236C11.4477 11.6236 11 11.197 11 10.6707C11 10.1444 11.4477 9.7177 12 9.7177C12.5523 9.7177 13 10.1444 13 10.6707ZM17 10.6707C17 11.197 16.5523 11.6236 16 11.6236C15.4477 11.6236 15 11.197 15 10.6707C15 10.1444 15.4477 9.7177 16 9.7177C16.5523 9.7177 17 10.1444 17 10.6707Z" fill="#191B1C"/>
</svg>
