<svg width="24" height="24" viewBox="0 0 24 24" fill="none" xmlns="http://www.w3.org/2000/svg">
<path fill-rule="evenodd" clip-rule="evenodd" d="M11.1331 4.50385C11.517 3.83205 12.4857 3.83205 12.8696 4.50385L20.8694 18.5033C21.2504 19.1699 20.769 19.9994 20.0012 19.9994H4.00148C3.23365 19.9994 2.75228 19.1699 3.13324 18.5033L11.1331 4.50385ZM10.9811 9.16106C10.9811 8.59737 11.4381 8.14041 12.0018 8.14041C12.5655 8.14041 13.0225 8.59737 13.0225 9.16106V13.307C13.0225 13.8707 12.5655 14.3277 12.0018 14.3277C11.4381 14.3277 10.9811 13.8707 10.9811 13.307V9.16106ZM12.0018 17.4212C12.5655 17.4212 13.0225 16.9595 13.0225 16.39C13.0225 15.8205 12.5655 15.3588 12.0018 15.3588C11.4381 15.3588 10.9811 15.8205 10.9811 16.39C10.9811 16.9595 11.4381 17.4212 12.0018 17.4212Z" fill="#FEF08A"/>
</svg>
