<svg width="24" height="24" viewBox="0 0 24 24" fill="none" xmlns="http://www.w3.org/2000/svg">
<path fill-rule="evenodd" clip-rule="evenodd" d="M19 7.33301H5V9.66634C5.28912 9.66634 5.43368 9.66634 5.55389 9.69025C6.04755 9.78845 6.43345 10.1743 6.53164 10.668C6.55556 10.7882 6.55556 10.9328 6.55556 11.2219V15.2663C6.55556 17.0263 6.55556 17.9062 7.10229 18.4529C7.64902 18.9997 8.52898 18.9997 10.2889 18.9997H13.7111C15.471 18.9997 16.351 18.9997 16.8977 18.4529C17.4444 17.9062 17.4444 17.0263 17.4444 15.2663V11.2219C17.4444 10.9328 17.4444 10.7882 17.4684 10.668C17.5666 10.1743 17.9525 9.78845 18.4461 9.69025C18.5663 9.66634 18.7109 9.66634 19 9.66634V7.33301ZM10.6778 11.222C10.6778 10.8784 10.3992 10.5998 10.0556 10.5998C9.71191 10.5998 9.43333 10.8784 9.43333 11.222V15.1109C9.43333 15.4546 9.71191 15.7332 10.0556 15.7332C10.3992 15.7332 10.6778 15.4546 10.6778 15.1109V11.222ZM14.5667 11.222C14.5667 10.8784 14.2881 10.5998 13.9444 10.5998C13.6008 10.5998 13.3222 10.8784 13.3222 11.222V15.1109C13.3222 15.4546 13.6008 15.7332 13.9444 15.7332C14.2881 15.7332 14.5667 15.4546 14.5667 15.1109V11.222Z" fill="#A6ABAF"/>
<path d="M10.2046 5.28824C10.2932 5.20555 10.4885 5.13248 10.7602 5.08036C11.0318 5.02825 11.3647 5 11.7071 5C12.0496 5 12.3824 5.02825 12.6541 5.08036C12.9258 5.13248 13.1211 5.20555 13.2097 5.28824" stroke="#A6ABAF" stroke-width="1.24444" stroke-linecap="round"/>
</svg>
