<svg width="24" height="24" viewBox="0 0 24 24" fill="none" xmlns="http://www.w3.org/2000/svg">
<path fill-rule="evenodd" clip-rule="evenodd" d="M12 1L16 5L12 9V5.75C8.54822 5.75 5.75 8.54822 5.75 12C5.75 13.1396 6.05434 14.2059 6.58568 15.1245L5.28727 15.8755C4.62742 14.7349 4.25 13.4104 4.25 12C4.25 7.71979 7.71979 4.25 12 4.25V1ZM17.4143 8.87554C17.9457 9.79407 18.25 10.8604 18.25 12C18.25 15.4518 15.4518 18.25 12 18.25V15L8 19L12 23V19.75C16.2802 19.75 19.75 16.2802 19.75 12C19.75 10.5896 19.3726 9.26514 18.7127 8.12445L17.4143 8.87554Z" fill="#191B1C"/>
</svg>
