<svg width="24" height="24" viewBox="0 0 24 24" fill="none" xmlns="http://www.w3.org/2000/svg">
<path fill-rule="evenodd" clip-rule="evenodd" d="M13.7328 5C12.963 3.66667 11.0385 3.66667 10.2687 5L4.20648 15.5C3.43668 16.8333 4.39893 18.5 5.93853 18.5H18.0629C19.6025 18.5 20.5647 16.8333 19.7949 15.5L13.7328 5ZM12.0007 8.25C12.4149 8.25 12.7507 8.58579 12.7507 9V12.5C12.7507 12.9142 12.4149 13.25 12.0007 13.25C11.5865 13.25 11.2507 12.9142 11.2507 12.5V9C11.2507 8.58579 11.5865 8.25 12.0007 8.25ZM12.0007 14.25C12.4149 14.25 12.7507 14.5858 12.7507 15V15.5C12.7507 15.9142 12.4149 16.25 12.0007 16.25C11.5865 16.25 11.2507 15.9142 11.2507 15.5V15C11.2507 14.5858 11.5865 14.25 12.0007 14.25Z" fill="#191B1C"/>
</svg>
