<svg width="24" height="24" viewBox="0 0 24 24" fill="none" xmlns="http://www.w3.org/2000/svg">
<path fill-rule="evenodd" clip-rule="evenodd" d="M16.4716 3.46967C16.7645 3.17678 17.2394 3.17678 17.5323 3.46967L19.9323 5.86967C20.2252 6.16256 20.2252 6.63744 19.9323 6.93033C19.6394 7.22322 19.1645 7.22322 18.8716 6.93033L16.4716 4.53033C16.1787 4.23744 16.1787 3.76256 16.4716 3.46967ZM14.8442 6.50347C14.8245 6.48376 14.7924 6.48397 14.773 6.50394L8.88899 12.5471C8.88303 12.5532 8.87873 12.5607 8.87652 12.569L8.32935 14.6098L8.32928 14.6101L8.16072 15.2398L8.78968 15.0711L8.78978 15.071L10.8203 14.5267C10.829 14.5244 10.8369 14.5198 10.8432 14.5133L16.7344 8.46321C16.7535 8.44361 16.7533 8.41231 16.734 8.39297L14.8442 6.50347ZM13.6983 5.45753C14.3011 4.83843 15.2937 4.83177 15.9047 5.44272L17.7945 7.33222C18.3943 7.93183 18.4007 8.90208 17.8091 9.50966L11.9179 15.5598C11.7232 15.7597 11.4782 15.9034 11.2087 15.9756L9.17825 16.5199L9.17815 16.5199L7.70186 16.9158L7.70046 16.9162C7.53218 16.961 7.35507 16.9608 7.18689 16.9156C7.0187 16.8703 6.86536 16.7817 6.74222 16.6586C6.61908 16.5354 6.53046 16.3821 6.48525 16.2139C6.44003 16.0457 6.43981 15.8686 6.4846 15.7003L6.48488 15.6993L6.88037 14.2219L6.88045 14.2216L7.42769 12.1805C7.49631 11.9246 7.62941 11.6905 7.81428 11.5006L13.6983 5.45753ZM4.8 20.1499C3.94396 20.1499 3.25 19.4559 3.25 18.5999V5.7999C3.25 4.94386 3.94396 4.2499 4.8 4.2499H11.2C11.6142 4.2499 11.95 4.58569 11.95 4.9999C11.95 5.41412 11.6142 5.7499 11.2 5.7499H4.8C4.77239 5.7499 4.75 5.77229 4.75 5.7999V18.5999C4.75 18.6275 4.77239 18.6499 4.8 18.6499H17.6C17.6276 18.6499 17.65 18.6275 17.65 18.5999V12.1999C17.65 11.7857 17.9858 11.4499 18.4 11.4499C18.8142 11.4499 19.15 11.7857 19.15 12.1999V18.5999C19.15 19.4559 18.456 20.1499 17.6 20.1499H4.8Z" fill="#191B1C"/>
</svg>
